<mxfile host="app.diagrams.net" modified="2023-12-21T02:26:24.317Z" agent="Mozilla/5.0 (Windows NT 10.0; Win64; x64) AppleWebKit/537.36 (KHTML, like Gecko) Chrome/119.0.0.0 Safari/537.36" etag="BEfDlJSfS_P5ZvACTeJb" version="22.1.11" type="github">
  <diagram name="第 1 页" id="XlH055mANVE6fcU3ggZ0">
    <mxGraphModel dx="1627" dy="776" grid="1" gridSize="10" guides="1" tooltips="1" connect="1" arrows="1" fold="1" page="1" pageScale="1" pageWidth="827" pageHeight="1169" math="0" shadow="0">
      <root>
        <mxCell id="0" />
        <mxCell id="1" parent="0" />
        <mxCell id="xoQMl_OvJEaz2UEnhbg6-19" value="" style="shape=image;verticalLabelPosition=bottom;labelBackgroundColor=default;verticalAlign=top;aspect=fixed;imageAspect=0;image=data:image/png,iVBORw0KGgoAAAANSUhEUgAAAngAAAJFCAYAAABOc4pJAAAAAXNSR0IArs4c6QAAAARnQU1BAACxjwv8YQUAAAAJcEhZcwAACxEAAAsRAX9kX5EAAPElSURBVHhe7J0HeBVF+/b/r/QSEtILkAokoYTQe++9i0jvHelNjCIogqKIBTuCiGChiIiNqoKCgoo0QRCkd9JOcs6efM+95DnfEsFKSbl/1/Vc03bn7O7Zmbl3Znb2/wghhBBCCCGEEEIIIYQQQgghhBBCCCGEEEIIIYQQQgghhBBCCCGEEEIIIYQQQgghhBBCCCGEEEIIIYQQQgghhBBCCCGEEEIIIYQQQgghhBBCCCGEEEIIIYQQQgghhBBCCCGEEEIIIYQQQgghhBBCCCGEEEIIIYQQQgghhBBCCCGEEEIIIYQQQgghhBBCCCGEEEIIIYQQQgghhBBCCCGEEEIIIYQQQgghhBBCCCGEEEIIIYQQQgghhBBCCCGEEEIIIYQQQgghhJCMpKWl/W/FihW5YOK/B2FYerKZbjGk39A0D7WNGzfmht0sHob90n+GEEIIIYT8G+Li4u4Ryz1o0KA8sM6dOxfo37+/54ABA4rBxO+HcL9+/dyGDRtWGAa/bOuOeHG9+/bt69OjRw9fbNu7d29/NdkuEHmIGyxuqGwXBoNf9ivRp0+f4rJdiOwXIduUHjhwYPiQIUN89VheeumlPBCAIvpc4pIQQgghhPwJY8aMCWrQoMGgiIiIzz09PQ/ny5fvRK5cuU7873//Oyl2ymIIw5Cm6RnNuv2N7LSa/DTMjIebHtb0U8HBwSeKFSt2omHDhj9NnDhx9rvvvhsr6YQQQggh5GaMGDGicadOnRZUrFhxR1BQ0FE3N7fEvHnzOiTJCRORd9vtnnvu+YNpWv78+Z0+Pj7O8uXLp9SpU+dU+/btd48fP/6t9evXe3IIlxBCCCEknZUrV3oMHDiwaYUKFV52d3f/Kl++fKdFVBmSZIo62P/+9z9TYFnjbofhd2BWv9UQX7hwYdf23t7eDjneSzVq1Fj1zTff9BaRV0LiCSGEEEJyLgsWLAgcNWpU92rVqn0WEBCQIGLJmSdPnuvEHPy5c+d2hW+nWX8Xv2n9Xe3JU6GHMI5VzAgPDzc6d+68Y9OmTaOdTmeopBNCCCGE5DzwkkKjRo3a+fr6bixYsKDTy8vLFE2S9Aeziqrbafo7+psaB1fFnlUEYsi2QIECptCDv1KlSjt+/fXXQZJGCCGEEJLzGD16dIWSJUu+KuIoLWPPHQQV4vLmzWsKK7gQUEi7nYbfgVlFXEazCkH4YZrm4eHhHDNmzLrU1NSqEiaEEEIIyTnExcUVbtKkyQtubm6XihQp4gwKCnKJJDUIO6t4gqj6r6aC7GamvwO/uir6Mh4PTLeDIIRAxXl4enrGv/fee+v40gUhhBBCcgxYO65Vq1Ytq1WrtkV75TDMCRdhCCb41RCGeNJtbqdBsEGsZRRyGQ3HpJZxe29vb8zJ2+10Ov3kXHNLHCGEEEJI9gaLF3t5eX0pQsiGYViJMg0iDi5EE3rLIJxg6D3Ddhq+nebm5ub6LR0ahhUqVAg9c+bxIV63sR679vK5u7sbIlQvHTlyZI0IvBBJJ4QQQgjJvuzZs6fwuHHj6hYoUOAXCZriCL12EEYahnhCb50KKIRh8Ft7zm6HQaTpceDFD5iGkQYhh2O1Cjo9Lvi1lzEoKMi+ePHiKykpKWUlTAghhBCSfRHRE9qyZcs3PTw8LkAgqbCCmIMrm5jiSf2Yn1erVi1nnz59jBEjRhgDBw50DBgwwA6D/5/aoEGDbmqSbh82bJi9b9++9v79+zsGDx7s6NChg1GqVClDBSaOE36IUhw/wjqsi3gcN3oBkRYbG2s4nc7yOG9CCCGEkGyLiKaYKlWqnBQxlCJB10sK6kcvGIZDEYZIevLJJ52nTp36zW63L0xISBiYkpLyn8zhcPyp6XbJycmmm5iYOOi33357skGDBju1906FHVyde4ewHjPiYCEhIUZqauogEXkBkkYIIYQQkj1p27Zt5YiICEMEkPmlCgghq8DTnjKsiTdmzBj7iRMnLojQekxE0l0b6sTCxRs3brwvPDx8GYIQczCIPbgq6JCGOJwPzN/f3ylC8W3Zn0umEEIIISR78sQTT7hVqlSpnZ+fn0sQqat+ncNWpEgRY9GiRQkijtaLwMsUw5ydOnWqVqJEiW/kGG0q6lTgSbIp6uBXweru7u5MSEj4xm63NzUzIIQQQgjJbsTFxUVHRUXN9vb2NoWR9nRJ0nUCCd96zZcvn/Hqq6+eTktL6yMiz9fM4C6zZs0a74EDB3YLCgo6r8eq5yHJLnGnLubpicDbJ8ff5loOhBBCCCHZDBF4tSMiIt4vWrSoKYIk6jpxp0IJQ5u+vr7GsmXLfhWBV1TiMg3PPfecf2Rk5Akcq/be6XGri3gYhmvj4+P3U+ARQgghJNsyffr0ZiLwtkDgWUWR1SCYAgMDnSKinJ988smRzCbw3njjDf+oqChT4KlItfphKvAkzrh06dIeEXitsC8hhBBCSLZDBF6rkiVL7sCCwRBAVmFnNfTgxcbGOjdt2pTpBN4rr7ziJ+LzsBynHccqUS6Rp34VeBJnnDt37jsReM0lnhBCCCEk+xEXF9dWBN4P1iFaFUZwVfT5+vo6y5Ur5/z8888zncB74YUXfMuUKbNHjj8Fx4phWIl2nQPOSwUeevBOnz6NlyyamTsTQgghhGQ3pk+f3iEsLGwvlkCBAJIolyiCq2EfHx9ncHCw87PPPst0Am/x4sW+0dHRP4mwS7Eetxri4KYLP+PMmTPb+BYtIYQQQrItDz74YGcRbofQg3czgQfD1yvwpu2HH36YWQXefhFwqTcSeGpYFFnSjVOnTm1zOp1NJI4QQgghJPsxZcqUrv7+/r/hU17a0wWBlFEkYXkR2Lvvvpsp5+BFRUUdFoHn+DOBhy9aiMgzfv/99+0i8NiDRwghhJDsyYQJE+7z9PQ8gQ/430zgoWdPPwW2YsWKTCnwoqOjj9xM4GkYQ7Rixv79+/mSBSGEEEKyL+PHj+9epEiRM/pRfom6qcCDeMqsPXgi8I7eTODp0DPSxIydO3fusdvtXCaFEEIIIdmTUaNG9ShYsOA5CLibCTz4NT0TC7yb9uCh507jIPC2bNlySAReOwkTQgghhGQ/IPAKFChw4UYCzxrO6gIPLuLFb3zxxRfHReB1lDhCCCGEkOzHiBEjIPDO4w1Tq6CzCiX48YIFwplY4P16M4GHOHXxPV0ReGfkHLpIHCGEEEJI9mPUqFHdRfSc0V4uGASSmoYh8ODPxG/R/porV64/nYMHK1y4sLFu3boLTqfzXgkTQgghhGQ/RowYcZ8IvJM5ReAVLFjQ+PDDDy+LwOsmYUIIIYSQ7Mfo0aPvFYF3LKsLvMjIyEMi5Ox/NkQLy5s3r7Fy5cqrIvDukzAhhBBCSPZDBF4XEW+Yv3adoLOKpMwu8PAlCxF4B28m8KznI+nGe++9F0+BRwghhJBsywMPPNC5QIEChzK+ZGEVSfBndoEXFRW1TwTeDT9VpueTHm8sX748QQRed/ETQgghhGQ/Ro0a1UkE3i9ZXeBFRkb+LAIv5UYCTy19qNZYtmxZIgUeIYQQQrIto0eP7igC70A26MH7UQSe7c8EnqTDhcBLEoF3v/gJIYQQQrIf6QJvf1YWeK+99pqPCLwf/q7Ae+edd2wi8HqInxBCCCEk+zFq1KgOhQoV2pfxW7RWoZQVBF5kZORuEXDJNxJ41jAWOn7++edTKPAIIYQQkm0ZPXp0ezc3t5+ygcDb9XcF3nPPPZcqAq+nhAkhhBBCsh9jx45tKwJvdzYQeN//HYGHdfBE4NkdDgcFHiGEEEKyJ+PGjWvl7u6+AwLOKuiym8DTuNy5cxvz588XfefoJWFCCCGEkOyHCLwWnp6eXxcoUOA6QZdRKGVlgQfTONnGeOaZZwwKPEIIIYRkW8aPH9/Ux8dnU6FCha4TeGoIw7LyHDwY4uFKmjFv3jwKPEIIIYRkXyZMmNDI39//Mzc3N6sIus4Qhzl6cDOrwPurZVL03MSMp556igKPEEIIIdmXSZMm1Q8ICPioSJEiWVbg/Z2Fjq0C78knn6TAI4QQQkj2Zdq0aXWDg4NXFy1a1CWGRChdJ+7gZuYhWgi80qVL7xERlyJB13moQdzhnNLDxmOPPWY4nU4KPEIIIYRkT0Tg1Q4JCXnPKvC0F8zaE5bZBV5kZOTemwk8mLUHb+bMmRR4hBBCCMm+iMCrGRoautzT09Ml6FQMZTGBt0+OO1WCrmO2mp6TuMb06dMp8AghhBCSfRGxU0ME3jIvL6+sLvD2/5nA0yFaCLyxY8dS4BFCCCEk+xIXF1c9PDz8bavAy+jCssAcvAM3E3g4jzx58qjfGDx4MF+yIIQQQkj2JV3gLc3qPXgi8A7Kcdsl6DpmNZxP3rx5TT8EXq9evSjwCCGEEJJ9SRd4b2VngQfTHjzZxujWrRsFHiGEEEKyLxB4oaGh2boHD5Y7d251jS5dunAOHiGEEEKyL3jJIjw8/E9fsoCb2QVeqVKlDspx2nGsetxqGobIg8Br06YNBR4hhBBCsi8i8GqFhYWtyOo9eCLwDsjxpuKYrccN0/PBm7RiRuvWrSnwCCGEEJJ9iYuLqx0aGvp+dhZ4liVSkGa0atWKAo8QQggh2Zfp06fXEYG3MqsvdIxlUuR4/1LgiWu0bNmSAo8QQggh2Ze4uLi6IvBWZQeBJ8f9twRe8+bNKfAIIYQQkn2ZPn16vbCwsDXZReDh2DMKPD2fdKFnCjwuk0IIIYSQbIsIvAahoaHrsrPAU0tfKsVo1qwZBR4hhBBCsi9xcXGNReB9ntUFnn6LlgKPEEIIITme6dOntxCB9/WfCTy4mV3gRUdH7xMBd9MhWku8UaVKFc7BI4QQQkj2RQRem7CwsF1ZvQcvKipqrwi8lJsJPMSln5dRtWpV9uARQgghJPsSFxfXPjQ09OdsIPB+/iuBp0O0FHiEEEIIydaIwOsYFha2PzsLPA3nzZsXLgUeIYQQQrI306dP7yACb19OEHh58uSB36hUqRIFHiGEEEKyLyLw2oWGhv6UnefgwRCHIVoIvJiYGAo8QgghhGRfstFLFjd9ixaGuPQ0o0yZMnyLlhBCCCHZl7i4uNahoaHfZXWBFx0dvf/PBJ7GQ+BFRkZS4BFCCCEk+5Iu8HZmFHjpYsgMw83sAk9E28FcuXKZ36KVqOsMQ7Nw8akySTdKlCjBIVpCCCGEZF+mT5/eSgTejj8TeLAsIvDsNxJ46d+gdQ3RFi9enAKPEEIIIdkXCLywsLBvs4HA+wUCD8cuUddZRoFXrFgxCjxCCCGEZF/i4uJahoaGbs/qAi86Ovpg7ty5TYFnPW6Yij4VeIGBgRR4hBBCCMm+iMBrHhIS8lVWF3hlypQ5kCdPntT0eXau44ZlOC/D39+fAo8QQggh2RcReE1DQ0M3ZQOBt+9mAg9mOR/D19cXAq+3+AkhhBBCsh8i8BqHhIR8ntUFXtmyZX/OmzdvCgQejl+irzOrwPPx8YHA6yPncY+ECSGEEEKyF9OnT28QGhr6cdGiRbO0wCtTpsxPIvBsWBLlRgJPz0n8hre3NwRePzmPXBImhBBCCMleiMCrFxYW9mHGHjy4GoabBQTeD7ly5bLhWNUk6Q9iT+INEbMQeAPkPPJIHCGEEEJI9iIuLq5uaGjo6j8TeLDMLPBee+01HxV4Evy7Am+Q0+nMJ3GEEEIIIdmL6dOn1xGBtwoCT4LXiaKsJPDKli27WwResgSvO26rPz2sAm+wnEd+iSOEEEIIyV6kC7yVmIMnQdOyqMDbRYFHCCGEECJA4IWEhHyQ1QVemTJldorAS5IgBR4hhBBCcjbpAm+lh4eHSwRl0R687blz507EMf9dgcc5eIQQQgjJlkybNq1uiRIlVmVlgbd06VLvcuXKfSkCLwHHjOPXY6fAI4QQQkiOAwIvODh4dTYQeBvz5MlzlQKPEEIIITmeKVOm1CtWrNgad3f364SdVRjBn5kF3ptvvulVoUKFT+QYL+fNm9d17Fj0GC5Mz01cQ87VEHE3UM4jr8QRQgghhGQvJk2aVF8E3toiRYrcVODBMrPAW758uWfFihVXFyhQ4GK+fPn+rsDjQseEEEIIyZ6kC7yPsrLAW7p0adGqVauucHNzO4fj1GPPlSuX6/gtAs+J3kqBnyojhBBCSPZkypQpDQIDA9dldYFXvXr1xR4eHmf0OGEQeHoeGQWenEMfsf9JHCGEEEJI9iJd4H3s5uaWZQXeypUrPerUqfOSl5fXyb8r8ITeEiZ/k5deeilPXFxc4Lhx46LHjBlTdfTo0XWHDx/eZMiQIS3EbS1u26FDh7YX6zhs2LDOYl3Ff6/Ed5Ptu40dO/bekSNHdh0xYkQXGLaRtE6DBw/ugH3FbSnbN5W0hqNGjao9YcKEyjNmzCj92GOPea1YsYI9rYQQQsg/4a8EnrqZWeCJAHBv0KDBM35+fscLFChgHieMAu/fsXPnzjxLly4NmzlzZgsRcgM7d+48tnHjxpPKlSv3ZFBQ0Cty/d7Oly/fyty5c38k1/MTucafi20Q/yaxzXLdt4p9Jf5tEr9dstyWbl9L+CuxLyUNtiVPnjybxf1C8vpU8lxXuHDhNb6+vu+Hh4cvrVKlykL5X2e1a9duYt++fceIuBz16KOP3vvGG29U37Ztmx+OlRBCCCE3YNKkSQ39/f3XZ2WBt2rVKrfmzZvPKlas2NFChQq5jpkC789Br5yIJt8JEyaUFrfatGnTmk6fPr3diBEjenTt2vXxRo0abapatepZEXZGWFiY08fHx4n7BC+y4NriWuJFFhFppos4DVvjcO/AsB/isZ/1/tK84CId2+J38HvFixd3ym8bZcuWdVSvXt0mx/Rz+/btlw0YMGCSHHNnuX87TJw4sQUeVOLi4qq+8MILpbFsDnv9CCGE5GikYWwkAu9TNKjWRtfqh5vJe/AKt27denJISMgh63lYhQT86ubkOXi4ViLkglu1ahUTFRXVWETXcPlvF0jSp2K/yPWJF9e8TlhyRsUX4jT+z8Jq1nvoZoZ0674Iqyi0xsFU/OnxpJtDLEnO4Xdxd8t26wICAp6rVq3aoGHDhtX98MMPyx49ejRAxDzXOySEEJKzmDBhQiNpFD+z9uCpq340qtrYL126NNMJvE8++aTQvffeOyI8PHw/zkOiXMIAfpj13HKKwEMP3dy5cws9/vjjRePi4nzHjBkT1KNHjzaNGjV6PTo6+oinp6cpqPRa/ZVJlv/YsJ9VlGk+1nz/ym6UJ0zzVMO5FCpUyChRooRRu3Zto1evXj+PHz9+1iOPPFLtmWee8VuwYIHX4sWLC23cuDG35EMIIYRkXyZOnNhEBN6GwoULuxpTNJZwYdqQQuDBXbJkSaYTeGvWrCkowqWPiJY9+CKHVQBkPCe4OUXgRUREVJf/dqKvr++HPj4+x4sWLZoi554q/7UDPbIQXrKZ63r9HcP2GQ3X1GrIFwbBBbNuizx0G6ShV86a/ldmPRb9Pc0n3Qy5V40CBQoYRYoUcYiITfXz87OJGy/XYXtMTMyE0aNHR0lehBBCSPZFBF4zaQC3WOeuodGEC9PGVHvwMqPA27hxY/6BAwd2io2N3Y1eKYm67tjh13OCiyVhsuMcvAULFgQOHz68e5s2bT4oX778QRG7eOkEawMmiPBJxbnjesBVv+z2l6bbW02v7Y3ysKbBVHxBiOEesu6fcfuMeWU067Zq1uNScWkVkBD0EH5yHZKLFSt2rmHDhkfkfvn+4YcffvfVV1+9/7XXXvORvAkhhJDsw+TJk5uLwPvqzwQeXJ0gv3jx4kwn8NatW5dvxIgRjatXr77T29v7D8cO03NCHASew+HoJeEsz8iRI/OJYKlYpUqVB6OiotYUL158n4iYK/KfYt5kmgjzNP3vVFypAILfeo1uZthG7UbpyBuGhwAY/FYxZ7Ub5WHN/2a/cTPLuK/VMm5jEXyGXKPUsLCwSxEREfvKlCmzpVSpUu/16dNnxtNPP11f9iGEEEKyNngDUcTANgg8CZqGhlj92lBCJKDxfvPNNzOdwMOyHuPGjatUr169r319fV3HbT0P9SM+Owi85557LmL48OG9K1eu/IKHh8fHBQsWPCwCJhHnCWElm5hmFVxIs5puowLoZqbb/RvD/vp7mpfGqeDS30lPT7PYdXn9lWm+GQ3D0bi/5Rq5tsV1wT2NdNwPcs2SROQdbd269YapU6e++vLLLw9/7733Ssq2hBBCSNYDAs/f398UeOkNrNnowYVpHBpJNMavvfZaphN4WBJj2rRpxZs0abIRPVcS5Wrs4YepH/F4ESOrCby4uLjcY8eO9W7Xrl39qlWrDi9btuwrxYoV2xkYGJhYtGhR8//R/0pdCD3MrcT/Br9eExVWcG8k/DIa9v0zw2/rA4Dmq2nYH2sTai8iwjg2NRwT4q0m+6dZTfaBmftie6shD/weDL+ncTBsjzir35qupsfl5eXllOtpxMTEGHXq1NnbuHHj13r27Dls1qxZtWQ7QgghJOuAIVoReF9aX7LI2EgijAYa7sKFC486nU7fzPaCwlNPPVWgVatWnwQEBLiOPeN5qD8rCbyNGzf6z5s3r9awYcN61q9ff5r8V6tEzJwQs0uyeY7Wc4NYUTGu5w/xY91G99H/VsXYzUyF181M88TvQOTBsJ/+nhp+D/HYDqb5qzhUy5i/bm/dB6bnoPlm3Ee3sR6Dnq/1mHC94FcRqtugNzg6Ovp4hw4dVsyZM6fPhg0bOv3444+RJ06cKCjbE0IIIZkXEXiNRTR8/mcCD4aGF+Fnn332mAi8UiLw8kg4UyEN8UfFihVznQOOW8/F2tCnC7xM+5IFeiTj4uI877///orNmjUbXaVKlY8qVKhw3sfHJ61AgQLmnDoIEBUmMAga/EdwNU6FCkSL9fzhR7yaiqebGbb/EzOKFi1qoOcrMjLSkGM16tWrZzRs2NC0Bg0aGE2aNDEaNWpkxlerVs2IiooyRIgbBQsWNJAHjlNNj9FqNxJ/1uOz7n8j0zxwrvDjN+GHq2m6HfLT3mz48VY2FlqW629v2bLlcXmImN+xY8f2L7/8MsoAF1MmhBCSOZk+fXqdoKCglWjI0KBJlKuxU78KCaQPHjz4RHJyciMReUUkLlNx7733flS6dGnD2qhrI67ngDTMuUpISOgrDfQ92C+zgF5RLESMZTzKlSvXW0QQPvN1FdddhZC6Em+6ECrWuWWIw/YqWvQ/VTFnFTMwXBcMTUI0IYx0CGC8eZou2lJEaCY89NBDF5cuXXr6888/P7Zp06ZfNm7ceEDcA1u3bj2wZ8+e/eDo0aP7T506tf/s2bOwfWfOnNl3+vTpvefOndsr4b0I//777/sOHz68D/vs3Llz/9dff33giy++OLBhw4YDkveBNWvWHHj11VcPyYPH8fbt25+uXLnyhZIlS8aLcE/x9vbGm7Dm8WPYV+eN4ppA9Oo5qQjEduk9z+YQ74221fw0bDXE4/rht3DtsC2uja+v76lu3bq9uWjRovJyHYodPHiQCykTQgjJXMTFxVWMiIh4CW+fqhhAw3azRq9Vq1bSXp8bLmLEX8KZil69eq0VMeASeNqow6zCBgLvwoULQ+Qc8ks4UyD/wz2DBg1yb9OmzX0xMTHbIbowtw7HLcmu81HxAj/OB676IUAgXvA/QpBgH+yv+yEO26G3FmJJxIoh25gmcUb16tUd06ZNSxWRZdu1a5ft0KFDCSLIfrly5cr6lJSU+SLqcc1qi+sp+9wWJP88kn+A3W5vePXq1YEXL16c89tvv30ox/KLiMDESZMmJYvotMl5YNkXB3oB5f90/ecQfTg/PX+Ynne6sDNf3lDBpttoHK6XlgOYXjvEYX+IaQi+UqVKGc2aNUsUobe5R48eNbGotBx7pnpgIIQQkoOZM2dOeGxs7INBQUGuRhGNoTaYcNHIqVCIjo6+fOTIETT24WYGmYiRI0euEIGXhOPU41dDA414+CHwjh07NlHOIdOsf1a3bt2uoaGh6+Q4L8pxpkiU69hx3HrsajgfiA2cC0QN/js9R/3/YEhDPPZRcYh4LBXSp08f47PPPjNOnz7tECF3TtyPkpOTB8h18VMT0eItVlT8bmIFIMDEbuv8Swglsbz4Pfwufl/MG8cTHx/vd/ny5aonTpyYuGPHjq9Xrlxp79SpE4Z9nbiHMUSP65J+jk68dKM9drgOch+bAg9xuDYqlhEH0+sGP+JVMOu11Wsp2xiyL0SyTYTiufvuu++TV199tY+kEUIIIXcfaZTcmjZt2l6EkavxUkNDh0YNjSB6LZDu7e2d8PPPP6+XxrY89s9MTJ8+fV6pUqWO45i10cYx4zzURRwa9t27d8+Rcyhl7niXiIuLC+zbt2+P6tWrf1G8ePFfihYtehXCAccK02svm7rEhZ4bBF1GQa5iBGJcRR/SYcinRYsWzvXr8dc5kx0Oxw8ilnANqqSmplZJSUmJFX8ExJRsn6mR48wnhhd9InHsOIeEhIT+Z8+eXfThhx/u69ChgyHCzsA1wOYwXBO46LXTewNmvY5qep9gO1xTa68e4jQdhn1xbUNCQuJbt27967Bhwzb069fvyRdffDFE0gkhhJC7A4YG+/TpU7NSpUp/6M2AqXhAPMzDwyNl+/bth6RRrY79MxNPPfXUiDJlynyH49UGWXtvrGIIcSJ03pBzqIH97jRYnFhEdWtfX99XRXD8IMeUiuNTAWe95laBp2mIQy+VihU9N8QjDoIEw7tVq1Z1Dhw40Dh16lSy3W4/KOf7rAi7nomJiR3E30As0/XC/lvkXLzEysp5Yn5oJ7FuW7ZsWTpo0KDjcs9i+Nmpb1jjOuMewLQExOHhBdcMhni95jD4NQ7XHtca11z/Kxh6UZEm20Gcp8h/cEIemD5++OGHx3399dflcHyEEELIHWf69OlV8IajNE7mXCaYRJtm9aORE1HiWL16dYI0oPUkLlOxaNGiplWqVFmLY9YeG22srQIP/tdff32tnEMb7HenEDGdXwRHo4YNG8aJANjo6el5QY8Lxwu/CgkVEQhDgOh5wJCGOAgLvByjvXUQdfXr13cuWLDA/ttvv10wDONzsSdE1I2Uc+0uFoWhTxxLdkfOM5ecb9WUlJQ+4k799ddfX5g2bdp3NWvWvBIbG2votZZNXYbrDjEHkYx0uc5p2EYNcTBsq2H4rS7+C/yXPj4+zkaNGu0fPnz424888sioNWvWlJBjynRvnhNCCMnGLF68OKZjx44npIG6bu4XTMUGDI2aiBJjzpw5ht1ubyDpmYrly5cH1a1bd6F4XQIPxw8XYkn9OJcZM2Z8Jw1/fwnfdvBm7IgRI2JKlCgxvHDhwmvkOp6XaFMQWIUowjhOuDhGFXhIRxi9dhB0EHeIw/ng5YiIiAhjyJAhxpYtW45dvnx5nYi6p+TcHpL/qLWIikz3MsydRq5BfrkepUTo9pJr8+iOHTsWd+rU6Zvy5csnYygXwlivM669vkih/wmuPf4nvX/gQgji/0EawjocjO2xH8S3+LEUTEpISMgREZVPPv/88z3kWErgmAghhJDbzpdffhk+cODA96XRuiRBs6HKaNq4oVHr16+f89KlS5lO4IF69erNEucPDTIaXW3EER49evRJafCnYp/bSVxcXCm5tt1q1KjxijT65yGQVTTo8aghXg1hPW59aQBx2A/iIzIy0jl8+HD7+++/f0VEy/diH4mImZGamlpbtiN/QlJSUnG5VvfLNVvyySefvC/ieK/cN1cxZIvri+uvw7IIyy5mGC5M0/GfqKnQ0/8JhnsQ/xVEJN7uvvfee/fPnj07bvPmzVVFiGf6uY6EEEKyOFevXvWeMmXKQDc3t+MSdDVQ6IWAi0YLIgMNG9YBg+3bt69NWiYc7qtSpcosNKpWkQQXjS0aYRVL9913X4rdbp9j7nSL2bhxY+6nnnrKU0RD2QoVKiwQ4XBErpm5FpsKBxwfDG96qnjA0CCODcePnjqk+/v7u7YvVKiQuZDwjBkzEn766acjIlC3iUh5T8RKZzGva79O/ily7Qb++OOP7z/++ON7atWqdbJo0aKG/AfmSxr4T3DPYDMdfsX/ofcV/Bl7h+HC9L9EHrKNuSB0SEiIo3379huefvrp+6QMBUoZ4mLJhBBCbg/SyOSeOnVqkAi6vRASaLAk2myY4MIQhzSN271790PJyckR4s9UNG3a1OzBU4MYRaOs56RWp04d5+bNm5+91SIV66E9+uijoV26dBkSGRn5e2BgoB0NvfW64ngQVlEAF4IO1xaCACIB6ehRQjrS7r33Xsfy5cuTjhw5ci4hIWGDiLtucuyc03ULEaEXcfny5Wmff/75yXHjxp0TMZ3g6+trh9jz9PR03fsY0sX/pGUC/58KO/2vIQYh/hCHpVqwL+IhFmNjY50i8n5/8MEHn162bFm4/Kf55b/kGnqEEEJuPYMGDcojjdCP4nUJER2G0jAaLDRUiNuyZctHdru9KfbNTDRo0MAUeDhmbXRxHghbzwtDnFOmTPlMGvVb+qJFu3btmkVERKzz8vKySWPukGMwlz3BtYOwk01cxwIRAPGmcZqOeO016t27t3P16tXOn3/++WRqauorcrxBIgYgCHJLOrmFyDX9H0SzWEEM427dunXmrFmzfsFn1STZ/E8g9CDUYIjDf4Z4GPxWoYf/VMsL4vQ+wDdu8bKS5GuTe+Vk3759H/jpp5+KyzaEEELIrSUuLi53gQIFTIGHRgqNEhon+NFwIazDUbB58+adlYZw0LW9Mw/VqlWbhePFsaL3TqJcjS4aZfghoIoXL+5s1qzZ6UuXLr1k7ngLaNmy5aTg4OAf5TcSJOi6Xmj8rYJAG3wY/Hp8OF70DuG6S17Ghg0bjAsXLqx1OBy90bsk19tfjD09dwC5zrnEvJOTk8MPHjzY+uWXX/6qXLlyiRhSx/+DXjn8pxlFHb6igd49hGEq8LCt9QsbuC+w2LQ8CNhjYmJOPfTQQ198+OGHIySNEEIIuXVA4EmD86MOPUmUKVDgogFTsaLhBg0apAoPYN/MRI0aNcw5eOI1j1cbVBVVOHb4Mb8wICAAn+Vaj/3+LXPnzi3UoUOH6rGxsYt8fHx+FTGXog2+1RCH49H5dhAGOE4YjgfiDi6G70TYXRZh94UIu+4pKSnlRdzdtk+Dkb9Grn8hscq///574+eee+49+S8vSDQWUzb/U/x3ep/hf8Z/jPICv4aRpvegGsJIx/eTIyMjE2rVqnXw3nvvXbJp06Yo+T1+35YQQsh/BwIvf/78P4rwMIcUJeq6BgkNFhoxFSP+/v7G2bNnp6Hxw/6ZBbxFiwZVhZM2vNpzpqJVG+CJEyfukHMol/Yv5uLNnj27WLNmzXqWKlVqvYjjK7huyBe/r9cOcfBjKBa9c4hTQ+8OevdwHDExMc5ly5YlX758eascz1ixBnJMBWU7komQh5rqp06dmvDEE0+sCw0NNUTU45Nl5v+IHjr837jn4Go50ntQDfeHpqn4w72BlzCCg4PjmzRpsvL9999vJfcChT0hhJD/BgSeNFD4qoLZYKlAgfiAH42UihfMQ8JQ1aZNm94WEZKpluVo0KDBwyLmbBCh2oji+LUhhR/nAcEHGzBgwJHff//9QTmPf7RsRe/evSvUr19/qoi7r62/BdNrB8Pv4nf093E9MTysbyhjuHjUqFFYduaA3W5/VYQdvjLBhj0TI/+Pj1iTvXv3zhk2bNgO+f+vIBqGewv3A/5zlBn83zD8z7CMYg9x+jINBD/86MWtVKnSx0OGDOl38uTJYEkjhBBC/h1Y2kPEyjZpcFKsw7RoqOCHaFE/Giw0VE8++eThpKSk6ddyyBz06tVrhAioX63nAMOxw8WxozdNz+nee++N//DDD7edP3++GPb/M1asWJHr888/9xNB1qRYsWIL5Td+RX7IWxty2cx0tYFHGIYeHriIx7Fhm+bNmzt+/vnni6mpqR+LYJggIjNStiFZBPnPCoj1+uabb57v37//j/LgkwqB5+Xl5frvIdoQBz8M9xzScA9Y49H7B1fjEI6MjNw+ceLE8ZcvXw6Xe+N/Ek8IIYT8MyBeGjZs+E5oaOh5DBdBiGivkwolNFYQJmikIFhEKBk2m+1NM4NMwuOPP163W7dubwUGBrp6yWAqvnDs6kcji69AdOrU6cq8efOa7tu3z03ib8i4ceMKDR06tHznzp1HxsbGfufm5pagvXNosPFmpDbcsrnrt9Bga2OvxyO/6Xz++ecvGYaxRwQCvolbVhrw/JJGsiD47xwOxwApQ1+WLVv2pDwkOfDfw7QM4b9HGH7cMyr4tUzhPtF7Ux8+UA4rVap0UB5aZm7fvj2a9wghhJB/jDQe9/Tt23eMNCh78B1NFSUYQtKGScUdTIeWdu3atUwESqaZh4eeyClTpnSvWrUqlrYwMFyG49XzgaEx1Z7IdH9K27ZtN61evbr5iRMnrpv3tmfPnrxxcXGeVapUaebl5bVcGucUMfNrFGi8kQ9+QzY1TefUIV17Y/T3JR5fM7DLb5yRa/b+1atXO+E3SPZA/tOo06dPzx4zZszB8PDwRMypQ/TN7g+4EHu4P3CvIKxxcLE94iWfywMGDHhv586d1eU3Ckg8IYQQ8vdZtmxZ1H333bcW8+u0kYGhAdJePBUtCKO3atq0aXhJ4X4IRDOTTMCSJUs6N23a1CFefAvUPF5tUOGHqwJPw6VLl3Z27dr181GjRnWQOAyHmSYNa6W6desu8Pf3Py4NNeYnmi+hYB9cIxjyCAoKcl0bXdsOpkNxUVFReIkiNTk5+ZRcLyxSzE9VZUNQDuT/ddu9e/fa7t27x+OekfvFFHoZyw7KFcL6MKD3443C8uCFNRF3PPHEE23lNzhcSwgh5O+D3q/x48e/hTlEECkqjmA69Gjt0YOJMMJQ42ppdDLNwrs7duyo1rp169W+vr7mnCirkENjCT8MDa32oCBeLEniT4u7R85zq5z/XtnndwlflXi75OUSeNgH+cFwvZAf4vB78CM/iD4MwbVv3965f//+s6mpqcuuXLlSEr0wbKSzL/hvxbwvXLjQTR4Y1uI7tLhHcC9gbh3uEdwfsqlZxnA/IQzXer9a77H0+8pWr169Aw888MBE/A4hhBDyt5k5c+YzAQEBF7UBgqCDq2IPYW2MMEQpZt+zZ8/OzCTwTp06VWjSpEkNK1aseFUaVkN72dBQwq/nZhWqFkNvS6qkJcl2qWLmW8XYRxtfuMhHhR72gwDWhhlzpxBfo0YN54IFC5xHjx7dLOJuCD7tJteJCxXnEOS/drfZbKUPHDjQa+DAgQnyMOTA2nl6n2Dept5LiLPeY0hX0wcIxJcoUSKlSZMmR/v167fo22+/DZPfyHTfgyaEEJIJee655/qJwNumwkWFjAo9FUdwESdpxsSJE39xOp11xDLNXLxt27aF9OzZ88eoqKgkCFEcr7WHBOen5wiDHz0s6LnEnKmMjSwMeei+cNWQhuuEoW1tsGvXrm189dVXKXJNnrHb7Q3E9ZPtSA5ERJjHhQsXusyYMWOVt7f3aawhqeUK96b69f6SXcx7DGEYwtgGcVLmzCFfyeNCSEjImvfee69PYmLiX74BTgghJIezdOnSyLCwsOekITL0rU80LhA/8FstvQEywsPDL5w4ceINachCJD5TIILK7Z133rm/VatW+wsUKGBoQ6oNJkwFGtI0zmpodPUtR21sIeDg6r66HXrt4EdP55AhQ2w//vjjERF2D8txlJbrkkvSSA5H7oV6P/3008MDBgzYLuLMQA+ePkzg3sR9iHsJQg6bW03ndSINw7yyrSF52KtVq/btihUrppw6daqspBNCCCE3BvPwypQpM0HEHeacudbnsoociB40RIiHKwIqddWqVWcSEhIqmJlkIiZMmLDQ3d39pHWu040a0IznBdPGVoUcDNcE8YjTfLR3E8NvixYtSjpz5sz30piPEysi8YS4kHsiKD4+/r7x48e/GxAQEC/3jgPiTh8cYHrfYXMVfwjDRRy2QbnEPY032X18fPY98sgjc86dO1fZ/BFCCCHkRowePXpwkyZNLqAHT5d4sDY4GcNokEJDQ512ux1v+BWW+EyDNKYNx44du7xOnTqXIOBgKlphOHZtOGFoPK2CTv0aj23hh6hTQYgwrseXX36ZLA34N/Kbo2QfQm4K5uatWbNmSdu2bQ+ULl06AfPstBdY7yvcUxB+iMtoWu6QLtsbJUuWPP7444+/LiKvEuflEUIIuSHffvtti2nTpn2KpT0kaDY0KnRU2FkFHkQPehK2bdv2mgicTNeLcPXq1Y7Tp0//UMTqFYhWHLN1mQoY/NpgquhDQ5vegLq2RZruA8Nn22JjY42jR48mOhyOHQkJCf0lnpC/RMpKvvPnz48ZNmzYljJlylyUKANvXmM4FveoGu69jPcq4vFgoQ8XKH/lypW71K1bt88SExOriMjjd4wJIYRcT3x8vO/TTz89uHTp0gbmr2mDIkmuhkZdxEP0QDBNnTo1MSUlpQ/yyGwkJSXVeuqpp96tVKlSUnh4uIEeOD0nCDgcP+ZAWc8LjSf8MGyPhhfbquDDtalZs6bj4MGDCYZhbL106VJD2ZaQf0RqamrV8ePHv9asWbOrIvDMNfNw7+FrLPCjfOF+1HsTBr8ahmrT04yKFSvaJk+ejF7khiLyMs2b7YQQQjIB0jD879VXX20UHR3twEKtKoSspo2NpqERksbF8f333w+QcKZDzimXWMg333zzcOvWrU+iIVVhqueCRhWNJd6GhcFvbVhV8KFnE2vbrVixwnA6nUfF8B3ZEmxQyb8B96bcQ4XWr19/b+3atbFEDx6szAcJ3HPoTVaRJ5vf0HCv4sWLIkWKGDVq1Ei977771p09e7a1pBFCCCH/nzVr1kQ2aNBgiTQYV61z1DIaGh1teAoXLmyMGzfuI5vN1lbCmQ4IMGlIfcSitm/fPmPMmDF7RKgZMTEx1y1WjMYUfjW8PAFRh3Xt+vfv7/zhhx8SEhMTP5d8Rsi5Rl65csULjbRsS8i/Ru4nN7kvG9SvX/9QSEhICkQbBJ5OG4Df+sABg1/D2rOM8hoaGnpVyuI78fHxTZA3IYQQYoJvsg4cOLBarVq1jnt6eprDRjBr46JhNCzwo9dBGpYLhw4dminhTE1SUhJ63Grb7fbOH3300cTHH398R69eva60a9fO0bp1a6Nt27ZGjx49HMOHD3esXLny8rFjx76TBng+XiQRay4Cr5KEfdOzI+SWIPdUPrnX6nXu3PlzKVcJeCEIws4q7jKWQQhApMOPl6Ig8EQcGtWrVz/7wAMPLDt+/Hh19i4TQghxMXv2bHdpaL4W0ZaojYq1cdGeOx1Kwjy13LlzG88888xaEVA1JS3TIw1fHmlUA2w2W6vk5OR+4h+q5nA44A4Rt6+4ra9evRol2/MTY+S2c/r06cZNmjRZHhAQcAU9eRBtWt5uZBCCmo7pBXDTH7xOz5kz5+30r6jw7VpCCCHXevHmzp37ULly5Q5pD4FV4GkcGha8oIAwehNq1qx57LfffpsvaYSQf8mlS5fqjxo16k1fX9949MxZpw6gHKLcwVDmEAcX5RB+vC0OFy8CVapU6dJjjz323OXLlyMkjhBCSE5HnvhzrV27NqpZs2Yb0HiglwANCwyNjfplU9div2hg8HH1MWPGYEizJHsNCPn3YCpA7969l4SGhl7MmzevHcINZQzCTsugbHadiwctq/iDyJN444UXXpianJwcZmZMCCGEtG7deklQUFBi+twesyFB4wEXhni4aFh0/k+FChV+37p16xwReZynRsh/QMpQ4OzZsxeXLl36uJ+fX4qWNxV6Ku4ymgo8fVlDyuS5ZcuWTZX8+F1kQggh//d/3bp1GxccHPxjoUKFzDXx0GCg4cBcHyywqg0OehRU+KHHYNSoUQkpKSkV0zjBm5D/zNSpU58NCws74uXllYo1GbVHHeVOe+1ksz8YyipclFc3N7ddn3zyyRgReYUkjhBCSE7mm2++8Ro+fPiTtWrVMtCQ6Npx1gZFxR3SMblbGhOjcuXKKZ9++unj0piUNjMihPxr8ILPokWLpoaEhPxWvHhxl7iDazXZ1DSrXx7QzLDsh7drv9++ffsgye8eSSOEEJJTQUOwefPmya1atYqXoNlj5+vraw4R4fuZaGR0cjcEHlz0MGCotlq1ahf27t3bAfkQQv4bUhbdn3nmmSFBQUG/48ULGMrejXrxVODp/Fi42Mbb2zu5dOnSuw8cONBSHr6KSBohhJCcypEjR6K6dev2eKlSpQwIN2vvgLVh0d49iED04mFYd9SoUWtsNltL5EMI+W+IKPN544037q9Zs+Y5Hx+fVEyZQPlDudMHLJiWUY3ToVpMq/Dz80uqW7funpMnT1YS0chFugkhJKcijUCexx9/vF2ZMmXOeHl5OSDg0FBYxR0aGsRbew4QV7JkyQsfffTRs1iLy8yMEPKfkPJY9LHHHrs3MjLysIeHh0PLoPXBy9qbV6JECZdfyqOZhmHb4cOHrzt16lQDiSeEEJJT2bVrV0jfvn2n1apVKx69AWgkYNpD4O/v72pgkK49Bj4+Ps5mzZrtPXDgwFTkQwj572DqxLPPPtu/QoUK30nZMzBUm7EHD6YvQaF3XdMxpAuhFxERYSxYsOCNpKSkGhJPCCEkp/L1118HdevW7WfxJuuK+TA0GOrXngN1kRYYGGiIMPz+woULLaRhyi/xhJBbwGOPPTa+bNmye8VcnxTUzwfCVOipaRwewNDDXr58+ZPffPPNXCmX/pJGCCEkJ3Lp0iWPIUOGPBIZGXkUc/HQayfRrkbD6sIg8tCIwF+6dOmEJ5544lun01lRrIDEEUL+I5cvXw6bM2fOo+XKlTuDYVf05AUEBFy3Tl5Gk91MFz16QUFBRrNmzb758ccf+13LkRBCSI6lYsWKa7HoqnhdPXUZGw9rGubjYRX+mJiYhHnz5s0XgcfvuhJyi7hw4ULNSZMmLQoPD7dJOTO03EHkaVmEWcuohjGEK8LQaNWq1c5Tp06FSrnMI2mEEEJyIlOnTn2yQoUKv0kDct0btWpW0QcXQ0ZYUgXbYy2uTZs29RKR5yZphJBbwOHDh6v06dPnh1KlStny5MljoMzp8ilaDuFaDeUU28ANCAhImj179k9SLktjft+1XAkhhOQo5Em/UPfu3Z91c3Mz5/1oA5LREI9eBDQy6etwGcWKFTPq169/acuWLWNkG0LILUBEWe6jR4+G9u/f/wh68TDHDuVPRR5EHMxaVjUdfg8PD6NJkybJTz/99CIRebHIkxBCSA5k1apVvcLCwr5BzxwaCm04rA2I9uShgYELsYchIR8fH7x08fOOHTsmSTwh5BYAkbd58+aKZcqU2YxljPBQpcLuRgIPpmUzvZfdELuwbt268SLyikk8IYSQnEZiYmLgK6+8MrFFixYJugSDVejBtEGBocFBHHoMsHSKv7+/rWvXrj8Ik6QxyYc8CSH/DQyvfvzxxwPatWu3TUSb2ZNnLZvW8qmG+bFwUV7xdnzjxo33HTx4cIjEEUIIyYmIMCv58MMPP4IPoGPeD6KshsYEDQz8KvbQU4AGB/GRkZFJ0hDtO3z48GT2GBBya0BZkoevyVIuDxQuXNg1TeJGAk/D2Ea3w8LIIvI+tdlsbSWNEEJITkTEWYmWLVuuLF269EVPT09Xj4EkXdeAZPSjMcHwbnR0dGqPHj2OHTp06AFpmEIljRDyH0lJSSn7/PPPz2rTps25QoUKOTBcq4se42FLe+1geOhCuUWZxLJGcCMiIi68/PLLy6RMFk/j58wIISTnIZV/waVLl9Zo3rz5dh8fn2SJcqLXAGJOJ3CrIU5FHtLSh3YNEXlGo0aNfhKxOELy44KrhNwCRJyVmTNnzkteXl4JIurMHnYIOy2DEHoQdhB4GpaHNHPunoSNmjVr/rJhwwZMoSgiYUIIITmRp5566uGKFSse8PX1NSDe0Atg7bGDqcCDoTHRoVrMzytfvryzTZs2W/bu3TtARJ4H8iSE/Dfkocmvbdu26ypXrnxRhJuh36VFT532tMOP8gg/xJ4KPiyC3LVr1zOnT5+uISKPi5MTQkhOpU+fPk+XLFkyERO10VMAkSfRfzAVdzAM0yIOjUylSpWMGjVqbN+6dWsvEXmFxbgeFyG3AHl4WiPiziZes+ccroo6lFd94xZhGB7Sihcvjm2Tn3/++Q9TU1MrS3nk4uSEEJITOXPmTM2+ffsurlu3rmt4Vnvs4FdDQ4J03aZYsWKmK42JUaVKFXvDhg1/W7169fSEhAQO1xJyC3jmmWd6ly9f/iv0lru5uV1XJtWPBy7M04PBj4eu/PnzG9WrV7dv3ry5vwi8osiLEEJIDkMagPxHjhzpUKdOna2Yy4MePIg5WMYGRePRm4BePGwLP0ReeHh4anBw8NkxY8a8du7cuSpm5oSQf42UI7euXbvOK1GiRHJ6OTPLIXrutGzigQviDuUSYRi2CwwMdJYpU+b3Y8eODUNehBBCciBOp9Nz27ZtHVu3bn0gMjIyGY0GegMyijwYwpiDB782KiLu0HOAt3GNqKiosw899NB7e/bs4XINhPxHvv3229LNmzefI+XSLGvaWwc/yijKqj58YR4eHrzwwhTSUR5Hjhy50m63N0FehBBCciAYypHGpFP9+vV/ypcvnynyMoo7mIo6NDLWt/lgmMOH4aTSpUtfaNOmzcb58+ePlHhCyL8Ec1o3b97cNDo6ejseotB7pw9YOiyrw7TWXjzEoSdPyuKp7du3P4W8CCGE5FCkMcm1bt263rVq1dohDYNDGxIYBB8aDPitws/aywcXgg9xPj4+KQ0bNtw3bdq0qVu2bKl2/vx5LttAyL/A6XQGPvPMM0PKlSt31d/f34FyhpcskIRpEiibWla15x1+X19fp5+fn9G5c+cdSUlJXaV850F+hBBCcigiyAY2btz4myJFivxhHS7rm3uIszYoCKOhQYODBigiIsJZuXLllPr16789bNiwobt27Soj2xFC/iFnz54NmDJlynwpT6ekvBkoaxiORfmTZNNQTuFa40QQQujFz5gxY4sIvBJiuSWeEEJITuXjjz/uWqFChe9iYmKwRp4BEadzf9T+TODpNuhFKFWqlDMgIODC6NGjX/zmm28qX758uag0NFy+gZB/SMuWLT+SspSAcobyhrKGMqiuxsH0pQzZzVmxYsUze/fuHeZ0Ov2u5UQIISTHcujQoVpNmjQ55ObmliJm9uZBzGmjAVf9mqbzgtC4YMkGpGPYFr0LsbGxRseOHX944IEHes6ZMyd8586dBSn0CPn7vPjii6PLly+/OywszCyP6FHXqRMwfQiDANT1KlH2oqOj7d27d78UHx/fiEO1hBBC/u/EiRPe0qAc9vb2dkhDYmA9LhV5GQ3CTpdZkV3NXgSEVeBB8GGieExMjK1Zs2Y/TZ8+vcPWrVvRm5dLjAskE/I3GDx48AslS5a065AsDGUN4k7LIcKIR3lNT0cvvPHoo48+bLPZSkkcIYSQnAyElzz1+/bt23d9njx5zF4DbTxg2qBA1KmgwzINaFgQVjGo2xctWtRwd3c3YmNjUxo3bnxe8j0yYcKEtePHj+8VFxfH+UGE/AU//vhj4wYNGryL+XUoX/pABUNZ0zB68SzDtIaUS5S7ywcOHBgsYUIIIeT//u/KlSulunXr9mrBggUduiCyRLuEHUSe9uAhXg1p6MGD4MNwEuI8PDxMFw2QpOGtwKvSEB0uXbr0tokTJ769fv36ew8dOuQr2xBCMiAPXYUfe+yxYVJ2zkDAoTyhnKE8SbJL5Pn4+LjKGXrP4Q8NDTVmzpy54ezZs92QFyGEEPJ/8fHxZd5+++05JUuWTPX29jYwJISGRefdoVHRxsTak6BmDeu8IWyPeNnfiIiIMGrVqnV58ODB340cOXLJww8/PPyTTz4pxOFbQq7n4sWLJUaPHj22YsWKLnGHMoeHqYwPWTCUMcTjIUvK76Vt27YtxALnkkYIIYRIS+F0RuzcuTOufv36e6VRSRRxZ87LQyODN2axCRoaq8Cz9vbB1W0QhqthiEQ0VBCMgYGBCSIi90gDNl/E3viffvopSrYjhKRz4sSJyAEDBnwsZe+qijz05qH8aNmCC9MedsTJtkbXrl1/PH/+/Jj0rAghhBBRY05nkePHjw9+/PHHP6pSpcpp62RvXWkfDYmKNzQs6FmAX+MymjZG2BZhNFIQjuXLlzcqV658okePHi+uXbu249mzZ0tKOiE5nrS0NPd58+a18vLyOoypE9orjrKj5czqquiDGPT3909evnz5l1KW3dhDTggh5DqkcWj+/fffvxgdHb0foq5EiRJmY4KGRJdv0J4DxOPlCzQu8FtNGx81Xd5Bw8gLL2ZI/j89/PDDj164cKGcNEp5ZRtCcjR79uzJGxYW9qbYaQleN1yLsNU0Dj3qUq6MyMjIX3///Xd84cJD4gkhhJD/j4i8wHPnzg1dsmTJnmrVql0uVqyY3cvLy/W2LXrurD18GQ2NTkaBB0EIFw0R/MgnfRgYc/TOPvfcc8tOnz4NkZdf8iAkxyJl4H8rVqyoJGXvE/TiocxA4EmSq3zdyC9lFGUz+ZFHHjkUHx+PssT1KAkhhPwRaSBKHD58eNmwYcN+xfw5aTzwdqwBgYaGBb1wOhcPhjixtHTXNBV41m3Q64cGC/EYesLSEGFhYcmTJ09+7dKlSxXld3PJtoTkaCZOnPi8CLzLeAjKKPBgGlZD7zq+Uyv7GEeOHGkp5aiwxBNCCCHXgx4AsfxOp7PQ/v37Zz7xxBPHSpUqZb5pC5Emm5iGnjhtdMT+IPAgCPEWLvzoucM+CGujhR5BMaNChQq211577dmEhISKEk9Ijuann34Kj4mJmV+sWDEDD1IoTxLtKlvwq6FMopx5enoaKEuzZ8/+xW63d5A0Qggh5OaIyPMRsVfh2LFjwwcMGHCxUKFCdgg0b29vs4HRIdj0xicNfhV3MGyDHj+stwc/DNuiYYIfvRTR0dFG2bJlz7/55puz5feKSTwhORYpb7kXLlw4Sh58zutb7RLtEnhqiEufg2f68eZ7cHCwbfPmzZOlHPE7tYQQQv4caXBySYPhK27j3377bfATTzyxuWrVqglYfBViD0JOGx340SDBVPxJFirmXC9rIGxtqKRhgsg7euDAgdkSJiRH88svvxTv0aPHeMyv0148mD5AwbTsoAxqORQzmjZt+nNqauqIazkRQgghfwMRep4QehcuXBiwbt26+a1bt75Yrlw5e6FChcwhXAg4ND5obHT4CKbDstpYaQ8eDD18iBPBaNSpU+eHS5cu9ZHf4EsXJEezatWqaiEhIbuk7NhQRjClQXvztDyp6IOLXnWUP/Hb9+/fv1TKamkzI0IIIeTvIgLsHpvNVlIakUkiyB596aWXVtWuXfsoPp/k5+dnNjqymdnwuLu7u75ni4YJjRXS0GCpGEQY4q9gwYJXZ86cuUXyjZDfyIPfIiQncuTIEf977713UFRU1Dk8QKF8oOygvGAuq5Yn6wMUypvEG+PHj//J4XBMupYTIYQQ8i8RQVZTbNratWtX1q9f/8e8efPaRbxh4rcp7rAJGiU0QHhRAy7itCcPjRf82LZkyZIXz549O00EXgnkTUhOZdeuXR7Dhw//SB6aLqF8YJkiFXQI4wFJhZ5sbqbhCxiYi7dt27aPr+VCCCGE/EdE5BXbu3fvgLFjx34mjcwFaYQcxYoVMxsh9OTBRaME4aciT10YhpikEXM89thjlyWv5iLyciNfQnIiUgbyvf/++20rV668E4uGo/zgAQniDn4IOjwcYVPtGVexV7du3R2yfzh7wgkhhNxSFi1atDgyMvJMREREKhofCDntddChWcRpAwVD2N/f3wgJCTFsNtsD0kAFmZkRkoNp3br1shIlSiShrOBBScsSyhBMNjF7vxEHS+/pO/Ptt9++KQLP/1ouhBBCyC3ilVdemRIVFXW8YMGC5ksYEHZwJck0hOGikdIhXPTuIbxs2bLdIvC6IR9CcjLTp0/vVL169c/Dw8Nd5QU9eChL1ock9IDDTS9XxvDhw69IGYoQPyGEEHLrkMalyLRp0/rjBYzy5cu7eu4g4rS3AZvBMHcIrg5DtWnTJkX2H4t8CMnJHDt2rMADDzwwu0KFCubXLSDq4KKs6EORbOYSeihn4scak0nbt2+fmJaWFmJmRAghhNwqrly54vXggw92F5HnkEbJ/LYtRB4M/oxDtBheglu8eHHRd84JEk9Ijmft2rVdqlatuhXlBvPxJMpVZuBae+/wJrv4UdYcTZo0OWK321uInxBCCLm17NixI6B79+4zChcufErfBETvgyS5Gik0THBhEH3Ybs+ePW+KyKtsZkJIDmbv3r0oQ+Pw0lJERISr3KjAU7OWKzEjMDDQOHDgwIN8K50QQsgtB2/yPfroo8EeHh7fSYOUmr4gq6shgh8CTw3DT5iT9+yzz+6x2WwcpiVEmDRpUn1hF15c0rIi0a5yA7/V9EFpzJgx2x0Ox/0SRwghhNxaROT9r27dunPCw8N/1SEmFXlwtVdPh28h8lq2bBkvAm+hmQEhOZyffvqp+MiRIx8oXbp0QuHChQ2rqLP6UX6s8c2aNbOfPn36CafTWUDiCCGEkFvL6NGjo+rVq7caK/PrG4AS/QeBhzBMGjJDWHptb0LIe++9F9y0adOjbm5uqVYhZzUdpkXvHVwM086aNevtxMTEShImhBBCbj3333//Cx4eHknidTVIKvBg1p6I0NBQJwUeIf+fw4cP+0kZWubp6XlWHpIMfUiCqeDTMgQX6+ZhqLZ169aHkpOTZ0g8IYQQcusZO3bsyBIlSvwgXlfDhEYKjRHM2mBh3S+73f42hnclTEiOR8pC3qFDh5YvXbr0t25ubuZb6VpmrA9HMAg+TIdAPN5gX7169VqWJUIIIbeFuLi4toGBgR+J97rG6EYWHR3tTElJed/pdHpJmBAirFixIlfXrl2/KFWqlEOCfyg3EHwq+rBGnpQ3+I3x48dvkLJUXEReLgkTQgght46JEye28vHx+RANT8Yeu4xWqVIlZ2pq6gppkApLmBCSzuuvvz64YcOG3+p8O2s50qFaaxo+F9i0adPf9uzZM0dEXhGJJ4QQQm4dI0eO7FeiRIlt4jUbHhV5cHVFfrxBCzcoKAgvWWCIlj0OhFg4evRoQN++fV/D/DosKSRRZrnRMqRfidGXmSD6pNwlL1myBJ8A9EEehBBCyC2jdevWjxUuXPh0xhcq4Mdbf+h1gKFRiomJMVJTU/mSBSE3YOzYsUPLli27x8fHB+LNJej0oQllDD13KE9wvby8jPbt258VWshDk/u1XAghhJBbQO3atV8tWLCgHYsdW3sX4Fo/W4a4Hj16GHa7nQKPkBvw2muvRTds2PApiDt8v1l771C2UH7g1ziUL4g8cRNWrly5zOl0lkUehBBCyH+mZs2agSEhIe9iKAmGRgiGxgkNkGxihpGGYSdpwFIMw3jj2t6EkIy89NJL7Tt06HBEyo+BJVF03h168eD38vJyenh4mHGenp5ONzc3x6xZs67Kg1NjMwNCCCHkv+Lv7987X758ronhalaBh0YIPQ3SEDl/+eWXk2lpabMlnhByA44cORL1wAMPzJFyZaDcaM8dyo+WM8RB8MFFj16tWrWcx48f7+l0Ot3MTAghhJB/iwi1/7m7uy+WRueMfotW5+BZex3Q4wC/n5+f0+FwfGq32ztif0LIjRk+fHg5eTCyeXt7m+viQcShfKEXHH7rixiY5xoWFubcvXv3SvbiEUII+c9A4BUqVOg78Zrf0EQDhKFY7bnTngfEwe3evbtTmCaWT8KEkJswYcKE0iLc9suDUhLKkS5uLEmuhye4SEP5wkPUk08+mXr16tWJZgaEEELIf+B/+fPn32V9kQKGhgimPQwwX19f59q1a7EGHhsgQv6CdevW+TRq1GhCmTJljltfqoCrL1zAIPIg8CAAo6OjjePHjz8iD15cY5IQQsi/QxqgIgMHDmwljcthCZqNjjZAEHdofBDG8JE2SCkpKZecTucIMwNCyE3ZuHFj7ieeeCKwY8eOu0XEGRBxEHP68ISypYb49CFbQx6i1ovAa5+eDSGEEPLPmDx5cliDBg0+kIbnMsSbtRdP/Wh40AChQRozZgzm362WxodzhAj5m/Tr1+9bCDeUoZsJPE3DEkVSJk9fvXr1qfTdCSGEkH9G2bJly/v5+Z0Xrx2NC3oYxO/qUdAweu/Qi3fo0CEIvKFOp9MP+xNC/pqpU6e+5enpeVa8NxR3KvDUihYt6rh06dLb1/YmhBBC/gHjxo3zLViwYB8RcmkSTNO5QDAJu4ZnNdyzZ0+bYRg7ExMTq2J/QsjfY/r06e2krG1BmdJFxCXaZRkFHt5U/+STTz622Wyl8BIU8iCEEEL+Fn379m2cJ0+ejRnnBWFoFo0Q1r1DGC7Sf/jhh/NOp7OvmG96FoSQv0FcXNw9Hh4e+FKMWaYyCjyYlj+15s2bH0xKSnpIBF5eSSeEEEL+mtmzZ7s3atRorM67wxt+aFQkyey5g+jTlyokzmjdunVKcnLyzyLuvMwMCCH/iOjo6Be9vb1TUd5Q1v6sFw8PVLJdyrlz574TgVcQ+xNCCCF/Se3atYcGBwf/CAEHQ4OCBkZdHUaCyPPx8TE+/fTTw4mJiTOlseHSDYT8C7p37/5ITEzMCX9/f5fAg0nSH0SeCEGUQePtt9/eLw9VRbA/IYQQ8qf06tUrSETd6/ny5TN7EyTKNDQs+KSSijzt1evWrZtx6dKlddLQFOJ8IEL+HcuXL6/apUuX17HWnQRdAs8q8uDHA1e6a7Ro0eKEw+HoKeXOG3kQQgghN6VZs2ZzRbgdlQYkDYJOokxRh+/Owg9Rhx48uGhsvvnmm6uGYSw2dyaE/CuOHTtWYLyAxcJVyEm0Wc5g8MNU8GG+npTDROHLlJSUchJHCCGE/JEVK1bkHTNmTLmqVat+KY1HChoYDMFC3KGBwbw7NC7ouYPAg9u+fXt8/PyTNC66Ssh/ZsGCBd2Cg4N/QdlTgWc1lD8VeyiP+fLlc2zZsiXB6XTWkDhCCCHkj0yZMsWvRo0ar3p7e59xc3MzGxEIOQzTasMCsYc0uFj37osvvjBSUlKelgbG81ouhJB/y8KFCyuHhYW9DHFn7blD+dOeOxjKpcYPGjQInwasJWFCCCHkenbu3Fmwc+fO9fLkyXNezKFz79DQoKcAfsSp4EPD06pVKyxq/ENaWlofMxNCyH9i6dKlRUuUKHE/es4l6BJxKG8q8ODX3j34RRBC4I1OTEwsJnGEEELI/ycuLi66XLly86URSZEgFjY2GxQ0JNqwYD6e9igEBgbizVmbiLuHnU5nhMQRQm4BAwcOrFmrVq2UIkWKmJ8uk6jrzDp0i2kSeKP2yJEj26UctpU4Qggh5Brjxo0rVL169d4BAQEJEnT12MHFUCz8EHmY1A2/h4eHc8CAAakOh+Pr1NTUOhJHCLlFbNiwodKYMWMOBwcHp6jA04cs9WsZRTpefnrqqafsUh6HSRwhhBByjXbt2tXx9vZeEhQUdF3vgL5cAb9F7Bl169Y1tmzZcsHpdMakpaXlkThCyC3i8OHDJR4XROCdk6AhZoo6mPaoo+cO8Wq1a9c2kpOTR0p55DJFhBBCrtGiRYuH8+bNa4OAQ+OhvXZqEHmYE5Tec2AMHTo0wTCMXUlJScWxPyHk1iEiLffrr79evHTp0gelLBoodxLtKotWP3rvIPoiIiIMu92O6RL8TCAhhJD/+7+ZM2dWLVeu3Ao0FjrsA8OLFAjjTVmEvby8zIakZMmSou2MH6UxaSYNET+RRMhtYNWqVW41atTYi3l42quO8gg/yipclFEtpyL0jBMnTrwjAq/BtRwIIYTkaBo2bDhfxNtJ8brEHRoP7TXQxkV79RYsWJBss9k+FnFXmMNBhNweNm7cmL9jx45vRUREnHF3dzeHZDP2rMMg9nRu7PLly79xOBz9xU8IISSn8tJLL+Vp3rx5bHBw8FY3Nzdzng8MvQHoFVCBh4YFcQhXr17dKeLuy6SkpB7IgxByexCBl3vixIkd69Wr9w2+bKFlEqZTKXTahC6pMmXKlJOGYTx6LQdCCCE5EhF47jExMS+6u7uf1K9VWId9dCFVfBcTAg/hVatWpUgD8oLT6fS6lgsh5HaA3vHly5f7DB06dBXm1+mwLFx9wUIXI9e0wYMH21A+zQwIIYTkPL7++usCDzzwQOXAwEAMzZq9d9bhHzQYEHQQdtpb0LBhQ6c0HjuuXLnSV7YhhNwB5s+f/3zlypUvokziQQxCDmVSe9VlE9fDWNu2bZ2//PLLq+aOhBBCch69evUKr1at2hNubm5X0XBIlNloWEUe/NpjkC9fPuOjjz667HQ6J4gFIA9CyO3n7bffHlK7du0dVoEn0ebbs3BRTjEHD2IPX7SYN2/eUimj/GwgIYTkNOLi4vIGBga2FdGWII2DoT0BaDjQE4DhWcSp8MME7/vvv98Q1iYlJXFRY0LuICtXrqxZp06dtyHitPdOos1hWoRRXnUeHtLatWv3pd1u73xtb0IIITkGEXgVRODN1945iXIN9cAQp0M+AQEBWIPLOHbsmN3pdJaXOELIHWTt2rVFa9eu/Rg+RyZBVy+eGj4fiHhPT08zrXnz5r+LwOM8PEIIyWmMGTNmlK+vrzmnBw2ERJmCTidsQ+yhBy89bCxcuBBfrHhXLBj7E0LuHHjZomHDhlP1oQsuyq2WU/TgIR5hlNny5cunnj9//ktzZ0IIITmDwYMHV61Vq9YSzKlDgwCD0IPp0A9cfUuvZs2axo4dO34UcRchDU1eMxNCyB2lefPmkyHkUE51vp1Em2VV41XwycOb8fXXX++4tichhJAcgbu7+2PSGBzXYR2YzsHTMMSdzud5/vnnL6Smpr4j8YSQu0SrVq0mirCzo+cOL1dkfDDThzOYxBlvvvnmTnkgy2XuTAghJPsilf09w4YNq5Y3b94NaBQg6iTaNAz5qMBDb4CGGzdu7Dx69OgGp9PZDHkQQu4O3bp1G168ePGzeDDTlytQhlGWJfk6FzZv3ryfpdzGihUwMyCEEJI9mT9/fr6mTZs+L0/6v6OBQCOgT/3ag4c4nc+DtLfeeitZGogXIA7NTAghd4UJEyZ0qVev3vbAwECznKLMoozqgxni4KL8onxPnDjxd4fDMVXKr6+ZASGEkOwHPnnUs2fPErGxsQcxfweNAIZ54KKB0Bct4Ndw1apVnRcuXNgtDcSwa7kQQu4W8+bNq9ynT58XIyMjzbKqL1yowFOxh6kVSGvfvv2VEydObJTyG479CSGEZENmzZrlExUV1a9o0aKnVMyhEdCeO41DLwDCERERzpdffjlRGoe4hIQELmpMyF1m5cqVHg899FDfKlWqXFdm4SKsAg8PbSjHpUuXdnz22WfxUobLXsuBEEJItqNnz56xhQoV+k4ag2Sdt6NiTpJdwz1wIfyaN2/ujI+P35aYmNjmWg6EkLvNCy+80Kxhw4Z2KaPmpwUh7lBm4deyrD17+H70888/70hJSeHalYQQkh1ZsmRJkbZt23aRxsAujYBhfeLXxkGXXUAchN/7778PgdcoLS0t97VcCCF3m3Xr1tVu167dASmjqfqApsJODfEo47CHHnrIoMAjhJBsytixY5tVq1btcx3C0QYAriQ7ixQpYoY9PDzMFfGbNGliS0hI+MXpdFa8lgMhJDOwZcuW6M6dOy+SspuAh7OM4g6GOBV4kyZNMqQc1xXLJ2mEEEKyC3FxcR7ly5cf7+fnd0Wf+OGq2JNNXAsaw4W98cYbp6VBGMe5d4RkLr7++usgEXijpexeUoGn5VgNYRV4ffv2NRwOxwNSnotjf0IIIdmEDoKIufUQdBI0zdqDhzdpEYdePLitWrUy0Htns9lK8qsVhGQutm7dWlSKdFsRcef0gU2irzPEaRmvXr26cebMmVdE4MVKGiGEkOzA/PnzizRo0OAZ8V5AZS+uq/KHH3E69w5LK8A++ugj9N69KeIuP/IghGQedu7cWbBdu3Y18+TJc0aCZtmFwa+mZRzl28vLy9i9e/fndru9vqQRQgjJDowZM6Z5+fLlN6Ci1x48VP4q9jROXfTeORyOLcnJyQ1F4PETR4RkMtatW5evQ4cOMfnz5z8twb8UeOIaGzZs2CcCj2/DE0JIdqFWrVqLfX19z6Ki10ZABR5cCDvM48EwbUBAgPPjjz++4nQ6X7q2NyEks4EFyzt27Fgyb9685nqWKMdattUQVoEnYePDDz88L+W6q/gJIYRkZeLi4u5p27atm1T032NNLG0AtEGAqw2A9t7FxsY6DcPYHB8ff7+ZCSEkU9KlSxd/KbcntGxr+VZD2Crw3nnnnRSHw9FD/IQQQrIyr732mk/VqlXH58mT57gEr/u2rL5UAcOSKIjDCxb79+93nj9/forEE0IyMb179/b39PQ8oW+/w6xCDy7EHXrnZRtj3rx5mHrRC/sSQgjJwsyaNSu6QoUKJ8WbgsoeL1KI39UAeHt7m2vewY9GoHHjxs6rV6++43Q660kcISQTM2zYMP/Q0NATbm5u5tcsYCjbWr7hqsATM9IXO6bAI4SQrMyjjz5avFmzZqPDwsIcuXPndjUAOhQLQ+UP0Ye3ZjEJe/fu3XjC7yECz03SCSGZmClTpvhVrlz5dx8fH7N8Q9BhSPZGAk9cY9CgQcbFixcp8AghJCvTrl27Zu7u7jt1WFYNAk+HdLQhwHBty5YtbYZhfJuYmFhd4gghmZy5c+f6Nm/e/KfQ0FCbBP8g8GAIo8xLnNGiRQvjt99+o8AjhJCsyiuvvOJXqVKlSeJNwdM7eujEb1b8EHyo9BH29PTUBsE4cODAeYfD0dvpdPoiD0JI5mbp0qVFe/bsuax8+fJnUbZhNxN48JcrV865e/fu/vyuNCGEZFEef/zxNpUrV/5IhZzVtPcOQzd4+w5DtPJkn5KUlLQ/Pj6e4o6QLMKaNWsKTpo0qV+NGjV+/iuBB9ff39+5adOmcfIQ52lmQAghJOvw3HPPFe7SpcsTJUqUuIxKHSJOK3iIOrh4axY9e7K5U7Zzbt269aRU+q/Ik73HtVwIIZmdFStW5HrxxRdDmjRpshHlWs0q8OBHuceDnZubG9a4nCvlPNLMgBBCSNbhvvvuqxEWFrZK35hVFyIPpsIOlT6EnjQOht1u3ywCrzSHbgjJerRr126tCDvjzwSeu7u7WResXbsWnx+sbe5ICCEk61CqVKk5IuSOQMipWV+q0AZAxd7mzZtTU1JSVl3bmxCS1ZCHulVSrlOtwi6jYe4tevM//vjjNfIw10riCCGEZCVE4H0mT+xYGsUUcHh6h0HYIYxGAEM1sqlTnvydR48e/Uae6Add25sQktXo06fPc1K+T/+ZwMNDHkTe6tWr0VvfTeIIIYRkBfbs2ZP3ySefjI2IiNipFT1cCDvttdMlUyDw8Gbt0qVLMTw7n5OuCcm6DBgwYKqU8b0o4zcTeSrwFi9evEvK+0CJI4QQkhVYsGCBV9euXWf7+voe1147iTYrfK30tQcP1qBBA+eRI0f2SGU/wMyAEJIlEYE3SATeN9ayntEwPAubM2fOr6mpqWMljhBCSFagXbt2xUuXLv1DgQIFkiDuMESLyt46RAtDJQ+h98orrzgNw5gpAq9kehaEkCxI//7975WyvlEFnpokuQz1AeqBMWPGnEtKSnoI+xFCCMnkYMHTsmXLtvf09IxXYafDsvrkLpuZhmGaypUrGydPnrwo4q6dmQEhJMsiAq+NlPX1KuzUJMllEHeIu//++5OuXLkyG/sRQgjJ5GDunYeHxzsi6lIkaFbk+sQOcaeVO+KKFCninDt3bophGO+lpqZWuZYDISSrMmDAgGZSvteijGc0STZNH/yaN2/uOH/+/FPmjoQQQjIvcXFx98hTedtChQqdk6Chlbq6+iYthF7RokWdQUFBxt69e6+mpaU1FiuMPAghWRcReA2lvK9Gmc9okmwayj/C9erVc547d+5pc0dCCCGZl969e3tUqVJlCIZeIeYwNCvRpiEOT+6I8/b2Niv5Hj162AzDOJycnBxqZkAIydL069evrpTzD3RaRkZxBz/qBtQH0dHRzlOnTlHgEUJIZqd+/fqtQkNDP9IhGIlyVfBWsQfz9PR07tix45DT6RyWxs+SEZIt6N+/fy0p/+/9mcBDLz7qiLCwMOexY8co8AghJLMTEBAwVSrveFTgEjQNFb01DD+sU6dOTofD8fX58+eLiMC7R9IIIVmcfv361RDx9u6fCTykwfz8/Jy//PILBR4hhGRmhgwZUj1fvnzL9QldK3JJclXwWOAUQ7Nw165de95msy02dyaEZAv69u1bTQTeij8TeDCkY5HzvXv3LnQ6nUXMnQkhhGQ+evbsOUucI5hbo5W49typX79DGxsb67xw4cIXIvDaYl9CSPagf//+VUXgLf8zgYc0zMPDw94PP/ywRAQe5+ASQkhmIy0t7X/Dhw/3qlSp0odScdu1AsccG5hs4np7Vv2LFi1KTElJWcC5d4RkL/r161dZyv07VnEHk6TrBF7BggVNd9euXe+JwKto7kwIISTzMHLkyHzVqlXr5Onp+T2WPoGQg+H7sirq4IcLq1y5svPKlSubHA4HPzJOSDZj4MCBFUXgLfszgQdzd3c33e+///5DEXh1zJ0JIYRkHrA0ijgfyBP5BfTY4alcwq4ndPgx1wZu4cKFnaNGjcLLFWPT0tLcJY4Qko0YMGBABakHlqqQU5Mkl8CDi4dB+L/77rt1IvAaYV9CCCGZhJ07d+a5//77S0tF/XuRIkUMHXqBSbI5xwYuKvJChQoZ4jdSUlLwWbLu2J8Qkr3o379/+Vy5cr1lFXVWQzzqCUzVQHjPnj3r7XZ7M/ETQgjJLCxfvrx0mzZtFkqFHQ9Rh8pbX6QQQWfOwYOLT5JJmtGhQwdDKvPn09LSKlzLgRCSnejXr19ZEXhL/oHA+1TqhBbiJ4QQklno1atXg7Jly16BeNPPD2nFDmEHvy6LInHGhg0bDKfTWUsEXm4zA0JItqJ///5RIvDe1HogoyGeAo8QQjIxgwYN8i5WrNgADM1K0PVyBfyoxNF7hyVTNFyxYkWpx+0Yni2P/Qkh2Y9+/fqVlnrgjX8o8FqKnxBCSGagZ8+e9bCwMUQcKmyJMittrbgh9vBShQ7ZvvHGG+dE3GFR0+LYnxCS/ejTp09JKfuvU+ARQkgWpUuXLgNz5859QkUdKm3txdNlURAHP0TepUuX9qemplYSgVfgWg6EkOxG//79I6QOeO0fCLxPROA1Fz8hhJC7zapVqwKbNWs2Vypq1/AsKmyt1D08PEwXFTmGakUMphqGsQ2LImN/Qkj25F/04OEt2ibiJ4QQcrd54403OtWvX/9T9M6hspYo11crUIFrvL+/P3rvjG+++ea00+l8kwKPkOzNgAEDSonA+9tz8H766aePROA1ED8hhJC7zcCBA+dER0efVlGnpmIPposbixA0zp07t1UEXgcJE0KyMXiLVkTcopsJPBjqCRi2+fnnn1dL3VBT4gkhhNxN4uLicpcsWfKdwoULp0nwOlGHChvDtZalUfByhd0wjFfFTwjJ5gwYMKCM1AM3XSYFhjQY6om9e/e+y3UxCSHkLiPi7p5mzZrVKVCgwEYRcmkq6KyVOfzas+fl5eU8ceLE73a7fQb2J4Rkb7DQsdQBi611QkbTNMzVPXDgwGIReCESJoQQcrfAp8maNm06S0TdYQg7iXKZddgFy6PAlcremZSU9GJKSko57E8Iyd706dOnnJT9m37JAqZpJUqUcB46dOgFEXiFJUwIIeRuMX/+/Hw1atTYIt4kawWufrjovcNnyzCJ+t1333WmpqZOlAo8v6QTQrI5vXr1Ki/1wE2/RQvTh8Ny5co5jx079ozUD/dImBBCyN1g+fLlBUaNGlWpVKlShyRooAJX0547iXfNyYuOjnbu27fvgNPpvA/7E0KyP3379o2RumCp1gc3Mn2Dtnbt2s4zZ848LX5CCCF3i6lTpwbVq1fvYR8fnzMS/EOlDWGHJ3OYVOCGbG8kJyc/IQKvjKQTQnIAAwYMqPBXAg8vYCG9RYsWzgsXLlDgEULI3aRz587lAgICvi9cuLA5PAvTeXeSbIZV4Inf+OCDDwwRd83T0tLyXMuBEJLd+TsCT9fJbNeunePy5ctPSRwhhJC7wUsvvZSnYsWKDaRSduj8GVTSqMSx1AHCmHtXtGhRM65Nmzb2K1eunBGBV8PMgBCSI+jXr1+s1AFv/5nAK1SokOlOmDAhMT4+/nHxE0IIuRu8/fbbgSLwhqugg8hTYWetyHV5lAcffPBKamrqqyLwSkqYEJJDGDhwYEWpE5b9mcDTNTJnzJhxxmazPSh+Qgghd4OlS5c2Llu27Cc6JIvKWytwuPny5TMNacWKFXN+/vnnx0TcVU5LSyt4LQdCSE6gX79+laVOeOfPBB4eDlFXPP/88784HI4HJI4QQsjdQJ7KB4hwSyxSpIhZQavA02FarHsHP9Iwcfr8+fOHROB5isDjt2cJyUH8HYGHugKjAG+99dYOqSf6SRwhhJA7zeDBg0OqVq06G/PrdAFjVM5Y6gBxsolruBY2ffr0K4ZhfCrijouXEpLDkIfBKn8l8FCPYDrHBx98sEEEXleJI4QQcqepV69e5+jo6M90YrTOs0MF7ubmZvoh9hBfsmRJ51dffbVfKu1JYvmwPyEk5zBgwIDqUjes+DOBh3oDUzo+Emw2WxuJI4QQcqcJDw+fkT9//jOYM4OeO7gSbRpEHcQdevAwcbp9+/ZGSkrKZyLuorg6PSE5j/79+9cXcbfyzwQe6goM037++efvJycnN5U4Qgghd5InnnjCLTY29g19sQIfB5doc5kD7cnDZ8m0Mu/Vq1e8YRivYV9CSM5jwIAB7aQ++PTPBB4eFFGHbNq06e34+Pj6EkcIIeROEhcXV9vPz+9jHYJFTx1cDK9Ismm65EFQUJDz5MmTP9hsNr4VR0gORQTeIHkg/AYPhfpgKNEu07DUK85t27a9lpqaWl3ChBBC7iTdunV7ytfX9yhEnLWiVqGHJ3Gdh1ehQgVnYmLiKxiexb6EkJyH1BkzRdgd/iuBFxkZ6fzhhx/mS31RTsKEEELuFF26dMkllfA3Hh4ehq5bhcoZok6SXaa9eUOHDnUkJSVNFT8hJIfSrFmzZVJXJGh9YRV48CMe/qZNmzqPHj0aJwKvOPYjhBByB5g7d26h4ODg+kWKFNlnHY5FBY2eO/TowVXBh8WNd+7cedrhcIwwMyCE5Ehq1qy5VuoEx4167xCHegP+IUOGOC9fvjyYb9sTQsgdZM6cOf4eHh7z8uTJc1qfuNWFoIPA02FaqcSNmJgYQ1iamppa18yAEJKjWLFiRa7Ro0eHxMbGbpQ6wsgo8PRhEPN5JWzMnDnTSEpK6s3F0Akh5A7y6KOPhhcqVGineBPFzIoZBr8KPe3Bk7DRqVMnLI/SVyprd0kjhOQw4uLiCrZt23Zg6dKlf0YdcSOBhzoDD4YSNl5++WXD4XD0wr6EEELuEA8++GBU4cKFL0ql7JCgS9ypoZLWT5Nhjt6aNWsMp9PZSsKEkBzI5MmTi1aoUGF5YGDgWdQXNxJ46L1Lf+veeOeddyjwCCHkToIFiqdOnVqhaNGiKRBy1kpal0uBH3PzUJEHBQXZhd/EGmB/QkjOY8iQIb5SF/xcpEgR240EHsJWgbdy5UoKPEIIuZMsWLDAq3HjxveJgLNLME0rabgZK21PT09nlSpVEm022xspKSllJI4QkgPp3bu3f+HChU9gAWPUEdZ6Aqb1R/pogPHZZ5/ZnU5nT/ETQgi5E4hgqxEWFrZSvObw7I2exFFJoycPT+PvvffeBamo26WlpRWVdEJIDqRLly7+efLkOYG64a8Enru7u/HVV18lSL3RHfsSQgi5zQwaNCiPn59f34IFC0LcGVpJWytrHaKFeXl5GcnJyacTExODJEwIyaF069YtUOqGkyrurHUGDGEVeGXLljV+/vnnUyLwOmNfQgght5lx48ZV8fDweBlzZdKHUv5QSSM+fR6Nc9SoUQ7DMH6XijpQwoSQHMi6devyicCLlXrj9N8ReK1btzZOnDjxo9QbLbE/IYSQ20znzp2n5c2b95y1ctYhWpiKPnX37NlzVgTeMqmovSRMCMmB7N69u1DXrl3rSr1wRoJ/EHcapwJv6NChzvj4+I+k3qgjaYQQQm4no0eP9qhWrdpzBQoUMOfeqamYUz8qafjLly9v2O32HWL1paLmavSE5FB27tzp3qFDh+ZSN5yV4F8KvClTpjil3nhW6g1+h5YQQm439erV6xwaGrpRvGZFrEJOTSttzMHDGnjPP/883oJbn5aWVpir0ROSc9m4caO3CLxuUkecR/3wVwJvxowZWCKlp9QfPpJGCCHkduLv7/+Kp6en+QQOy1hJY16exqMSP3To0B6poCdKHCEkB7N58+birVu3Hi91wyXUE38l8PCZMqk7asiDYW5JI4QQcjt46aWX8rRp06a8VMDbw8LCXD13cLWixksV6LVDGDZ9+nRnYmLiIpvNVtLMhBCSY1m3bl20CLw3pG5IKFKkiFlnaE8eBB1chBEfGBjolO3xacPy5s6EEEJuD5MnT/aqU6fO8yLoTqAidnd3d6KSRsUMk01cgs/Nzc2Abdy48bw8gU81MyCE5GjkIbGm8IPUH66v32hPHkw2cfXexcbGOnft2uWgwCOEkNtIXFxc3ho1asQWK1bsHL4pK1GuoVgYKmR8rQIuevGwQOmoUaOw9t1KEXjNkQchJOcidcg9Dz74YMty5cqliogz6xCYtR6BoQevYMGCzk6dOjkuXLiQKPUHX7AghJDbRbdu3cqLuFskFW8yvi2L3juJdlXIcN3c3FzDtiL0jLVr1+LlinslTAjJ4Tz++ONFRbT1w/SOjA+HcNGDh7oEaZjmMXLkyESHw7HLZrOVwv6EEEJuMc8884xfrVq1RuTPnz9Jn7x9fX1dlTPMx8fHDPv5+eGrFc5HH31U6mbHfrvd3gJ5EEJyNuPGjatbsWLFt4OCgpwYntWHQbgQd3B12BY2efLk04ZhPJWYmMjF0Qkh5HZQp06dwYGBgYcx9IreO33ixtO2CjtUzDqXBp8l+/7775OuXr3a2el0epqZEEJyNP369esTHBx80Nvb26w7VMjBVORZe/OeffbZQ2lpae2lDilyLQdCCCG3jKioqP5S2X5dqFAh15wZ9NCpHxWzPol7eHiYQ7cLFizAvBl8XqgU170jhIAWLVqMdXNzS9SHRBV3kuSa5gFDmq+vr7F58+ZdUof4SB2SC/sTQgj5j2Ay9NChQ4s2atRojJ+f37dSISdqhYyK2CrqYIiXJ3PT365dO+PMmTP703vv3JAfIYQ0btx4Ml7QQh1iFXQwjACov3DhwubXb86fP79DwoQQQm4FPXr08K1QoUJjd3f3RwoWLPibCLsUTHhWQYe32zBUCz+EHZ7GkY6wv7+/c9u2bcdE2M1HXoQQotSrV28yhJ2+YIF6I6PYQ92CekXEIL5gQYFHCCH/FixePG/evICZM2dW7N+/f/OqVauODwwMXCdP1Ib22MHQg1eoUCGzEtYKGeGiRYuaflTa77//fpKwQgReVeRNCCFKnTp1rhN4OmcXpj14Wt907NjRJgJvk7kjIYSQG4N5cCtWrMj7xhtveEDMTZgwoWTXrl1jGjRoUCk4OLiBr6/vWBFqq8ROoocOYk4rX/gxZKLiDi7m2qFHD2mIw6Tpbt26GWfPnv02OTm5v/mjhBBiAQJP6w0dEdA6ROsXFXujR48+k5iY+Cb2I4SQHMfGjRtzL168uBCE2yuvvOL55ptver300kver732ms/8+fN94uLifMeNG+c7ZsyYoIEDB1bs3r17z7Zt2z4hwm5DhQoVToWGhjrwJQpUrhB02jMHQyWLyleHY2HYVoUfKuj0sIG3Zu12+yWn09lTtiOEkD9Qr169KahTrPUK6hzUJQgjHvULRgXefffdH20225hrexJCSA5i0KBBeTp16lS5Vq1a06Ojo9eUKlVqd0RExK/h4eEnxX+hdOnS8SVLlkyUcGJISEhSiRIlkosVK5bi5+eXIoLMjs+IYRhWh0RgEG6StelqHN6KRaWL+TL6pQr06MGwbVBQEL5Wge9F9sYbb+bBEUKIhTVr1hQUgfcI6hQJmnN5Uc9ojx1ciDzUM1JnOU+dOvWp1Cd1r+1NCCHZnFdffdXt0UcfbTxw4MA5DRs23CxC7oiItXMiwBLkKdgmZpeK0iGbupY0QcWZ7k+zxmm8DpVoHAScVsIwhPWj4EjHB8CRDtEnAtKZlJR09uLFi09LZRyelpZ2j2xHCCHXsXz58ggReM/rXDvryADEHlzUKaiPKleu7LTb7YukTikg8YQQkr3AvLnOnTsXqFu3bocqVarMq1q16uqKFStuiIyM3BUWFnYiKCgoCWtF4S1WFWaoPBFGRSlZmPFaaaqA03hsj3gVeDD4kYc+UWsa1r1DvvCj5w7xchzOxMTE36QSfuHy5csQd3klnRBC/sCiRYta1KlTZw166FC3QOBpnQS/tR6Seg9TPl4xdySEkOzCunXrisycObNyhw4dRkZHR7/m7u6+TSrBU2KpEF4QZqgUZVPTILyscXA1rEIPhjj0vFm3U3/GPDUdlS4M6ZgXoz153bt3dx47dmyfiLs5Fy9eLA8xKvGEEHJD5s6dOykmJmav1knWugl1jI4awJ0+fXqqYRgLJUwIIVmXuLi4In369KnSsGHDblhYWGx2bGzs8qCgoH0iqhyo8CCwUAlaRZcKMvjhwqwiDfE6cdm6jTUdeWvPHAz7w7APxCQqYaTrEEpoaKhTKmrn2bNnt4u4m5KSklJO4gkh5E+57777Xg4JCbmq9ZE+bMKPOK1jZBvnjz/+eN5ut8++tichhGQh9u3b57Zu3broadOmNRdBN0oqtSVSye2SpEviYg6dS4TBVHhZK0StKHVIVsUaRB3EGdKQB+JUrFn309+AIR1DJ9jX+mSteeIt26ZNmxoffvjhFRF2q8V6JSUllZBtCCHkpqB3f/DgwUGVKlX6EC9pad2jD5Lww1DvuLm5mV/EuXr16m6pY4Zjf0IIyfQ89dRTBSZNmlSiZ8+eNe6///772rRp81yVKlV+KFGihA1vqmrFB1fFHAQW4tRU4CFeDXHWbWCoOFFhQrhpXtgP8dhHRZ7ua61oIeZUIGK9u9q1axuvv/76lfPnz++z2WxvJScnR3C+HSHk74ClnBo3bnyfj4/PTjxEol6RaJdZ6x6ki8DDFyywWHojiSOEkMzLl19+6RYXFxfYunXrRlJ5zcmfP/+RfPnypUBEZRRaKsQ0rHFWP9Kxnxri0fMGkQhDj5tuf7N9YBB6+tTs6+trzq9DHLaV/IzmzZs7li1bdnXfvn2/iagze+0kP0II+dvMnz8/X0xMzHypW46hbpEoV50GF3UR4nXkoGPHjnjB4hGpb/ywPyGEZCowLCGiLvfIkSPzdejQYXCdOnW+LFOmTJI8xboqNNnMZajotNKDWQUZ/DDd5kZm3UbzU9EHIQnRB9MeP2yLClXfaMPvYL/IyEhj+vTpjvXr16ceOHDgqgi7d6SijZU0Qgj5x7z00ksFpe7bLPVMogSvq+9gGqeLqH/22WcGh2cJIZkSfAqsbt263UNCQj50c3P7XYTVJanIbGKGCiuILu0tk13+UNlZ7WYiT9ORHyxjftb98XsQc2pY6gSfF8OaduPHj8c3ZJ179uxxHjly5ER8fPz7UsH2FZHqL1ZULI/kQwgh/xh8aadcuXI/S91k1n8SdZ1Z18CDyEtJSUmU+mewxBFCyN1nxYoVuTAMO2LEiDGtW7f+sGTJkof8/f2v6lw2iC8VWXBlF9NuJOoQh33UVNBlNE3HPshfe+HQa1evXj1j6tSphlSuhgg348CBAw4Rb7Zjx45dOn78+LFTp059d/HixZUi5mbabLbOUqFWg0nlGisu5tgVlbwIIeRfo/ViWFjYLxJ01W9WP0SdxokQhMD7UuqkVhImhJC7x5IlS4o0b968tq+v72M+Pj6r8+XLd0DEVjyEF4ZIteKCqFM/XO1V0zBc9VvDNzKkI3/kAWHXpk0b54IFC4yDBw9eSkhI2HPhwoU158+ff1wqyvtEqHURt4vD4egiwq2TWDuxFna7vb6kVRJ/qLiFJV9CCLmlLF26tOjgwYM7Fy9e/HcJuuqvjC7qMVivXr2cly5dekwEXpSkEULInQVPpXPmzAl/4IEH7u/YsePs8PDwtYULFz4pSeYQBCosGASY9qrBxRAERJ/1JQiEEa/piIOLN1nhx7YqFsVveHt7Gx06dDDee++9RBFy34hAe0FsvNg4sWFi94pgg3gLE+Nnwwghd43JkydHNGjQ4A15+MU0FdeIg9Uw4gAXddymTZuwREpHPnQSQu4oK1eu9Jg6dWrlmjVrDvT393/G09Nzp1ROV6wfzYY4swo8q1+yME3FHFw8taInD4ahCsyNQ35aEQYFBZk2atQox7fffntSnmw/ExE33zCM2eJ2F4vAsRFCSGajadOmlSIiIo6IeEuRoKsORJ1o9eNNftR5Z8+edaamptaSeEIIuf0sX768wNy5c6PHjBnTq1GjRkvwNCrCzIA4yyjcrGGkq1DD3Dv0yqFHTg2iDk+t2E73wfZYDLRKlSrGtGnTUn/++edTiYmJX4ig+0DE3By73d5YtiOEkEwN1v2sWrVqKzy4Zuy5swo8GOo82c4h9VuC1HM1JI4QQm4fb7zxRv4BAwaEVqpUqUl0dPSboaGhJ/A9VvSwYQFg9LbJZi4hZ63EUIGhlw5xEH1wEYdtddgV26kfb7PWrl3bOXz48OT169efiY+PP4DJxlLhPSsVXqhsSwghWYb58+eHlylT5kF9ELbWj1ZDPYm6tF+/fkk2m22H1HcxEk8IIbeel156KY9UTkXwxQl5Av0ob968VyXarKBQGWmFBcEGUz+2scZppQaDH714EIY6v078RmxsrPHAAw+krlu3Lv7q1asXRdR9axjGo1LJVcGxEEJIVuSJJ56oFxQUtBL14c3EHdJQL4rf+Omnn047HI6xUvcFSJgQQm49NWvWbCfCa1Xx4sXjAwIC7Oi1gyiDoTKCWJPNzMoJc0dU1KmQg6thiEEvLy+txMw4Pz8/Z+PGjZ0vvPCCcezYMaz5tE2st5iPWCGxfHxBghCSlXnyySfvE4F3SOtHiXLVm1Y/HprFbyQlJR2Qes9D7H8SJoSQWwMW4xw/fnzjypUrrxJB96tExRcrVsxVGcFVwYYhWgwpqNDTeBV2uj3SdSkUCMFKlSo5x44da2zYsCH1ypUr38rT6qCUlJTYS5cuhYqoK8KKjRCSXZg8efIQX19fG+pFmET9oY6Ei7qzRYsWjgsXLuzFAy72JYSQW8LIkSPDGzVqNKFcuXLfBgcHX5UKxyhQoEAaKh5UQjC8DAFhp6JOTdMRrxWWhtWqVavmnDt3rvHLL7/8KIJult1uby4VWTURdN7sqSOEZEfatGkzwtPT00B9aBV4cK1+1K3r168/lZqa+obUh/kljhBC/jsdOnRoEhIS8qq7u/t+qYgMiXI9ZUKc4SUIxOkLFeiJg4vhWmyDHjoIP91Pt8ewQ/fu3Y2vvvrKuHLlypfJycmzRNS1lQosTNIJISTb0rFjx0jhWdSPMNSNOsqBMOpO2cwUd6grf/vtN6zpifXvcl/LgRBC/gUbN27MPXr06JCmTZv2jYiIWOfh4XFFhZk+baqLygiVEASd9sghDXPqkK5hLAWAigphydf46KOPzouo2yyV1iybzdZR3KBrv04IIdmb6Ojo3v7+/l/hwVjrRRV1alrPxsbGOs+cObNG6kg/EXicpkII+XesX7/ec9CgQY38/PxmSsVzxFr5wLTSkU1NF+lwIQDRU4cePBWD6mIfCL4OHTo4RTxeMAxjs9jcxMTEjvhNQgjJSUh9OFvq1XPiNetX9N7Bj7oSLupUffEsLi4uVXhL/IQQ8s+RSiTvpEmTQu6///7eNWvW3CxPl6lSyaRZKxyruNM4VEzoxdM4CD5UTDofD/6+ffvavvzyy5PyBPqlCLs38J1X2ZYQQnIcUtfml4ffReI160/Uo3gYhquiDnUt6lL4v/jiizNSb87DvoQQ8rdBl/8TTzzhFh0dXSEgIOCFIkWKXIUwg0Gk6fyQjOIOhrAKQKxfB7+3t7crPHDgwJS9e/eeE2H3jVRQj3GCMCEkpzNjxoxyPj4+a1DHqoiDwEP9qWuAqsmDtnP//v1bpA7tKWFCCPn74HM5rVu3niAVyQGpdFDhmC9SoOLB53Hgh5DLKO5U9KGSQhrWwoOLNew6d+7sPHjwoNRJzj0Oh6O3bE8IIUTo1KnT1AIFCuwTr6seVaGnLnr28IDdv39/54ULF56RurQ49iWEkL9k+PDhXjVr1uxUpEiRr93d3c+JmyrRZuWCXjhUNKh49K1YmPbYwXRoFk+emCgMt169engrNkFE3XdSIdVNSkoqLi7XbSKEkHQqV678idSXiRBwWp/qA7T68eIaHrCXL1/ukDp0alpaWq5rexNCyJ/Qs2fPe0XcLQsODt4vFUkyeu1QsaDCQU+cVjo3EnfosYO4gwDEfBFs06JFC+fatWsdUgltkspocEpKSgyGYzH8a/4gIYTkcFAfdunSJa/UuzskaFjrVxjqVBjqWNS1qGc3bNiw1W63d5B0QrImK1asyDVgwIBi9erVax4dHT0uPDx8frFixd4IDAxcLLbkn1jx4sWXSAEyLSwsbInktSQmJubNxo0bP9+rV69JjzzySJMlS5YUSf/pHMNzzz1XuEmTJrXkGj0tIm5H4cKFL+XNm9dcrBgVCsQa/BByCOMJUisZ9M5JFmacu7u7q0Jq3ry586233rLbbLYvU1NTp4nVEYHng98jhBDy/5kwYYJoOrdWIuJ+0bl2qF+tD9Pwo46FO3LkSKfD4RgldSq/PUuyBnFxcfcsWrSozCuvvNL86aef7jdq1KjJzZo1ezw2NvZlf3//T+XGPygF4LJsahfDfDBzpe+bGQqC1VBg9EkIwgTCRcSMQwRffPXq1Q936tRp/bBhw56W43ho4cKFQ0TsNV26dGlJEZl5cXzZkQcffLB0x44dx5YoUWK1iLdLEuVaPV0FnsS5rpv1yRLXD+m6zh3iKlSo4JRrl3Ty5Ml9ycnJc/GEKU+n/pJGCCHkBowdO7a4tEWLpN49h/pXolyGl9JgeIjWVQnmzZsn2s7ZXPyEZF727NmTd9q0aeEtWrRoXbdu3WHlypVbWL58+U+ioqL2BQYGXsbEfCyEixsbIkJvfrgqKjR8M7Omq9jDvhAsyBfDj/gN/JaIPSMiIiKpTJkyh0VYrhN7pkqVKiPbt28/aODAgd2fe+65ujt27AgQ0ZKl5z2gZ/Tee++tWbZs2acDAgKOQPDiulivGQwiDy6uFSoY+OGq0JP/yHTxEsbkyZOdhw4dOmAYxjIRd8Pj4+N9s/p1IoSQ283o0aOjpB06IvWtTYJmB4S2V9Y6GeHw8HD7N998c5xLSpFMCcTFypUrPV599dXYmTNntmnZsuVjxYsX36XLaOAm1u5p6w2uN/mtMuSHgpRRKOI3tZcPcRA0EH5Vq1Y91aNHj3VPPPHEhMWLF7dZs2ZNo08//bTy5s2bix88eDCfbJvpQS+pmGebNm0alihRYmWBAgWS9brivOHCrHHw4xpBBOs2iMM1QrwIRfvWrVuvyBMlvj4xPiUlpYxsQwgh5C9A2zFo0KC6efPmdaBORd2qX7HAg7TWuQjDevXqlYDFjaWuLXstB0IyARAXWFdNBEFUs2bN7qtbty566i74+vqmQUxZe5Hgx9AfwhARMPg1XbL7W4Zt1W6WjkKD39PCZU2HuENhQxc51h2SpycMQxo1a9Z01K9f/2K9evW2dOjQ4ZH+/fvXnzVrVuRXX33lKwUvU4o9DDU3aNAguGLFir39/PwOubu7m/PsJMl1Lax+XGv0biJsvTb4X9BzJ+nG2rVr40+fPn1AzvmD5OTkCEknhBDyN1m/fn3xzp07j0Z9inYOdbLWt/CjbcJ0mPT5d8ajjz563uFw3Ct1rld6FoTcXfAN0ylTpvjIjdw9ODj4K9y8MBVyGCrFzaxzDFTQwX8nDL+nfhyH9Vj0OKzHhOOG+ENBhMk52Vu3bn126tSpT7zzzjtVdu7cWVAsj2ybKcD1lye/8kFBQU9KMCV9/qHrnLUysQppGM4RabgWXl5eZhy2GTlypOPcuXOJUsmsF2HXlG/FEkLIP+fpp5+uJg/ey1D/oi1B3aztoyS7DGkRERHGhg0bfo+Pj/fDvoRkCtq1a9epUqVKH5coUeKqCAtzXTXcyHAhIuDihsZNrGkQElZRdSPTgnAzs26jfhUv8OOpCGINhUvT8ZuavxY6mPbyYV8VgPBj6FLEj+Hv7++IiYlJFKF3sXv37l/17NlzpOSRKWjRosW9oaGhG+S6JmGuoURdd55qem30HHG+6LnU9CZNmuD1fNF1zv1iA8XcRNxlGiFLCCFZiXvvvbdjZGTkca1v8eCN+lfbHNTTSEPbNGTIkBS73b5P6l3f9N0JuXvExcV5y1PHY3KD7i5UqFC83KTmN0ytvUcq9HAj46bOGIft9SaHqV972P6JZRR4cBGPPJGfijjdFga/bqfxGmeN1zzFjIIFCyZ5e3v/XqtWre8fffTRGV988cVdm5dWuXLlGeL8JNc8Udw0Ob40nCvOGcer11WvKVycC1z9n9DLOm7cOOP06dOXpHJZgAm+Iuw8kD8hhJB/jrSPBaOiooZ4eXmlSNCsa9EGwUX9DBcdIPqQPXPmzN8Mw5h7/vz5HLecF8lk9OvXr3LVqlXfEqFzTIRECm5YFUQQFnC1F0zjVGhoOlyNt/a06b5Iw/4q+mD6O7qvbqNpCMPF/mooRJoPXBV52rsI09/G/hqX0fR3kCeOF71lNWvW/K179+4bhw4dunDw4MG9Xnrppdve44Xf6Nu3b1hsbOyrQUFBR+V8zApEzx3HCcMx6rlDxMGPdGyL+XfYvmPHjs6NGzemiLD7WkRdF5vNVkr8BcwfIoQQ8q+Q9qCqh4fHK1LvGtJumJ+CtLYvqINRN8MfExPj3Lt371dS98Zy1ITcNWbNmuWHlyhE3HwgN+1VicINmqbCAWa9iVWowW/tQVPRocIMNzuGVHXOHrZTU0EFgQJDDyBMRQzeRsJQKtL0t5Cv/pYatleBpnH4beShggfbIN3aC2k1bIN9YOnfcEU8evUu+fr67uzQocMCYfSnn35a7siRI7f8I/tYuLhTp071S5YsuVSO+6ocj6vi0GuJsBquKeK0IsF1wjXGlyuw9MnBgwfxEsXCK1eutJSK5ZYfLyGE5ES6des2XOrovaibYRJ1naGdQd2MtqdNmzZGSkrKx1IXZ4kVG0g2Iy4uLveoUaPKN23adFKVKlW2y42ZahU7sonLICaQhhsXQkzT4UKEQTzp/DjEaT7YDy7S0TtWrlw5Z40aNZwtW7Z0SmFx9OjRw9a1a1dbq1at7A0bNnSKyDG/n6r5o8BAvOA3VRgijG0gaPT4VAip6IFZ/bCbFUprGvbR/RCG0CxTpoxDjvdQ9+7dXx8nzJs3r9WqVaswl+0/v6gAcS0VQdeoqKj3g4ODHdbz0GPKeGy43jguFdO4Nu3atTNEgNqkMtnocDgmiMtX8gkh5BbxzDPP+DVo0GCh1MXm2nfWdsLqwtBOPf744wmGYbwtYULuLK+++qpb7969awkviEg4LlGmaICIgmhAGGYVTSoy1A9hYe1hEzO/ViEizRDRZkyZMsU+d+7cqy+++OKxFStW7Pniiy+27tq1a82BAweWnzlz5p2EhAQssLvo0qVLi44fP/7WwYMH39m+ffs7H3zwwTvPPffc+tmzZ3/7yCOPHBo2bNiFRo0aOcLDww0RkOgaN48Dxwbz9fU1e97Sj8EUmZbjdM1fQxyO9c8M+6BHLP0VdzOMfZGniFT89tXq1atvFZ036L333qt75MiRfzWvTcThPSNHjgyvWLHiUDmvzfhNiTYrBj0/HI+epx6bpuHaY54H4ocOHZp85cqVQ1KZLBJh11qMr+MTQsgtpE+fPu3kYf8LbSu0Xra2K+gAwRJd8sDu/P333/dKXTw1fXdC7gxPPvmkd8+ePXGzrg4KCkqCaICw0CFNmGxmmoocqx/bwjSM3jkRYMacOXOSly5denLbtm0/njt3bruIGHyw/j273f5YSkrKgNTU1NoS5y37/CVYo032bSc2RYTLmyICtxw7duyrL7/8cpvYD2+++ebvIiKviii1o6DhGFTY6ZClZHPd8SNd/VbTc4bhWiA/CFfkoXnqNUFaWFiYs06dOsndunXbOnny5J4zZ86sKNe01CuvvOIp29wUrGuHbeQ6hQ8fPryGPA0+ERgYeFjFnYpK6/WH3yrwIOxUiJcvX94pIvNCfHz8dpvNxoqEEEJuE/Iw/qyPj8/v4jXrZG1b4FrbGfj79+/vlHZrubR5VSSOkDtDXFxckejo6OF+fn4HPD09XTdlcHCw6ULgQDxYRYYa0gICAlxpkZGRxoQJE2yrV68+d/jwYXyK5Vuxx0WUVRYhV1i2ueVIvrkl//JJSUnT5Qlp7a5du35Zt27d72PHjj0bHh6eIJtgdXFzDhsMPXt4ospYCGE4D5imWQstDGEVfDAVexoHUVmsWDGHCL6zIpbXiejrP2DAgGIYdhUB6rV27dqi+ALI8uXLPbGmoAjC2GrVqg0SUfeet7f3JRGRDuSJ48PvIW9ce+1F1esMF2GIag3ff//9xi+//HJBrsVbck0aSzwhhJBbjNSv/+vdu3d+qas3a9uIulrrZ20T4KJTALZx48Ykh8MRdy0HQu4QDRo0wLdMz6LXCDco5rGpcNA4682LGxciBNvg5kZco0aNnIsWLXIeP3481Waz7RBR10gKQV6IL7F7UCDwW7cL5J/+O7nE8Jt55EmpxunTp1+7ePFi/NatWx3Dhw83RSt6xbTw4fzgWk1FHEzFFbZDDx7S5Of+4FqvhRhWMzekUDt8fX1TY2Njbc2bNz/RtWvXrwYNGrRCnuQW9+vX78OmTZvuj4mJuSzX3i75Y3vd3+yV07xhOC78BgzxGsY++N2JEyc65TxTRdz1TkhI8Mf1kP0IIYTcYlasWFG4YcOG3aSe3idBV12t7QdcbUMQX7FiRefVq1c/lraxDfYn5LaDJ5DixYu/KiLkuNyQZs8Rbk6YCj24EBBWwaNCQ4csP/jgA+evv/56zDCMhSIswkRkBIl719/UlOPIJ+YjForjEuHT7OjRo0+uWbNmT4sWLQw5F5jrnK2Wfq5pMLk25rp/yFJdCDBcL41TEYw4GMIw2c6Q6wizi7BMkmt91cfH54qXl1eCm5tbSsGCBc3rjnxg2AfD4jgG+HGd4eJ4cL31P9I0DM2+++67hoi7XThHscJi90hehBBCbgOvvvpqYJ06dTZKXXxFgi4hhzYAftTP8GtdPWXKFGdKSko/qZsLmhkQcjuZP39+sdjY2IdFaBwT0WCXKPNGVMGDm1RvWjUVNxBG4jeGDh1q2O32KyLs5orbQIRUuKRnWlC45BiDxSrjeE+dOtXw559/XjpkyJBTpUqVMvAWLnr3tFDCL7uZIgqG89c4dW9k2BdmDVvTrYY0/F5GP8QbRKRuh99HnIbx+3iR5NChQ3aHw7FKzq2SxBNCCLmN4GXEfv36NS1btuxZaRPMB3R9qMdID+pwtBVqnp6eRnx8PD4J2SE9C0JuH5MmTQqpWbPmyNDQ0F9FNKSokMONqUODuFkRjxsXwgI9dfpkEhAQYHzxxReXRVh8euHChaFy45YUgZH7Wu5ZC3mqqpiYmNhJzmH8K6+88p4IvQQpkA4tnOg1k81cghfXA2GYVZBZ47CftZBb029kmG+nwhquxmNf/KZV2CGMY4Lgs9lsCXLcL4tVlzRCCCG3GXwPPDw8/HVpJ2w6RUbbCRjqaNTlmI+Nurtv376pSUlJ6zFlyMyAkNsFJvrXrVu3n6+v7w79nqmKCwgKq5iAQfBBtMCPG7Zt27aG3KxYfuP55OTk5iIu3CQtyyMC1UPOpY4UwomHDh2a+/DDD38r1ymlePHiZm8ZCq1sZroQV3AxlApXRTD8NxJ0uH5/Zrqd5qWiEWn4b5A3jkF79Nq1a4cvUmBI/EkRqDESRwgh5Dbzxhtv5K9Ro0ZnqadPSP3senFPO0DgR7uAdiC9M8DYunVrosPh6CF1to+ECbl9jBkzpkNUVNTHmF+HGxCiDSIi/WY0b0wVFupCcMAwJCs36R673f6oCKLIazlmPy5fvuwp59lTBNQL8+fPX1GlSpUzIobxmTAD10SvkYSvE2hiaelmhnHN9Dr+maFCgMGv++GJUIWeCkcRm8amTZuuSmXx3dWrVx+UYwyUdEIIIXeAhQsXlqtQocJTaC9RR6PelmhzaFYfxiH29EE/Ojranpqaekrq6kw9fYlkA0TcBdWtW3dJcHCwTXvqVDygd0iFi/XGhUFYPPPMM+i5+ykxMXGM3KzByC8nIOcaJPbszp07V48fP/6XevXqJeFaYb4erheuE8JquHa4tirO/q6pkEbFgd46hBGPPPH9wlatWhkXLlw4g65+EXeDRWDnknRCCCF3AKlz/zdlypSBJUuW3KcCDoa6WttLxMO0Ln/++ecvGoaxBu0I8iDkttGwYcNJvr6+P+sLAtprB4Mw0S5mFRe4UTHfbtmyZbaLFy8ekpsUc9X+dOHe7IzD4Rhx5syZzTNnzvy1RYsW8XK9DFw37XmDwY/CjWun8biuf2YZBTXi4AYFBTk7d+5srF69GhN0j4q4e9lutzeUNEIIIXeQ/v37e1asWHGezpnWh3LU81rvw1Xxh8Xvjxw58hNe6BNxyLdnye0D35gNCQn5zvo2Jm5QiAnclHBxgyJe3UqVKjlFzNgTExPxeZUIuUnzIq+cDoank5OTP1i1atW5yZMnp8TExJifTMNyKHLtzHkZuJ4QbRDTuN5/Ztg+fbKuIZWHgS+ATJs2zfHpp5+myNPfZZvNtik1NbWu/Af8QDUhhNwFqlat2r9w4cLbrfPtYPogj/oe9Tk6ThA3btw44/Lly5uwLyG3jfHjx/vXrVv3MU9Pz1N6M1rFhT5xqNDDDYynFKzdI3wh4gJfociDvIgp8LCYsrtcG5+UlJS+Bw4c2LB69Wq7XGejVq1a5nIrek21J08NcTBrHOZDdu/eHWLaeP311419+/bZJO+tYsPwG/JbRXn9CSHk7hEVFbVU2sdEzFvX+h2dJCr4IPDgQuBhas3evXuPygP6U9f2JuQ2EBcXJ1rNo63clKfkxjOXRLEKDdyo6LFDPMK4MeGfNGmS0+FwfCU2QEQGe45uAsSXXJ9SYpWTkpJqHDlypN/27dtfWL9+/cb333//0LJlyy7NmTMnBeLt4YcfhohzPvvss86lS5caa9assX366acXfvzxxwPHjx//NDk5eY7kV1+sks1mKy15eqX/DCGEkLuA1Mf/e+655wqXKlXqIwlilMbVfsIPYacP8jr9qVOnTs6EhIT3pA4vL2FCbg8dOnRoKE8YmyDcrHMGJMl1g+oNi3TcqPikl7BfBMs4cQOQD/lrUBHI9fIUcRaJNY/E30SstcS3t9vtHSW+E0z8mMvYEfHithJh10jcqmLhEpcl1xMkhJDsyMaNG/M/8MAD9wcEBPwgwTTtDIFpW4pF5/EmLUbF0NZu3rz5ktTzs6VOZ+cIuT00bdo0smTJkk/ITWfDTQkhp08akmy6erMiDR/hr1KlCj57hXXWHhIraWZECCGE5EAwCtaoUaO1RYsWvYg2U4dnYdqW6rw7pNWsWdMZHx+/KiEhoQX2J+S2IOJucHBw8I9y47nWZ9ObUF3t0cO8MUzy/+GHH/B1hGUXLlwoZ2ZCCCGE5ECwsHHz5s1jQ0NDfy9YsCA+0XmdsEMYvXboKMG8ddjChQulCXWOT0tLK2pmQsitZvLkyWHu7u5LMOyqNyMMfh2WVaEHP9ImTJiQJDfmLny+S9wCyIcQQgjJiTz//PPFQ0JCJuXPn/+StpkS7Woz1RBGW4ulUfByhbSfnSSekNtDs2bNHpSbbt+NBB6eNhCPm1LT2rdvbwiHEhISpsqTR2HkQQghhORUxowZU7Vo0aI7pZ20SdDVXqrQg2HuHV60EL8xa9YstKNzReBFS5iQW4uIs/917ty5QKVKlTbj9W2JcvXUqR8CD93KKvJCQ0Od+/btS0pNTV1hZkIIIYTkYLB2bKdOnVpjGSudq241tKkwpKEd9fX1NXbv3p0iVJB0Qm49kyZNcg8JCRnt6el5WIKmkFOBB9OuZMSryMPyHQ6HY4UIvOrXciGEEEJyLv369assvIi3YrXHztpZYm1Tvby8nEOGDEEnyY9OpzPKzICQW82oUaNKFCxYcI8It2TcfHi60Dd8IOjg4oaFiwUbIyMjIe6+EeuTlpaWPz0bQgghJMdSsmTJQUWKFMH6saaIgyvRpguhpy46Sfz8/JzffvvtkZSUlHv5cgW5LXz22Wde3bt37yLi7bLckOYns3BjwoXpUwjmDOjN+umnn0LgjZWnDj8JE0IIITmacePGRUs7+oK0lfb0+XWuYVptR9GGIg6dJUOHDjXOnDmD3jsvEXi5kAcht5QZM2bE1qxZ8225AW2Yf4cbT6JdLnruVPDBrVOnTqphGJvlpqyD/QkhhJCcTu/evUdJG7kb7agKPLSZKu5gGBGDwMPXKzZt2nRS2tJXMQce+xNyy+nWrVvzqKioE3IjGvnz5zdvQtyQKvBwo8IPc3Nzc3788ceJckP2Ye8dIYQQYi4x5lWnTh0sMZaI9lOnNqFNVb++WAHDZ8kuXrz4ubSj9dKzIOTWMnLkyCKlSpUagDd+JOh60rBOEIXh5sQXK+QJxZacnHxAbspQiSeEEEJyNCtWrMhVqVKlzsHBwd9I0JxfhzYTLuasY1gWYQg9pOPlik8++QS9dzPNDAi5HbRv376q3Hgv4+aDoMOThUSbN6YKPMThJoX7/fffn5Cbco4IPB8zA0IIISSHAnHXv39/P2kv13h4eFzUIVhJMoUdhmt1zp22r+3atXNieTG73d7AzISQ20HHjh2Hyk13GIJOb0rciDD4cUNiiBYCT55QDLkht4u4K57Gj9sTQgjJ4Tz55JPezZs37y0C73cJXjfyBbGnnSVoS6VdNby9vY3Vq1fj60/DsD8ht4327dvPEMcl7OBqNzLCGKqFH+Jv27ZttpSUlPUSJoQQQnI8bdu2rRwaGnpWBFwqhBzaTaw4AUGnnSaIT18exYiOjjYcDsdWm83W5loOhNwG4uLi6lauXPkDFXZwYbgxcUOqIa1ChQrOEydOfC9PHSPMnQkhhJAczLRp04JLly49zsvLyyFBc4kxmLX99Pb2dmKOe3rbamzevNmQdnSgmC/yIOS20KJFi7mBgYHHxWuKOhhuQhV16FrGUweGaB999FGnPHG8zpuSEEII+b//69GjRydpN/dqxwjaTIl2dZhgBMw6IlanTh17SkrKpfj4+AZc947cVkqVKvWePFmk4saUoMv0yUPDIgKde/bs+VXE3XgJE0IIITmaOXPmhNeqVesJEW4paC+tnSMwfXNW15aF2Pv1118v4CVFEXchZiaE3Gp27tyZp3HjxrXz58+/LXfu3GkS5bopVdzhhsSTB9z27ds75aZE712O+OZsXFycb+vWrZtGRUVN9ff3n+Xp6Tnb19fXZRJnuiVKlJgt4te00NDQ2dWrV5/dt2/faa+//nrHo0ePBqRnRwghJJvRqlWrfmFhYdt15EuirhsJ0zDWwZN21ujdu7ddOJiSkhIjAo+f9yS3hyVLlhSpWrXqy+I9KXaduMMNqQIPNyYWNn7xxRcxZ2Ck3JQFZbtsy9KlSyuJuOveoUOHR8uXL79OhN1FKZh2SXI9meG6WN84hiGM6xQUFIS5ipe6d+++de7cuTMlv0GbN2+ueunSJQ/ZjhBCSDZg0KBB7tHR0S+4u7snSNBsF2A3EXfOEiVKGD/99NNvSUlJz0pbWsDMhJBbDdbsefrpp0NiYmJ+gXixCjpJdt2YOm8gNjbW+eOPP56Up46u2D+7sXjx4kINGjQoXalSpZaRkZGLg4ODj3t4eKShW13nU+D6wG8tuNbX33Ub7COi0Onv72+ULFnSIWLPVqtWrWU9evToL4U7SgTyPfhNQgghWZeOHTs2lnbiM7QDqPsh4tAuSJLL0F7gbVr4p02blmAYxkoRd2wHyO1j6dKlRYcNG9ZOBMgZCbpuRtycuCFh8KffsMakSZOM1NTURXJjVsH+2Yk1a9Z4Dxw4sIWfn98rmItYsGBBA/MmcO4q3GB6TVTgwZAOQzxMt8M8CzVfX1+zV698+fLxkydPfmPr1q0xly9f9mQBJ4SQrIfU3f+bO3duodjY2JflAf+E9cEfpu0C4mCYv4725NixY98lJiZyBQpyexk3blx0gwYN3ipWrFi8ihjciCpg4OKGTL9pjXfeeQfDs23F3MwMsgHoxRSRW7hGjRoPhoeH/64rjcMk2ZwcC/dGos4aVtPtsD/y0v1R+PFBaSwSXbZsWadc919FMI/57rvvAqWi4BtUhBCShYiLiyvcuHHjZlFRUfvRe6d1Pwx+2cRlUvcbEmcsXLjQLu3nVOxPyG2la9eudYODg0/KzYd1e1w3p/XJAwIF/tq1axvy1GGIGKl0be+sjxTQvN26dYutXr36F3KuiVJIzV47a+HEuWtYr41eJ42zCkIUdMRhORnsh3kXHh4eru10X0l3VKtW7cr48ePf/eqrr7JdjyghhGRn6tWrF1G8ePHd8tCeqPW7RLvaDK3r0+t9TNUxfvvtt4MOh6P/tRwIuY3IDdq4SJEiqRAhekPqzYmbEmIFJps6e/ToIfou8QfMG7i2d9Zm0qRJJVq2bDmmVKlSPwUGBiaid03FmZ4//LKpq9Ba/bhmGoftNU2vF1xrQUccevQQRjxexJDfNeTp70qvXr12rFq1qq9sQwghJJMzb968sAYNGkyROh0dA2YHibYDaDtQ18OPeXfw45Nkb731Fr5aMT0tLS0MeRBy21i8eLGviIsh4jUFiIoQFS0IQ6TAMKz4wgsvnLTZbA/KzemP/bMyM2bMiKlevfpMefr6xcPDwyEFM02FGc4b4g3z5lTkQoyhZw8FFXHYDoVZX6yAizRsq0Oy2A55oCcPfmyHfJEGgx+GtNKlS9s6dOjw/fLlyydIGiGEkEzMhAkTWkdGRh4Sr6H1uNb9qOtR78OPthNuo0aNHImJiVftdnt7aUPzShwht4933nmnenR09Gsq6GDw61MIhA7CEC14e3bPnj17nU5nabF82D+rMmnSpJiWLVs+ERwcfAhDpyicOFcUUBjOH2a9LjCkYVsdwsV1wdMZxB8EHuJVFCOs+ahpum6j+SK+WLFizvDw8JTWrVvvWbNmzXipAApLGiGEkExGv379KlepUuUlnXoDMYf2Am2EJJuGeLQN8IvIM9599914wzBetNls2WIEjGRyFi5c2KNcuXJ7IVokaN6QKkwQxk2rgqRz585GcnLydyI8/mfunAWRY79n3LhxoZUrV34iICDgoJeXV5qeK56y9PxV2CGMeBRi9M7hOmF77ZVDOsQZ0hGnvXeSL5ZGuU7EYRv1Yxt9uoPhN2Hwi8iz1ahR47BUBvg2IRdHJoSQTAReysP3ZsV7RNsEbSclznTRHsCPtgDu6NGjsajx76mpqbWlXi8kcYTcPr7++usC48ePnxYWFpZq7Vmy9lrhg8hwET9t2rQkuTE3ZFWBh0L55JNPejdt2vShwMDAQ9ahVggxLZAwnC8KLUQY5uVpGkQYeuzkyc3ZpUsX4/7773f06dPH1q1bt9Tq1as7fH19DRV12Fd7+5Cfimik6+/iNxCv4g5pEJSRkZEp9evX3/fJJ58MlmteTNIIIYRkAnr16lW+WLFi76CtRN2ONkKizXodYWsc6vbQ0FDngQMHTktdjq8/eZqZEHI7mTFjRrmWLVu+7O3tbQoNmERfZzp3AL1RX3zxxXHDMJ7PqgIP4q5t27b3S2E7IyItDcJLol0iC34IOe1m1x47xCPs6emJT8sYc+fOPffzzz/vloK6VWyjXJP1V69e/WzPnj2bpk6durNz585HQ0JCkmV/QwWhXlv8JrrsVUQjjN9QYafHALdChQrOihUr/vDRRx8Nl9/xkThCCCF3EXmwzyv18mypxw/rKExAQIDZRqCe17pdH/Qh9KZNm5Yo7cTHNputlLSfuZEPIbcVuVGHi4j4DkJGgq5eJTx94ObEjQqBgnCNGjWw9t12h8Nxv7lzFuONN97I37Vr15ZlypQ5J2LVfNsJhnNXYYVz1p40CC+NRyG+7777UteuXXtZrsGvUkgXilvxRkJX4iMkffTXX3+9/eGHH/6tWrVqCVL4HchXKwMVe4hTsYdrjN5S7THFgsg4NgjrZs2abf/000+HyO/xW4WEEHKXeOmll/LUrVu3XGBg4Deov9FmWh/W4Wo8/Kjfpe10njx5Eh0CY5AHIXeE8PDwVwsUKJAMcSFB0/TGxE2rwg9Wr149eQAx3haRkSW/oTpmzJjmYWFhn6DwoYdMn65w7oiz9rDBRTrSsO3TTz/tFGF7KCUl5XGIuhsJu4zINrnwvdkVK1a8HRkZeUHz18oAv4nri3j8Dp7ykKYiEC4MIrNIkSJGuXLlvtq2bVsL5Iv8CSGE3FlmzZrl5+Pjs07ayUsSNOtufUCHq+0n5lsjLNs6Fy5c6LTb7U+YGRBypyhevPgSuSEN8bpuUPjVNAyRM3HiRENu0jdEYGS5T2qJuIto2bLlU1LYkiDgcK4wiCwIOTWILbh46kK6CGDn4sWLnampqUsTEhKay7kXTc/ybwEhKOa9Y8eOVtOmTVuKL1eUKFHCFG16bfGdWhV16L3D76sIRRzCiJftkvr167ft/PnzRZAv8ieEEHJnmD9/frG2bduOkvr7vNTRDm0z0W6gzoYfpiIPbU3Hjh2dhmGss9lsba7lQsgd4KWXXioYEBCwHDekCh69MXXeGQw3Lp5Cvvzyy3Nyo87BvlmNqlWrxhUqVOgIhJsOu+J8cZ4qtHDuKJAQVkiTfZzvvfeeU8TUbKfTWVXcf71kCfa9cuVKyZkzZ/aRa5ni7u5u4PcgICXZvMZ408rai4g4TVPh5+vrm/DUU09tiY+PL4d8CSGE3H7wObKIiIjO3t7eh6VOtqNeRh2uLupsbT+1DSlVqpRx9OhRhzyUj5A24B91DhDyr0EPkDyNhIvAW6s3qES7hgsxdAgXcUjH+mzJyclfi9DJUl9ZkEJ5T+/evbuFhIR8Ledo1yFPiDqcl1XIqrhDWrly5ZyffvrpOTnfBSkpKeXlet2SuW+Sj8ecOXO616lT55AIPQPHgsm5uO540UU2cT0BqgDFccJwfPK/GJGRkcbixYsXpqamZptPxRFCSGamf//+HaVO3oS6Wk3rZtTXcPEQjnobBv/s2bNTMa1J2pHK6dkQcvsRoXHPrFmzGvn7+2+RGzHNKvDgalgtJiZG7lHnMzabraSEswRr1qwp2KpVq0oVKlRYL+Loks4nREGEiMK5qqiDIR7pwcHB6Lk7Kef7ppxv9K0Sd1Yee+yxvqVLl/62ePHi5vA4hCcqBfTU4Zj0WPRJEH6IPRh6IeWcTh4+fHiKHCOXTyGEkNtInz59qtSvX3+J1MupqJtRJ2sbAj9chCHqZHOzHg8KCkq9evXqGbvd3kraEPdrORFyB9i4cWPuUaNGjfDx8fkRNyZMol0CT01v4mHDhuElg9ESl2WYNGlSSGho6BsiiC5CFKlwgqmAxfmhF00FFYTWyy+/fCU+Pv4DEU91pGDetrluDz300MBq1artwO9DuGlFAdPjU3GHY9ehZVQiXl5expgxY75KSkrqjbwIIYTceubOnVuoatWqs/39/Y/IA7erMwSutpfapsBFXY24Xbt2nbx8+fLT0o74IR9C7hhxcXF527Ztu0iEwikJum5YCB4VOyo28DSyYcMGvGiQZQTe0qVLi3bt2rUb3j7VpyqIPLg4P32pAabpmA83btw4w2azbZJC2V3ibit4qps2bdrgkJCQQximxRw8FXT6hAg//heso4djxv+BeCyhIvsYjz322Eo5Xn7yhhBCbjE7d+7M069fv1aBgYHfop3Q6T2on1XgwdCm4CEd2yA8fvz4y4ZhrJY63luMqx6QOwd6pUaOHFmkcuXKu318fOwSZQoJDAfC1ScQFRgQHyLubMnJycMlnCXo379/k4YNG27EyyFWQYdCCDdDj54hhdLo27cv1vk7nZCQMMDM5A4g1zRs2LBhk8uUKZMgQtqBYWQVnDg2rUhgiFORiu0QB4G+devW1+U/zXJvNhNCSGYl/atHxWvVqrVd6ttELGNlrY/1IRztCMJoW8RvzpE+dOjQVw6H47Z3EhDyB/D2bJ06daqGhYUdxs2Jm1QNNy2EhWxmCg2IPiy0KxySGzZLLHCc/o3AIX5+fua56FMVCiHCcFXEpveaGVFRUY6kpCTRsalTRSyFXcvpznD06NHoPn36fCJCOl7/A4k2rzuOG364OA+kwXAOEHk4j4EDB/4gojRAjpuroxNCyC0gLi4usEaNGqNLlChxXoKuehd+bUus7Qt699BRsGvXruSrV68+Y2ZCyJ1mwYIFgWXKlJnm7e19BjemCgo1xMEgNnAjx8bGYh2fxSLyamD/zE7//v2by9PUSpyDBF2iCIURcTgnFEo8caFHTFzj448/Trx8+TLeEsZyKHe0N0x+L9eOHTsCYmJiDsr/YlYUEG56/DhuPQcct4pxpOFcSpYsmTxjxowDkk+kmSEhhJD/RKtWrerIQ/QFqXPNUS5tJ1HnYtoS6mdMnUG8diYMGzbMOH/+/CvSjlQxMyHkTvPYY49F+Pr6LhcRcQU3p4oFFRHw42aFKzexMWLECMPhcAwVAeGP/TM7zZo1my3OZTHzfLRXTMWRxuuQ9IMPPugQAXtUzq+SFMwCEnfHgcjbunVriy5dunyFygK9dzhW/A/W79iicoELQzrOQf5HIzg4OOXAgQMj5fiLIz9CCCH/DmkTYqtUqbJA6lssZmzO44ah/kVdrO2jtiEwrDSxZ8+eE1IH95X6nJ+UJHeHuLi4svJksl1u3CSIBNywViEkm5iGeAi8zz77DHPTmslNm8fMIBMzcODABrGxsevFa54PzgGuhuHC0HuHcPny5bG+3w8iYPvKOeaTtLuGXN/CS5YsmRoeHv5zUFCQeYzWykQNcXC1lw8CUMLGAw888PPZs2dbi58QQsi/pEWLFn1DQ0OPaV0LIQeBB7+2kejFQx0NPx6yV65ciY6QYdKOBEocIXcHEXgV5Ib9RW5UG25g3LAq8CTZJSjSb2jj8uXLdrlp62LfzE716tVf8vb2Nt8MtopVNZwjhkBxjlhq5JNPPjlht9ufk/PzFIF11z//deLEicjx48fPq1GjxkW83KI9dvifMOdOKxycByoXnCMqHzkfIyIiwnjxxReXZJX/ihBCMhs9e/asLA/Zb2A9VMzRlijTUBeroIPhAVuXrho6dGiCiLttXNGA3HVE4FWUG/WEiIUUFXVw1a+L7uKGljiIu7NimXr+3e7duwv17t27kRz3z3ouej5wcT4wCDsVTYMGDULP5Pvx8fH1zUwyCXv37q0+YsSI10JCQsy3eyXKPF59goThXOBC3EH04Q0vpMv5ndmyZcuTcl5Bkk4IIeRvsmbNGu9GjRrNlDbjkARdD9XafiDO2obA6tWrZ/zyyy9HpM69T8xT4gi5e4jAqywC75zcuHYVP7iJ1a9zDeCXp5gku92+LS0trUL67pkO9Lw9++yzoc2aNVsn53FJolwFUAslDOenhjXvfvrpp9+kQA6TtEzH0qVLa0dFRR2Q/ykV/wf+Hz0nHL8+SaroQ6WDtfGwTZ06dXZcvnx5CPIhhBDy10i7eE/fvn17Va5ceQfqU4kyTdtHrYdR/2rYzc3N+OCDD04bhrFI2iGud0fuPo888kiVfPnyXZUbFxNIXTewJLkEkYqJBg0aXLbZbK+JEMq0nyibPXu2e+vWrduULFnShsKHc7CKIbiIQ6FNL5zGvHnzjPSh2YpmJpkMEZ/Fq1atOrFw4cKXcNwZ/yc9L1hgYKDLj548zMmTa/GtnFs5qXTySjwhhJCbsG7duny1a9cuJfXnt9J2JKOuRe+djpDIJq46N70NMf2DBw9OTkpKwoLGldDRgLwIuauIwKtWsGBBiCEMAbpEnbq4gfVpZe7cufjg/lixTDtxdOzYsTVLly79UVBQkEOC5jnoMDNMFwf29PQ03djYWCxEGS/n1ErCmZZPPvnEt1u3bvtFwKXqUAGEKwQf5n/o/wWzVkIw2T55woQJB65evRrJJ0tCCLkxWDf1gQceKBMeHv6B1KOX0fapiLPWs4hH3YvRE6Q3bdrUEHF3QNqRSddyIiQTMHXq1OoiABxykxq4UfUGtgoG3Nh4elm9evXvcgM3ESuCfTMjnTt3vlcEnfkVCO2lUyEkya6CioLp4eHhxJp3cj4LbTZb9LUcMicizPK/++67XSpXrvwDjh3/jwo9mFZCsukf/kOJN0qUKJH4/vvvYz5eaeRHCCHkegYPHlyyevXqD3l6emK9OwN1qL48AcOoCNoN1L0Ia/vy1VdfGampqeP5AE0yFSNHjqwu4g3izryZM4oDGAQRer5+FUQg+MpNnCk/hbVo0aIyderUeQrHjmNGzx2etCTJ9ZYp/CikcFu0aGFcunTpvJxTjJxTph6+lOP736lTp/DyyLuhoaEJWDpFos0KBi5MBZ41Xufn4dNn9erVu7B58+ZM3VNJCCF3i2rVqvUoVqzYee3UQD0KV5LM9kOHaSH6tG157LHHnA6H4wO73d7QzISQzMDKlSs97hVwo+LmheGGVr9s4npCwVyupKSkQ5m5927ChAnDKlWqdFCOOU2OOQ3noAIHPXjak4enL7zyvnjx4rMJCQlvyTn5XMsh87N69eoyTZo0WRwWFmaeB87HKuzUrL15MHkiNUTwGl26dNlx9OjRHpJGCCEknaFDh7aRh+eP3Nzc0iR43Zw7tJHalqBNROcB2pNOnTo5RNjFS9vYTR7C3ZEPIZmCGTNmQCzMxY2qQgA3tPph+pTi7+/vSE5O3p9ZBd6sWbN8mjVr9mypUqVSJOg6DzyJwUWcijv4O3fu7Dx9+vQOOZ8qmb33LiPz58/vWb58+R3e3t7m+cGsgg6uGiojuHre5cqVs0+cOHH15cuXm0mYEEJyPBMmTCjZuHHjhYULF74gQbMe1c4OhNFjBz/aStS7iJO2xtizZ895h8MxWdqRYsiHkEzDsGHDWlapUuUrFXgSdV0PHvz61FK1atWk+Pj4b+RGdjN3zmRg7l1AQMAm9Mzh2K3CR8UPBB7OB6+zL1++/IycyyvX9s5aiDAN69+//8NyrnapeAztmcT/pYJOTf9XbIM0XJ+wsLBTIu5flv/TL7MOtxNCyJ0iJibmYT8/PyxFZbYXqE9Rd8KVZFc7qG0KpvksWrQIS6K8lZiYGCT1aG4zI0IyC23atOlTsmTJiyrqJOoPAk/F34ABAy4kJyevElFU6NremQsRqq9JwbuAwqeFFMcuSS6Bh8KJc2nWrJlx6tSpT+Rcsux8tK+++ur/tXceYFUcax//bnKTGKMCUqSDggiI2EAUVFQsWBARsRvEGHvFrrkSS6whRjFFo58lscdEvZZrL1eNRmNi7MZYMKAiSudwOGcP3/tfeXlWYvKlKuD7e573mdmZ2T17dmfm/c9s8w8NDf2cxBpeUK0+IAOjrCLjc4g43zOCNDxB7O7ufplEbix1TOUpXxAE4bnj9OnT5YcNG9aifPny56lvVCDo4C9Y2PEVLPSj7D9wu9LYsWNzSNztzs3NDaY+tMR/tlN4DiFRNMjBwaHo6wgwVG5UZq04gFCaOXPmbRJEH5A9kw/w/xJ4ISU1Nltvb+9D1ADVeycgZhBy48R/guG+CSzPmjULr0WZTvFSC2beqHPybN68+Q/0P/MoST1nHLKoxTnUijyE6KhsbW0xK3tv165d4enp6RaULgiC8NxAA9xXIyMjAzw9PQ+Tb8jgh+9geFKW+1P2Izxx0LlzZyUvL++UTqcrkS/GF4T/iYqKetHR0XEonD6PVmAsCNg4b9OmTXjHz2QSFuWwfklh7ty5FcPCwkbZ2dnh4YrH/gdCNFIY34PWsmVLU1JS0ldGo7HUP2hA58Jq6dKls2rUqHGTOicjziVfSsB/RseE8weBDkPnxHGkU77i6uqae+rUqZ50bkvswzOCIAh/JRggx8TE1KY+8APyFfmUpA58tcZp8B3oM7GMgfGVK1dSMjIyRmE7glAiGTNmjE3lypWnogLzbA+MhR0EAkIWBIcPH/6WRFFfahgl6oGEiIgIO3d390vUCPN4xAVjYQeRw4+5U6hMnjxZof8xhP5HBaxfFpgyZcqmFi1aZFBUwSiUX+aMjglCjkUezjOLvEKBp96T17Rp0/vUaQ2jYyLvcBIEocwzceJEi4CAgBHUHxZQP1jAVzfgM9BH4jIsfCP6SKRbWFjAlM2bNxsfPHgwhgbE8n1voeQyYsQI38LRi1qpKekxcccVHRUcYuD69evHDAZDKxIBJeZm0hUrVpSrUaOGHwmWFFpU3+NHYZHxf4Bh2dnZWTlx4kQeNc6e9D/KzKdk0tLSzPv06fOJlZWVAjGLjgnnkbJ+UeCxyMMyvvpBQu9iUlLS+EdbFARBKLu4ubnFkmC7Tf1kAfWB6iu10CdSVtErULgPhbhDuHTp0rycnJyd5D8akf+Qh9OEksvQoUObUcVeT1G18sKeJPD4kl9KSspeqtjeJaliz58/38fFxWU1RXPJiv6HVujhPyDEPRU9e/Y06vX6Pbm5uU0prUxBAtzFz89vBh7dh3DDo/w4Dk8SeDAWeZjlwzkn8atr2bLlsYyMjGiZyRMEoazSrl274STaTlWsWNGACQz2e+gLMXOH/pEFHwxlYmJijJmZmfeob2xMJg+mCSWb4cOHh1Pl3akVQ4hzZYehovMUdVJS0r9J4FlS5S4xM18TJ05sScLkHkWLvjsLw74jxP/BjBZEKu6d2LNnT37h7J0V5Zc5du7cGVyrVq0dNWrUUP8/LtdqxV3xcwtDucJlhdbLaNy48UEapTak41Qin5YWBEH4IwwYMKA8DYK7V6lS5SgJuWz2E3wLD/eLiMPv4fYVXA1xdXVV0tPTL5PAG0j9Yol8TZggPMaIESN6UmU+hEr9ayKvsNIr169f30zCqMQ8Dj5jxgw3Gonhm4FFjRMhjP8PQogbjMoaNGiQl5+ffwvfnC1JIvWvBMJ1/fr1veiYZNH/NqLj+v8EnnYEC0Ho4eGRMXTo0C10nDwKNysIglCqeffdd61iYmK62NnZ4YnZdPgESlYNQg4h/AX6Q+Qhjv4Rt/Vs3br1tl6v/5DEXWXqY+XSrFDyIYEXQ079BCoyCyIY4uzwYUjDCCYxMXET1ispNG/evIeDg8NpnmHkfeVQazY2NqZFixYlUwOdi5f7UlqZhf6jfXR09Cwapd5FBwVx92sCD8b37BV2dEr9+vWVWbNmzSCRV+PRVgVBEEonH374oU27du262tvb78fDeOjz4Oeoj1T9A/o/9oGYMOAZPdx7N2/evFxFUT7PzMwMxrYEoVRAAm8AOfVvKKpWZq7gCLUiD2mBgYHKgwcPSozAw6tRPDw8ZlJjNXJj5f3nfWZDvpeXl0mn031HVrUkzUL+XWCGsl+/fpvMzc0fFBd3fG6RBqPi6k3FPKLF02TUEZqaNWv2cOnSpZMhGNWNCoIglDISEhIso6Kieri7u++ys7NT+zjca4d+EFc3EPIgGOl8RYPKKtOnT1cMBsMhvV7f9dHWBKGUMJSginyWxRGMkosMlZwv77Vv317Jzs4uMQJv0aJFQVWrVl2vHXnxtDriECm8/2iwNHrLJaGyR135OeHatWtt69Wrt4uOUQ6OCws9ynrsGCGOfM5DiOOG0WujRo1Orl69ejAJxjLzShlBEJ4PlixZUr5nz57datSosZfvxYbPYL/Aoo6KFok+GB5Q69atm5Kbm3uDBF7HR1sThFIE6buR5OAvcKWGUXKRaQVSdHS0QqOYEiPwRo8e/Y6lpeUtiqr7iJDfMo649r+gsZ4/f/57o9E4hpafK77++usBISEhJ11cXAw4JtbW1uoxwhPFlF10rGB87HDesYzOj9aDON7/+eeftyORJ0/WCoJQKli4cOErvXr1CqFB7lH4APRr6NPgL2AQeljGxAD6PuS7urqqfaCXlxfetpDx8OHD100mU5m+pUcoowwbNgzvPLumFUNa0wq8uLg4Izn4jZReImjVqtVGMzMzBQ1TK+pY5GHfEUcapuWJVbT/z93nuOg/v3T58uU3qlWrlsgjVczMsYDDMcKxQjpCpOP4cZ3ApVtbW9v8tm3bfrNr1656tL0S9RUTQRCE4sTHx7/avXv3uiTULpOfKHoVCvsLFnoc0ipqiDz4i/Pnz/+UkZExjfyGHfV5ZfKBPKGMM2jQoDgKksjUCl7cUNnRMBAuW7Ysmyr7Ckp/puC7sx07dqzh4eGxl7/WAENDRQhBwqMzCBo06sWLF2Oq/WNqqM/l00/0v80OHDjQrXbt2rkk7lRRjGPElySwTMXUOC/z8USI4+zg4JAbGRl5+dChQ7VoezKTJwhCiWTjxo0vd+nSJZj6uytWVlbq143Q3/ElWR7IIuR+DrN46OdQ5rvvvruTk5Ozkvo5K+nrhFJL//7951KQRqZW8uLGAg8NYceOHXdJ4L1P6c8UEnjlqlatOpmEyhWtMMH9ZAixv0jjhot04gzZIKz/vEIdlcX27dvDGzVq9BMdJ1XksUDmTk/b8SGf05Bvbm6uuLi4GNu3b3/0xIkTLR5tVRAEoWTRu3fvMD8/v6Pos8gfKJRUNGjlfg1pWn+B10Mh3Ldvn8FoNG7My8vzomVBKL306dMngSp8HkXVyq01VH40BsyEITxy5Mg1RVHeprxnCgm8CrRPh8qXL59Fi+olRoQ8W8cNli/VRkREmGg0No8ETjWs/zxDx+Dljz/+OMbDw+PbypUrK+jwuNPjOIs6pLHRqvyEreLk5KTExMTsOXfuXGd1o4IgCCWEN998s2OdOnX+TT4inwewPGjV9m0c58uyKLd06VJyccrnBoOhtboxQSjNdO7c+SNy6uoIp7ihUcDhQ+Dh6aOTJ09+n5+fH0t5zwwSKP8kgedM+/UjCTj1u7NooJRV1Egh9BDHpVqMynbu3KnQfj/Xs3da6BiWW7ly5dgGDRqcpXOrijxtRwdDmtZ4FhdlMCPq7e1tDA8P33/+/PkuhZsVBEF4psTGxgZWr159E77GwxMUeKiM+zb0YejPsKw18hXKhAkTIO5OZGVlRZlMplcLNykIpZfWrVt/TMFjwo5NK/AglM6cOXNCr9e/SXnPjJ9++slyypQp3aihJtOiKuJ4P7EM096XB7FHDTbVaDRG07JQCIk81+nTp0+jzi+xUqVKCh1PXMooGtXieHKHiJCPKYfoFB0dHfUxMTFf3bp1qxVEo7phQRCEpwzuuRs5cqRrSEjI/5JPUO8px1OzfBUHPkwr8NDXIQ356Ms6dOiQd+fOnR9xGw+Z06OtCkIpJi4u7mVqEMtQ6WnxsWlsLMO4ceDy3Llz5w6RUOqJdZ8VK1eurNmzZ8/ttI/ZPEJDiEaKsPhDAzSiM2VmZu6nRitT7sVITk72Hzdu3Idubm7Z1Okp+IIFjh1lqTO2EM+YrcMyH1Ntx4jy/v7+2XQ+zpw/f74FHeNK6oYFQRCeEiTuXqRBvwv1RW9Xq1btDvsv9FUs4LjfQh5CfJMcZZBfr149Y0pKSlJ2dnYc9WEO6kYFobQzZsyYqoGBgRsoWuTE2TiNnTpeq3HhwoXdBoMhgtKfGTExMY0DAgJyqKEq3GApWTVehsjDTBNEy759+5SCgoKJ1HCrqhsQHoNGrQGDBg06bG1trcMxxfGDcEOnSNmqQdxj1Is8rchDGglBhUbK+l69ep26detWGB1reRmyIAhPjfnz59u0adOmLw1GC6h/KqAktf+CoY9CX4U0+DD2Fxi8wk/Y29sr5NdS8QJ/6rtexvYEoUwwYMCAkLp16+7RCronCTw0FHzH9fLly/8mgdeW0p8ZjRo1alq1atWi/YNxA0aIfYcAwTIab1JSkjE/Pz+AloVf4NKlS/ZvvPHGLW9vbwNeoYJjiI4RRtnq+UfHiHSEWMYMH443RsCY5atTp44pKirq4pkzZ954tFVBEIS/l7i4uH+GhYX1rVmzZib6Iu1AlMUcjPst9Fncb+Ehs+PHjxsVRflM3ZgglCV69Ojxuo+Pzwk0Blr8mcGhIw+NxsHBwXT16tUvSeC1pLxnQmxsrBXRD6MvNFg0UuwjDI2XihQJDuz3zJkzdUaj8Xu9Xu/7aAvCk6CR64s3b960a9269UFra2uFL8tihAuxDMPxRj3AcWbxx3UDHSbOCYnDvHbt2n1DneboR1sWBEH4eygUd5OpH7pVsWJF9YoO91WUXdRfcd+FPPgKXN1xdHQ0HTp0SNHpdAtyc3NdHm1REMoQERERYz08PM7BUaPiU1KRYRkNA3kwzJpdv359s8lkao51nwUjRoyob2Zm9iGLOTYWGQghNGhkpu77uXPn8N6+WBIwtlhf+HVSUlKahoSEfNmkSRP1yVpc0sBxpSy1DrC4QxydJfJgENVII2Go1K1bN6dz584nd+zYMZSOuzx4IQjC30KrVq1mu7q6/kBRA/olNhZylF7UdyEdwg55uOXk6NGjJkVRPsbVHQxwsT1BKFOEh4dPc3d3v0LRnwk8FndoGIh7enqabt269QUJpmf2gtvhw4d3ITHxHfYL+6vdZ8T5CU/MQEGcXLt27QcaobnLvRW/DQiytLS0zjQq3kHCTcFLQnHutWIOy1T0Z3UEIZYL72vJos73m61btw6j+mKvblwQBOEvYNKkSdYBAQHzbW1tr9OAPx/9D/sDGJbZb2FQyld6aFXVLxw4cCCb2EDirin1T6892qoglDEiIyOn1ahR4ypF1cbAjYCXecYGcR8fH1NSUtI2ahChWPdZEBUVhXfZqS83xr5CVEB08H5DiCDE/WFDhgxRqBGfl1mk3wedX+v09PSedKyPVq9e3aAVdqgPXCe0hnyIa5TBJui8KF5eXrqIiIjv16xZMzEzM9Pz0dYFQRD+OBMmTHBt1qzZeAcHhxQrKysD+n709zzQhFEx1ZCH/gp5NFhV03bu3PnQaDTuMRgMzamvk6f+hbJL9+7dx5NwO0/Rnwk8NAqtwPP19YXA20eNoivWfdq8//77zi1btpzHwo6S1P3CJVlu5Egr/NqCafv27Zm0r7tl9u73Q8fNLjU1NTosLOyMk5NTNo4zCz0cexxvpHGd4fOBc4EQyzS6VmDt2rW7vHz58rdpm97qxgVBEP4AM2bMcCFxN9LCwuIHEndG9ld8zzBM20dhGXHuq8gnZOXk5BwgcRdJ/dErlC8IZZchQ4b0q1ev3tcQceyk2WlzHE4bU9z29vams2fPfksNY7i68lPmdaJWrVpHeYSGkPeTQ6RB6MGOHz9+iUZqk0jg/RPrC78POm7md+/efTM4OPg4HfdMXNrgugHhT0XUZdzviDjSOZ87VZSrVq2a0qFDhyvvvvvuLJ1O56puXBAE4XdAA/wqXbp0Ge7s7HyKr9Sgn0GcJyG4L4LxgJ/7pI0bN+ZnZWUdI//Vn9IFoewzZcqUloGBgXspqt5rRaFqLJiQhgYER40p7vHjx9+h0c97lPdUGT58eCUfH5+l1ICzaVHdN63Aw37C+Anavn37KhkZGbuoMfuQUPkHtiH8MVJTU98IDQ09TB1rNtUD9ZN2EPs8W4dzwMbCDiF3urgnz8XFxRQUFHR10qRJM7Ozs+1EdAuC8FtA/z179myLVq1aDXR3dz+O/h3+iPt87meoqGr44hL6IpQr9A/KwoULlZs3b14ScSc8VyQkJNh36tRpDYm4x75Fq3XaMDQgOHUHBwdl27Ztm6nRvYT1nwZxcXEv9OjRoxcJhRM8c8T7hTiMZx85XL16dT415lUUF/4Cbt++3btly5aH69WrV/TxblwKwTnAAADiH3Gt6Ma5gGEZoZOTk0Ii797AgQMXpKen48EXeXJNEIRfhMVdVFTUUGtr60uYlYMPQJ/DfQt8E4c86MTVBgoVDEg/+OADY1ZWVhr5gw7qRgXheQENKCYmBt+iNZKpjYQNDQgh0tGA0LhodKQ0atTo7OnTp9+kdf/2e9vwfcH+/ftXrV279hESFDk8WsP+cKMuvr/Yz0OHDp3Ny8sbWbgZ4U+Cc52YmBjRrVu3r/39/YvOgZWVlVo/+HKIVuAhxDLOC4w6X8XR0dFIIjGHBPsW2l4wti0IgvAk8KWlJk2avO3h4XG3QoUKRgwqIe5Y4HHfT0XVASfimLlDv0N9kjJr1ixjbm7uQxJ3/mRyz53w/DF06NAECvLI1IaBxoNREuLssGFI9/Lywmescvv06fPdZ599Fn7r1i0LdSN/A9u2bSs/aNCghoGBgV/Y2to+oMarfmGBsorEA/YTDR1puBSIeGhoqOnu3buLdDqdm7oh4S+BOsiKSUlJrSIjI7/19fXNwfFGZwpxh/OBzpXrDHe82k648NwplSpVUqpXr54eERGx98aNG8/0u8aCIJRMBgwY0LRhw4YryN/co75Dfc8d+hMY9zOcRsVVgQd/gBD34s2YMUO5f//+N9RvBZK9+mirgvCcQQJvLDWMq3DAaCxoJCzwsFzomIsctpubm+Lt7Z0bEhLyzahRo2bOmTOn4ZIlS8o/2tqfZ+7cuRXHjRtXr1evXiNr1669y87OLs3c3NxAWeq+wLAv3JgRYhlCA/uHURs1aDxc8dQuIz8v0DGtgJch9+7dex/VgTQce3zCjusNQhZ02jjOGb5vS5tQBwqenp5K1apVMzp06HDg+PHjcl+MIAhFREVFdSVxt6VGjRop6D8wmOQ+RSvutIbLs+hncB/2ggULlNTU1AM5OTmR4geE55oxY8a0oMaxgT8oj0bCzpmyi4yElhqiIVG+Qg1JcXJyuu7n57eje/fuSyZNmrRw2rRp75LAmv3OO+/MnDx58gwIwP79+88mQTCPLP71119f0Ldv3wU0Ont/2LBhCyj/3djY2Hlkc4YPHz47PDx8XkBAwEfk/LfQ7+MLGzksEBByY+Z9RGPmqXmkYYbx8OHDP+r1+r60r8LfAHWY/9DpdK2oE/7c2to6lc6HgnPBQpuKqOeCzxHOF0KkY8bP1tZWjUPwWVhYZNasWfPEli1bRqanp1fG9gVBeD5ZsmTJS23bth1UvXr1g7SYVqVKFfW1V+hL0M/zgB79CfctWMbgHrN2FStWVObPn4+Zu69okD+QTN5zJzzfLF++3DooKOhfJNaK7qViwYQ4hzB+WSTyURZWrVo1EzlpE424jE2bNtW1aNEii8J0Wk4j8Zdeu3btTG9v7xwqk0dhPoX5lGagvPwGDRrk+fv759SvXz/L19c3y8fHJ9fFxSUf91tQw8V71NTf4/3iho04GjdGdhB5WIYNGjRI/fwMNWw/Whb+RmiE3Gr06NFrPT091Y98o07A+ByxyOO6hJk7fkADaRB7mP2zt7fXtWnT5tqiRYv+lZGRUf3R1gVBeJ6Ii4uziYiI6O/s7HzOzMxMh4kEiDf0HQjRf/DgntMg+ND3kB/ApxUV6kOMmZmZuCw7jAai8komQQAxMTFvNGrUKJsdMRoSjJ02GhsVK3LY7LRhSOc8rXH6bzXtuvwbWuNGjnwIPu2Tm1jfzc3NcPHixZ8MBkMnXEqkNOFv5s6dO82nTZu2ic6Njs6NwvdBcv1hsccPY2jPLS/jXNLoW7GwsMiYN2/eHL1e76NuXBCE5wISd8716tUbQgO+G9Q36Lm/pyzVWMwhjhD9DOe5uroiVFatWpWdnJx8lsTdEDIXShMEAezfv79dly5djmFWBVPiDg4OqvOFc4YDRoPD8p8x+plfNW1ZFgHFjRs29gshGjtEH4UYvWVkZ2e/T43bnfKEp8TDhw9933///d2enp4ZdO7Ut8tz/aFsCG81xPnTij8sowzOH84rXm2AGeBJkyZ9kpKS4qFuXBCEMk18fLxDq1atxjs7O9+G/0GfgH5CK/DQX8AP8UQDDGWRTnFlx44dmdQPnaS+vz+Z3OohCFqoUdjMnj27b7ly5fLIFDhdFlHat4P/mmmFGBsa6281bONJ6VpDg8ZLc1GWhSc6guDgYD2Jggv0PywpT3jK0HGvNGvWrD1WVlZpFStWxCt31PvyMHOH84YiWOaOG/WLRR4McZRDeXNz89z+/ftv//HHH6sUFBS8oP6AIAhljri4OHMvL69ZNjY2iejP0T9wP49+QtvvI0QZ7UwefNXnn3+uMxqN/6U+KObRVgVB+BlZWVm1wsPDv6lTp04uZlO4QVHWY6OpXzJujMXtSWX/iGFbvB+Y8cFMI5Zp5GfS6XR4S/kIEgR/2dO8wu+Djv2Ly5cvX031J8vOzq7oxdkYdUPQ4fyxmMMyd+BcDlZ4iVepVauWfsiQIVd27dplR+mCIJRBGjduvMzJyekO+nIe7EHkoY+AaZcRp1VUwzLu5923b59C4u4rsjeo/5EvFgnCL0EN5KW7d+9W69Wr1yUXFxf1xccwfrACxk4ahjibtvH9GdNus7ix2ETj5ku1Pj4+pOtMyQaD4QPMIkkjf7bQObD+8ssvZ1WrVk198II75+L3cCKNR+tIh0H0cZzOLx6w0bdt2/b6nDlzOtN5lXsqBaGM0KVLFwc3N7ePrK2tf6J+wMj9BAZ9MCxzGvcVeItDYX+h4GnZw4cPGxVF2UN9f2fqdyo+2rIgCL8IOdIXHjx40LZjx47/9ff3V3CfAyWroyV2ztz4ijdClGNDWa3z/i3GwrH49mGcjhBT8/g9vNA4IyMDbyl/T15qXHKg8+G0d+/e2KCgoDR7e3sjX0rnjlp7nhEWrys4v4VP2+JdeUpISMjF2bNnT05PT5dzLAilnJEjR9bx9fX9wMbGJoUGgfnoByhZ7Q9Y4HH/wDP9WEYZ+CPqU5QjR46kk7jbQOKuJfksc3XDgiD8/5CDfjUrK6vFzJkzP2vUqFEukuB0ubGxo4axuNOm/VHTbutJht/HfuAG/qVLl1LbNlzNzs5+i/bX+9GeCyUFOif2165dG+Tj45NI4k2PjhkGsccjdD6viGMVxBHyjDGXx8idBhs/jBo1Kv7MmTPeGITgNwRBKF20aNGiee3atZebmZkl80Bd+4Q9losLPBiWkYfvWZ86dSqR+pdPyALIXnu0ZUEQfjO41EmNp8GBAwdm9+vX7wi+XIFpcb6fCo2NGyOLPo7DuGFq0/6o8W/hxbh9+/ZVbt26lUL79qVOpxtEoVPhLgslDDo3FakzHti+ffuvra2ts+n84TNl6nur+NyijrDAg/FDGUjjWT2Ux/sQSeQlUl38ePfu3U2xbfyGIAglG/iSDRs2vNq7d+9e1L63ULu+Bz/C7R7tnNs6+xHkscBjIdi0aVPl/PnzN6ntf5yTk+MnAz1B+JNQI7JKS0uL3L9//8LY2NgTwcHBD3B/FGWpoyp21ohzI/0zxmKOl6tUqaK0adNGGTlypHLt2rXr6enpOwwGw4zc3Nxg2rdyVEYo4fz00099o6Oj91tYWGShrqDD5nso0dHzvZXajp6N6xgu2ZJINPn6+maGhIRsSkhI6JmamupIZQRBKKFA2I0fP96rcePGQ9zc3L6jtq9+8xziDf0Az+ij3SPkNzZgGQ/6Uf+gULry+uuvK1lZWT9Sv78oPz8/SN24IAh/HSSooshZLzl06NA+argnly1bdiU+Pv7mv/71r5/GjBmTPHXq1CKLi4tLfvvtt++Q3Z02bZpqM2bMeKLNnDnzHozK3ps9e/bdhQsXJi9dujRx06ZN144dO3b23r17B2nU9p+HDx/+ixp3/cLdEUoRKSkpUXPnzt1ta2ubjssslKR26OjEEYeof9IAAWnIgzOA2MMMoKOjo6lu3bpnPvjggwkk8rwwQ0BlBUEoQaxatcqyX79+If7+/guoDesg5jBY4zaP2TmEMO2gHulo5yzwyHfok5KSruh0ull6vb4ulREE4e8Cl8cgtCh8kwz3wM0mi1cU5T02Wl5AhpcOLyJbXGh40pVNu/whG6272GAwvEcNeTr9xgiKh1G6DTnxfxb+vFBKwch78+bN22rUqJGGr45gFI8On2fzihvEHZt2hhizebgP08/PL6dLly5r161b50H1o7wIPUEoGdAA36pXr17R1Nb3V65cuYDEXQElq+0YIV+excANfQBfksWgD2IPIS0rX375ZQ75hAvUdwwjP+CAbQuCIAglEHTSe/fu/V8fH587VapUMeJyP4QbOnStmOMOnx0CG4/+UQ5xXL4JCQn5YcWKFaG3bt2yEJEnCM+W4cOHv+Lv7z+XBmE3+B5btG/cQ03Z6mVZDOqQhmVu97hdA+IOhn5h//79+STuvsrLy2tH/cYr6sYFQRCEkgkJsBeos654+fLl0REREd9Wq1ZN/eIFRvEs7NDBwzEUjuIfcwAIaTNFzgHfsPX29s4PCAh4MHjw4AQa8ddRf0gQhKdKXFzcC7169bJr2LDhfnt7+wfUXg1or2jPaLs8U4/77CDytAM43F/Ly5ihP3/+vJH6ia06na419Rkvqz8gCIIglHyo07ZKTU3tQqP9rSTyim62ZtMKPHT6bLSqGrKzQJzKKXgYx87OLoUcxfF33313gPojgiA8FfAwRWhoaAgN1E5QW87GDBzaJg/OuO2iTfMgDW1b+xlMiDwarCkPHz40krB7Lzk52Z9EnrwGRRAEobRBIs+COvKQjRs3ftS4cWO8gkfBPTlwAnypRuskaBX15muESMesAMojD4IPcRsbm7zAwMAL48aNm3vjxg1b+o0X1R8TBOFvYdasWZZRUVH9PDw8jlPbNVC7LXrLAgQcvywfgzgzMzO1XWMZ77vk++8wa9evXz9ckr2Xk5OD11+5y2VZQRCEUgwJsPLUkfseOHBgMnXySeQEjJiRQ6fPs3dUTDUsI4SQY6EHg3OA82BBSOXgYO60bdt2yQ8//FBTHIUg/PVQ2/1HbGysR7169SaRUDtV2O7Udsr33mEZxgMxpKGdYhAH4Yc0iMBFixblGI3GU9RW+9F2zbB9QRAEoZQDR0Ed+2sXLlwYR6P4b6jD12FGDk4Cwo0vx8KQxrN6PIvHs3soizhmBTA74ObmljdgwICP9+7d2zI9Pb0yfksQhD/P3LlzKw4ePLh5s2bN3nN0dLyGWTu0O8oqaovadgtBhzTEIfaqVKmixvFi8/Xr12cqirKXBF4fShMEQRDKImlpaf2JQ2ZmZulwAizk4BR4RgDLGP1rlyHoeJYAhmUbGxvVyfj5+X05b9683snJyS7qjwiC8IcZMmSIbcOGDbuSsPs3tcNMvl+WZ+VY6KFdIkQayiCuveeuZcuWpv3796eSuNtmMBgiKU0QBEEoy1BnH0qj+q3Vq1e/V6lSJYOdnR3eZl/kGBBncYc4Xw6CmNPOIkDwwfDOvPbt258dP3583KFDh7yuXr0ql2wF4XeyYsWKcoMHD64WEBAw0tXV9TxeU8TtkAdWiEPYcTpun0AIw4ALeVjvrbfe0l+/fv2OyWT6LDc3txHlC4IgCM8D1PG7b968Od7X1zfRzMxM/bwRRv88KwAHwjN2WOYZAqTjUpC2HG7shsirUaNGTqtWrc7ExcU1uHHjhrk8gCEI/z+4hYLaTHkfH59G1I6+MDc3z8OtESzi0NZ4hh3312GQpc1HG2Whh7T58+fn0SDuKrXxaWR2+A1BEAThOQFOhaw8jfJbDx069ET9+vUVPFgBR4H7doqLODgROBkss/FDF7z82muvKbVr1zYGBwfnjBs3bvb+/ftrUrogCL9CQkKCJQ2MRpNo+4EGUuoXaLhdod3xMs+kI43bI9ost1USiKZdu3aZcL/dw4cP8S3xlx79giAIgvDcQSP8V8kROK9du3aeh4dHGjkNPGFb9BoGOBS+eRszB1oHw0/rIZ1f12BmZqZYW1srvr6+qS1atPhq4sSJseoPCYLwGCNGjKjStm3b1z09PY84Ojrepban1wo7bn+cxg9VYBltDXGIPjc3N1NMTIzpzp07pnv37s3MyclxpDZdjvIFQRCE5x0Sei4HDhwYEh0dfcbZ2TkfD1GQ0ylyLnAoEHSIw6lA9MH5YJkN6ZhVgFG+QuVzAwMDf3znnXfWfvrppyGpqamVqJwgPPcMHTq0VVBQ0EcODg6XaJCUSwMk9ZOClKWKO7QtHkDBtIIPbREzd1jGpVpqX0Yik9rwSAzWHv2CIAiCIBRCDsImOTm5S3x8/GZra+v7EGq4ZAuHwg4GxdgRwdlgVgHlsMwh0vnTSPb29oq/v392kyZNDkZGRs7dvn17fSojCM8lw4cPr9SiRYsxXl5e/7G0tLyL9gMBh7aF9oPZcAyUuI0hnQdWMLRFtCvE27RpY9q7d2+6oij/pbb7RlZWlg2lC4IgCMLPwaUdchbBy5cvj/fz87tkZ2enztZB6MHRwPkghAPiS7dwQnBSSNfOOsARIQ/l8GSfubn53Z49e65dv359ZHp6usWjXxSEss/q1atfGzx4sL+vr+9MaiN4r10eCzu0E7QnrXHb4jKIawdSU6dOVXJycq6SuFtGYYTcbycIgiD8JnQ6ndulS5dGxMTEHKhTp04WORoFl2159gCOh8Uc3w8ER8QOi50W0lEODgtP2rq6uhojIiJODicWLFgQkJSUVB6/JwhllejoaM+QkJBetWrVWl25cuU8tA0MlGBoPzC0FQyiOA7D7B6LO7QxzO5VqlRJWbhwodFgMBzNy8ubpNfr6z76FUEQBEH4HeTn5zdZtGjRFg8Pj0QLC4s8iDXc/4N7fyhbNcR5doGdE4zz2eDYbG1tEVfs7e0ftm7d+osxY8Z0OXjwIL6LKR89F8oM58+ffzk+Pt6BhF0jb2/v90m4XWGxhnYAIccDJLQdrbDj2xsQxzoQdhQqzZs31ycnJ9+ntnLg9u3b7Sis+OjXBEEQBOEPQI6kyunTp+MGDBhw1tLSMpuSim4IhyPCTAMvs5NC/EnGl3ghEp2dneG0DH369Pnf2NjYNidPnrSVS01CaSYuLu4FfGZs6NCh9dq1aze1atWqydQ+DKjz3DZY4LHIg0HkIWQRCMP7JRHiizMTJ07MocHW1ZycnGXUHuWzgIIgCMJfBzmXhn379t1esWLF/GrVqil8mQnvzYPjYmfFsw+0SpFTQxzOC8azFrhsixD55ubmGWFhYTsWL15c88aNG/KKB6HUQYOTf9BAxSowMHAwibPz3CZ4EIQQxm0AM3PIRzmkQ9Ahj8vSJpXo6Ghl//79Bp1Od5iEnXxLVhAEQfjrwewaZg9OnTo1vmPHjjnOzs5FswxwWHypFs6JRR1Cjhc6rSLjJwZhtra2Rk9Pz9zmzZsn9urV60PCh8oIQqkAM3eRkZG9mzRpstfJyekhibR8iDXUccoumplDiHYA41k8xJEOw314CHGZdvDgwcq9e/fyFUV5Oy8vz5Pa3qvqjwmCIAjC3wE5Gpv09PSoUaNGHbKxsckiUafgJnBcdi28X0h1ZiTsCljcweDIMGMBp8Yzf+zckE7bwNc0jJSXQmnfkcOcuWfPnlr4TUEoiUyZMsUpKCioH0UP4UsUZFlUf4u+7Yx6jYEPtwPUdRiWEaIcBkVoDxgsIb1169amrVu3ZlMbO20wGMKzs7Pt5NYFQRAE4alAIq8iHsA4c+bM1OHDh1+sUqWK+pQtnBWyYezIENc6OJ7VgCjEMi7VIkQaBB/yIfbq1at3q2vXrrumTp06d8uWLfbk5P5JZQThmTNr1izL6OjoPsHBwWvc3NzOUR02oB7zgAX13dLSsqjuF28L2oEO6jvWxYvFJ06cqDx48OCyoijxVN+bkclT5oIgCMLThZwPvmfrfOPGjR6LFy9eQw4qiZJVJwYHhhAiDo4MDkwr8pCvvTSFPJRDOjs/OD4zM7N8e3v7e+7u7p+MHj16VGJioszoCc+MOXPmmLVq1Sra2dn5vcqVK5+i+pmNGTqu7yzeuF7DkM5iDnUey3hwAnloH7gc27hxY9PZs2cf3rlzZ43RaOxNAygv/J4gCIIgPFPS09P9vv/++xl4b56trW0u7iXCjB47PjgzODjEYRB87Bjh/PjGcjhINl6PhJ5CjlQJDg6+OXXq1E8+/fTTjl999VUVyheEp0J8fHzlsWPHBoWFhU12dXU9S3Uyh+prAQs3rseow/zgEK1WNEOHOIs7lEM+yuFF4osWLcohYfd1Tk5OfH5+vh8Nml7AbwqCIAhCiYAck0VycnLo+vXr11haWl4n56azsbFRX6kCZwYnCFGnvScJwo5vLEc+nCAbz36gLPIw0+Hl5WVs0KDBmbZt28ZOmTKl5blz55xMJtMr6g4Iwl/Mxo0bX2zVqpWPu7v7G05OTl9YWVkZMeDQ1lMqphoLOdRXxHnGDvUYIeovBjZcr1u0aGG6efPmXaq/XxiNxl4UyutPBEEQhJJNSkrK5KFDh56ws7NLJXGnkEBTKFmdvahcubLq7CDukMYGx8fGjpGFIIcwPJxRs2ZNfWho6K133nln6o4dO1ocO3bMRb6KIfwV4InYZcuWVVy0aFHViIiIhra2tmuo/t6lrMfqKOqkNs6GclwWy6jzuCSLNIorVH+Vo0eP5uTm5t4gUZeg0+mqUp4gCIIglA7IeTW8cuXKR3Xr1n1IIi+/fPnyCmY2eNYDDhCzdzB2luwgiztLLo803LeEdQpn9ExNmjTJ7tix45eDBw9uuXPnzkoFBQUv4f5AWkcQfjOoMytWrChHos4xICCgM9Wtfzs7O+v4fjmuozAq/li95DqNmWaut5itw5PlnGdpaamMGDHCmJGRkZmdnX3UYDBEULogCIIglC7IYb5IVk6v19dcvnz5WRsbm1zMvuHpQszi8SUtNu2s3ZOM7+FDHCEu9WIW0MLCQnF1ddU3atTowaRJk77fs2dP54MHD1pRGUH4TUDcffjhhxadOnWaYmtre4bqU7a5ubmesoq+2sKGZRZ6WrEHMcdx1EvM3CGOuk5100SDHSMNeu7Qbw2g0IVCeSpcEARBKL2QI8MLkt2SkpKGjRw58iQ5QvVyLQs8CDu+hMViDvEnGRwqr8eCD+tD7Dk5ORnr1q2b1759+1thYWG7KRw2efJkByojCL9It27dnDp37jwlJCTkhJeX1z2qS3mog1yv+EnwJwk9Nh6YIB1lMZOHeI0aNUwLFy40KYryvcFgmEbtoEZaWpo5tYkXKV8QBEEQSj/k3KqQBXz11VcT+/Xr962joyPenae+P0/rKAtn8vCS5AKsxsbCDs4T5eB8EcelML6hnUUfbTOLHPPVhg0b7p4xY8bylStXRpw5c8aa8gRB5c0332zp7e09n+rSAbIbVN/0qEMQdKhrqGNcJ6n4Y8b1VZuGdbmO4unYadOmKSkpKflU5z/KyMhoR6LOmfIEQRAEoWxCDs/BYDB0PHjw4OjIyMhLJNDykAzBBgcJwcavmoDxbAgLODhcOGGkYbaEnTGsUByq66EsOVqDn59femho6LGoqKhVsbGxgzds2OCN/RCeL+Li4sr379+/ZqdOnQYFBwfHe3p67rewsLiDOoQ6gxB1j4qq9Q+G+oQQaTDkoyziyMOlWNRPHnTg3lD6DeXChQsPqZ4fyM/PH63X630oLp8ZEwRBEMo+BQUF/4DTS0tLe2Pt2rVLunbt+i2JNiOcLD7ZBMcJkQaHyZ9wotWKnCvycc8Tz9ix8INxWa0hHbOF9evXvzhgwIDlCQkJww8fPhx4//79ipQvlGHWrVvn2q9fv44+Pj4TbWxsVpAwu0D1IReiTDsgoKJF9QvGs3Eogwd6UDcR5zws8+ADcapXpv3796fm5ub+Jzs7e2JGRkYY1XN5slsQBEF4PiGhV5WEXv9Vq1ZtDQkJSbSyssqHqOPZEjhffhrR1tZWNRZ2cLQc1zpnGMrD8WodMW549/X1NYaGhqb17dt3w9ixY4dOnDix9aRJk7xPnDhRicoIZYDRo0e/SufVfdSoUe3Dw8Nn1K5d+5idnV0mZokpWzXUKzZtGj/VjVsHYFwPLSws1DKoV6h3qFMo26VLF+PKlStzMzMzd1Fdfs9gMLSicoIgCIIggIKCAtdr167NSkhI2F+/fv3b5EB1uBTL4k57qQyiDgbxxssoo52NKW6Y9UMZ5KMcHDQ5agOJyQuOjo4fkaPu9c477wR9/fXXPuSsrWh/5CnHUsSGDRtenTlzpkNYWJivk5NTOImvuXSeb9J5zkMd4nqBkOsBL8Mg2jgP6XyJFnEbGxs1D/UMog71hwYJyvLlyzPS09MvkrDbQvXFU+qMIAiCIDwBcpD4vq1ZSkrKW0uWLDlZp06dVHKyRnKs6usqMJuCWTh2vHzPFAz5cLxsWGaHzTN4COHsIRwRRz4cOW1TadGihbFDhw7Gfv36/XfChAlDZ8+eXYscuPXOnTtfwX7R+kIJAu+so3NkQaLObsaMGVUHDhzYrH379jNq1qx5is6nKuogyLT1glYrqiscL258Xx3qFs/eYTswGlCgnihUN3OJu2RbjUZjV1pPEARBEITfgslksklOTh4UHx+faWlpaeTLa3DcCGHswCHiYFonzsbOnUWdNo/XoXQISHyCSiEHr1hbWyt2dnbpPj4++wYPHtx827Ztci9VCaN58+atHR0dl1C9uFquXDkjLqdiFg7nlLKLzjviXD9QV7SGfC4PQ/3A7QG8PsQeQtS9kJAQEwl+5c6dO0p2dvYBnU7XhsoJgiAIgvB7KCgoeIGsQl5enmd6evrkzZs3/+Dv76/A2cIROzg4qA6dihY9iFHcebODZ0M61sdlNu0lX1zqxT1WyON1ybkbSejlBAQEJL/xxhuX4+Li/nf+/PldFi9ebEvrCE+ZhIQE+0mTJnWPior6PDAw8BKd/zsk9jPonOkpVHDOcO5QJ3B+If5pNdW0wp7PLy+zYQCAPMQ5H/WhVq1apj179pgSExNT9Xr9v2ng0YDMgepmOSojCIIgCMIfAUKPHKodhfXv3r07avfu3Qc8PT2N5IzVy7YQanDgiLPRakUGZ41ZGjh8FgGcx+V5FqfwMpy6DOf+6quvKjArKyuDvb39fWdnZwiLYxTu9vHxWdqpU6cB06dPr7Vx48aXaX3hLyQ6OrpcUFBQTTrXA+h4L69SpcoRW1vbKzY2NumOjo5GnHMWcTiHWsHOAo1n7Tjk/CfFsY720j39runUqVOmn3766TTVv/FkDakO4j67l8nkkr0gCIIg/FWQY7UlR9uErP+xY8c+adeuXaKrq2s+Pn/GN8nD4Kw1zr+AlgtYxPGDGdo4Cz+2wvXUdM6jNHyBAzNFCq2XX6lSpfvVq1c/1759+12DBw9evWDBgkVLliwZuGLFiqA1a9bIp9J+I3TMXsLx+vDDD+vOmjWr3TCiY8eO79auXXsNibldJLi+p2IP6BwY+Pyw8fmBQZixOKPyagjRxyHyUAdgWmGIdTkfl2RxKfabb77JwdcndDrdAIPBEEL1Tb6IIgiCIAh/N+RwX9Hr9bUh9K5cuTKnc+fO+8hZ5yKLnTicN0QfP4hReH9WARw5iwKUQ4hLeiiDdWCI8zLytSHHsS62jY/IOzs7Gzw9PTO8vLzO+vj4bKlXr15CUFDQtPDw8PG4rLhs2bIach/fIzD7NX/+/NcGDhwY1KZNm0F16tSZScdsMR2/DSTW99nb21+wsrJ6SOdEISGmCmoYH3ut4TywacU6zg3ON2bkkMaGcw9xhzIIUabQFBLpCtWlnLy8vP25ublTqH51p32Vy7CCIAiC8CwgJ2xFTjnswYMHCZ988smWFi1a3CbBlWdmZqbel0VFil5UizgMMza4bw8zNiwWkK4VD1xWG9em8bbZIPYgIGCIW1hY5FetWvVB06ZNT/Xs2XPRtGnTRiUkJERu2LChwZYtW+zxWo+4uLgXaN0yCYQc/iMJW6vt27e7bNq0yXfFihUh06dP792tW7dYPz+/jXZ2dj+SuNLj3GiPM45t8ePLxueHjcvCsAxRB4HH5ZGONO177HDuIerd3d2VefPm5WdnZ98nUbeNBgwJqEu07yLGBUEQBKEkgNkWctA+WVlZs0lQfBkZGXnOxsYmB4KLsn/2cAXEAELM4LDz16b/VmORwcuI4zfxO3iy08XFxVSzZk3Fy8tLX7t27R+CgoLWtW7dekLLli17BAcHdyALbdasWZvevXu3GjduXBMSgbXWrl1rf/r06VIjMiDm8NqSOXPmOA4ZMqROnz59gsPDw9vRf+seGBg4vEmTJm83aNDgE39//4Pe3t4pTk5ORhxzHHuIO4TaY/hrhuPNhnXY+LIrDMsQ2dguz+DCEKffVsLCwpQ1a9ak3rt37wzVmS/0ev1i+g91RNgJgiAIQgmGnPZrRqOxx7Fjx3aT6Ljw5ptv3iFxl1uhQgX1dSgQYBAYEHwQYdrZvScZxASHbMXLwCAyICQhLDBTpC0PwUdp6u/DqLxquAxJ+2AkIZjbqFGjH3v06PHF2LFjJ8bHx4euW7fOa8+ePdX37t3rfPDgQVsyq//+978WJP7M8OUNWq6we/fu144fP/7q1atXX6H0l0ik/KFZwY0bN76Id/5hW9gmtn306NGKMPwWfhO/ffLkScsjR45YHz582G7btm3OH3/8sRseNOnfv3+Ljh07vkVC7j/VqlW7bWlpqc7M0abVYwFxhePNs2dYLj7TxnEYHzeka8txOuexYRnbxWt0MGPLr9PBuUDYrl07ZcKECXra7xSqG5cURVmVkZHRjvIEQRAEQShtkNh79f79+2M2b958khz8Q29vbx0LLWTjMi1CFglao/QCTfwxK54OYcezhTBsj2entL+BMjCIFhgvszCpWrWqycfHxxQQEICX6uaFh4ff6tq1656IiAg8tTu9c+fOsWQDKL0PCaoulNahS5cuLSIjIwMo9H799dcdRo4caT5kyJAKcXFxFXC/25NszJgxqqFcdHS0ec+ePV1oG35hYWEQau1pu51puSv9Vk8Ko/HEMNlIyp/UoUOHOe3bt19Goml38+bNr9K+6urVq6d4enoqtra2eJWNKqL5/2kFmtZw/CCKcXz4+D+pHIyPNxvKw/g4wrQzsZSnODo6QtQZ16xZk3fjxo0Mg8FwmerDTBLB8qobQRAEQSjtkEMvR2aWn5/vd/HixZlr165NHThwoNHDw8NEIkAVGTCIBBYOhYYncNX4r4kPGMpwHMIOM1TYJq/HQk67Hayj/U2kIb9QFPEsH54ezaN8PESSTZZFy5kUZhRaOpVPq1ixYhoeTnByckql/5Vap06d+40aNbrfrFmzlJYtW/5EYuwG2bXQ0NAfSJT9GBgYmFi3bt277u7u9x0cHFIrVKjw4JVXXnmIbZGl075naCyTfj+T0rPIsimeQ/uQS6GezEj7wP9DFc7Yd8xY4hggpHXU/4fjAiGMe+J4lhPrFjccA5RHfuF21TQ2LGvzYUiHwMNnxXr37m1avXq1cvr0aUWn053Nzs7Ga058qA6YQ/BTKK85EQRBEISyAjn3V7KysqpQ6Etir/G3334bT2LvQq9evfIhRiBAtKIBxmICq7O4QIhlNl5GHsQMjPOwDYgalOH1eXvaMtptcjltGrbJy7wNLoc8ni3EZUp8zg1Cx87OTsE9Zy4uLkYScgY3N7d8vFaG0gyUZ6QyuDz82GXl4r/Pce3xKP67MKTxfrKw0+47yvO2uSznoWzx9OLG+diOdn/YSLSaZs6cafrPf/6TS3xLIu7tnJwcPzrXNSiObwu/RNsRBEEQBKEsQw7/nzqdzo2EXlO9Xh918eLFiRs3bjzVqVOnLHybFrNBED8QFRAhtIoqhFiosKhh0cGhVighZOHFM3q8Pudj2xzydjgfhjTe3q8Z78vfZdgP3j9tGvYb/xH/jf8D7w/HeRkhyuFYoCxvB+n4j/w/UYYFIvIx44c4zgfPCCJs3LixaeXKlcqJEyd0JNyP5eXljTAYDO0h3knkOctMnSAIgiA8x2B2x2Qy2ZGFkTgY8ODBg+kHDx7c3Lt37xt4AIIEDL5RWyQ4EEK0QXCwMIHIQVgoagogYiAStTNZMBZFLIh4e0jneHH7pXStocyzND4OMP5/OEYwHAMWxLy/KAfBjOPEadoyyEeeViQi7u/vb1q3bp0pOTn5we3bt49kZ2cvoPM2iIRdWwotqZwgCIIgCMLPIaFgTdaUxN5wEhHzzp49u6Rv377Hq1SpkkqiQ8FlUAgQCBKIGQgVrAYhU0yUFFBaga2trfo1DRIvBUhHPtaF+MG6EI8QREhj04q/kmLYH+w7CznEkfZb9hP/idfFf+N0LOO/W1lZFW0Tx5CFH2ZTQ0NDle+++y4nKSnpWnp6+hck5t43Go2TKexM56kqlRMEQRAEQfh9QPCRoOhG4XsPHz7ctGHDhp0REREXPTw80h0cHIwQaRAwLIAg3HBZEcIFq8MQh4DhZa0VF0m8HRjPhmnLP8l4G3/UnrRNrWkFHachzvupzUcc+41jAtGL48OiDmmY+cRTw3w8OI/vH8R3YN966y39tWvX7tAxP6YoyhYSc8soPqGgoKA+ha9QeUEQBEEQhL8GEhgvk8BwIRtMtu7y5ctHJk6ceDYgIOCel5dXfuFrQlSxg1koCBkWfzCINQgZGIQgxA2EDkwrnthYMBVPL268/T9qT9qm1oqLOxiWsW/4f9p0FndYh8vhe8EQdizmsJ6VlZXi6uqquLu7G0eNGqU7duwYBN33ZF/p9fr9JOoW0vFumZGRIZdeBUEQBEF4upAg8VYUZQHZxbt37yZu27Ytefz48Sk9evRIDw4OzrGxsdGT2DOSqFHfvVdcKEH0IQ3Gs2EwbTnO/yXTbu/vMvwO9osFHIwFKsQbzzSiHKcjxCwe4tWrV1eCgoKMYWFh+lmzZmWdO3culY5dMtlNo9H4NQm6d7Kzs+vQNgRBEARBEJ4teFqT7EUyfEkCD2xUJgskm5CTk7P++++/vzBy5MjMvn37KuHh4aYmTZpA7KizeLS6ahBAHNemQRzhHj2tmHuSQRj+GXvSNrWGWUmeccTyk/aVQ3t7e/VhiLZt25q6d+9u6tevn+nLL780JSYmGumYZJGQ+yY3N/dDioeTVSk8bv8sPIby5KsgCIIgCCUPiBQSLq9QiBfr4r17TmRVydzIauXl5XX+8ccf527fvn1PQkLC7RkzZhgmTZqk9O/fX2nVqlWR+GMhpRVav2SYPfsz9qRtag0iEPsCQ3lbW1sTvl7Rvn17pXfv3srAgQOV2NhY5YMPPjCeOHEiLz09PYn+67/JppGg66DX62vh/+t0umokeh3p2ODddOXJ/tCn1QRBEARBEEoMJGheJKFTiUJniD2yRmTNyUJI+ITfuHFj+rFjxz7fsGHDmUWLFt2fNm2aYeLEicrbb79tIgGlfqWhdevWJj8/P5Obm5v6eTM80MGzcPQTj5l2hk6bzqINM24wxHG/ID6VVrduXfXFwZGRkaZBgwaZJkyYYJo6daopLi7ONGfOHGXJkiXK1q1bH549e/ZCamrqLkVRPqD9H0bWDv+F/lszCjGDWZMMYq6CCDlBEARBEJ5LSAxh1s+VwgYGg6GN0WjsSvHXyaJhtBydnZ0dTaKqb2Ji4pzz589vIDF4dN++fVc2b958d9OmTZnr16/XffbZZ/krVqwwLlu2zLh06VLVVq5cWWSrVq0yfvrpp/hGq2HdunX5ZHm7d+/OOXLkyAMSbTevX79+6s6dO5vT0tJm6/X6N/HbtF99YdiHQutO6e0prTGF3mTWFP9n4V8RBEEQBEEQfi+FQjCQhGAnElsxFB9ONpbik8im5Ofnv8VGy080Kg+bQjaZyk2gtNG03QFkUZTWlMxFRJsgCIIgCIIgCIIgCIIgCIIgCIIgCIIgCIIgCIIgCIIgCIIgCIIgCIIgCIIgCIIgCIIgCIIgCIIgCIIgCIIgCIIgCIIgCIIgCIIgCIIgCIIgCIIgCIIgCIIgCIIgCIIgCIIgCIIgCIIgCIIgCIIgCIIgCIIgCIIgCIIgCIIgCIIgCIIgCIIgCIIgCIIgCIIgCIIgCIIgCIIgCIIgCIIgCIIgCIIgCIIgCIIgCIIgCIIgCIIgCIIgCIIgCIIgCIIgCIIgCIIgCIIgCIIgCIIgCIIgCIIgCIIgCCWU//mf/wMgW+I4i12GAwAAAABJRU5ErkJggg==;" vertex="1" parent="1">
          <mxGeometry x="490" y="710" width="202" height="185.7" as="geometry" />
        </mxCell>
        <mxCell id="zgQJpwlcP6w4n1J0npHr-3" value="" style="shape=image;verticalLabelPosition=bottom;labelBackgroundColor=default;verticalAlign=top;aspect=fixed;imageAspect=0;image=data:image/webp,UklGRmB9AABXRUJQVlA4IFR9AACQmwGdASrgAUkCPtVcpk6oJKMiKRlMAQAaiWlu/H+P6ZLeZvCdXypugafl/9v/3P9e/wHtG+Zfr//J/vfjz5Pfe/8B/k/2O+ZT7r+mfDz1F/7/9j6m/z/8Ofzv7x7a/3b/wf4vxF+SP/F/k/YF/Ov7N/yPVC+4/Y//E96Dvv+4/ZT+/e4L7T/Xv/J/f/Wi+U/9X+U9R/3D/H/9X/H/AB+uf/C9hv+p4G/33/ff+j/jfln9gP84/tH/O/wn+z/c36fP7j/8/7b/fenH6o/+f+r+BH+if4X02P///1vhJ+7//8/5Hw6/t7//P+SgVHy6eOZkYSt6FJT+8x6gMA3/yF2GT6ehdLpxZiRYGmvtwmzj8Vdko8wmZGSxbsjZ4/4o+XOiR8nsCxTAnstkHLzdYQOpOcTcf/1TZyF8MX1TdQwM/ij5dPHMyMli3ZGzx3Fn0g992dMIuzN7MItKZS2ZFRZGzAMPEzx0Z2FPLCXXlOHszmlxNVhrZWLFuyNnj/ij5c1Y2vTr/9SG/qK/pGA2Z9dC/5QV6aryg9PW4n/YCzBLYbUdr538bVpqMv1hdHEFaNIvPGZGSxbsjY4SqLBVVn3UO6PVVGi2d1ufjWkUO71kJzKwFx4Ovt0fYC8HE/ZOb3UL/lLc3CbqykltpZqHrljZPS4hwYO+Fe9TA+ueQWeVeof5ysSXsThwJfqhcspzTkqMOoedNcs3Phb2r6Jgy05i9V5+DqDL/gfJozs9WE9FMExRruH2j1qK2ibGz7VJLCpVHcXfR5naxdVtE5Edj2PCCwDYW5zrRQ/YCGWLZXmoeXTW1oHIUTz2wTV59MkOVZiJ2R64xaFkLmHm9Lz9Js6PJ0AY3id3G2HpwJSB/e/UulBbPwcq5Cj4OgwJqJQ0x1JGxqQno7h/cxtdfmgl0CxNVTeAnomB76piY6wpVjySHBKZQztLb7Apt3TPWaPJaxukY9NN/G+kTjhAUgYCvoxwaz00/16jl52QHJMr3eiL74IYHbCZhedYMYtp4sHPUrvakaKb3kSKvY2nClkD+AC2zd3PhooL8h8S2zp8msLvxEaCNhiXIlldImofaI4eRLrAGT+rPawq5qG4AwaWbVCQuMrkamyEEMS64j62rUtNsStr/yIwXcLnYtqnhw+vb5PGQ7HlEGDFk/xlohgAcEyEZTeiMPChaafro/R7H3b9Jt2Y1gTXHU5nQcix943D67UTfUCYuFkDqE5QpGTWScp3uTFD7SqksW56BXf8LfTRqaqBU7lS4zosVpvdlySbUfTbCaS0n51du2gmUxisPmkuIWjP1LLRPLaVN6qu7EHC9Ti0KED3ra5UPNt4Q6RoJfUSt5EE6Qmf8VRLFBv0O+vJksYraOt3AIqxpXYvOs+s/V0JFbdk874bzU/46JVPAS339jQt45e1c6nhxZAjD3Q3WB+uQYDhi7s33fn97kZjoZkPkaq2uWA8CkaDmUZ5CL2Vn9UKOC/zk3imkhXbi7ZRUDccx1Dqs/EE6t/9/bzlqWoHnYkrqgKP5cGjNvqfL9uT76cvt1iZEfR7+dno89AzW/h4qHYuMD1zn6jytrASWLJZtEI25soER7CNMqCqX8mjOj7rESwKOXX+47rqZhB+gdrrh7k8R/fx26A3y66ELaMSryWRQtKpZbk3Xb4ULO00SaeSWOP+bQTkbT7Plc4gyEW7QL59csguVot9XBTBjYiSqIoTW939O2P8lEY6IVMdT/83N3MNOBQaFcjZ23e1Z9AWdcTX9rtMOCFs2vjDIfRJ2ismfWdgjuCXv76CPTGcmODGP18Xb5Nf0lzi39sDkI7YHmtwk8xnM9znLoBE/cA3+efg4kIRQmefYfbLN2WSP7a5gejY23xZLbDEQSrRLrij6vlMWvLnX1G3kwtwGuMKeTNAuo4bu3YfF8Wx/fJD6IoQuzMJXTDAntY3ZoRQl0BaCxPs2ln18W29dMedMhGfh/xC5TGP5vTqopISaxYJSP10i6EupbDMjJYsSuJDna3e4tzV2BX6TiygHk0GFMdO4vVU7Fz1hAvSLiIHIrRogso2s3xVtTi+85GBuyBwYZkw8pFtom/hkkG0PAC8QylYlO7cbk+yxMud9NwDdlyZJe3CNEeYyKBd8ZgukGSLBza06A8m7xZaMemp/Tzy/UM9cLcMc0kA97CIlvX6I/IuCpsxpkLMyRHqSVjCnYs+uTEOi00xWL2VYroavtfsBAuNd7v98S2GZGCW7kaa6aLoHX5/V1+gjN24LcqsSmXyn+bZjzEiB3W8lDkddx/x4RK3oDE31Qm5vqVENiaHjt/lolytndeif+EisJ/NWYTMjJYt0+jP7oPlY+EUkKrjg/CTlTI1Gf/QcRsk7au9kvrlXrmxTj9Z4VO/zXPg8InWn7EEsSHzLppD3SoeYSqkSWC6WAQlhq6OCWIrEwnpavW5W1g3hX/N9bbCcLSLGNAxq/SZd/aw0fp4XoTIRYMbfzQqMDocWAw1mxM5ASwhVQDnupmaHEzCLeVE4PzqcEnOxknw49ruRPxZ/21VwXTu5qqiUFOceoedNgZ842uSMrRgqaygHnUPU2wcR04tJB3k15wUY9+KABnp2FQS1Q38Kx1ki6Rc/drRFHGVvjgZRHllbgMUioZGF3BciKMqLZEV964rLJLRUBTKKyN6J3VZpbbN3vC5JRA+5PuBzDI93Jh/kTM4oVf3YvHvmgzeNEq07GRBV9ofNiKrXEFSgQk9j766cLXPKKgQpzzjlUU5dKolhtSfpALPCTZhMx67+8K2eVSNw4k9f3iNgYYPQjIRlrcPcwI7MQBhbuEU0usCDLTm2AC8vwZUhTGAjoVIHx4n4tV2zQbfgtj3XwSQDf0I90sSIW5ohLKRmUzULXot0cfCV+6Oy4QaoQJgaPCDFunOrBRxv/XuT7aFYJ/56q1QgENZcVdgdvlvU3BR72ILsaO/JIca/sz2WgNx8nR3xs3stxYiLO23KfhQtBvhjUg7KPfz0jOnalZmKhvLQHX3Gc0BHMwF2QrvwwBG1JjEin3NnpWSm3JgFwbmH0JgUF2OZDvl8E8dYceYNpzluK0WJQweVrh2zUBBKv3RoOerRuGNKvRWioGVuHefqI1ap+dqZKM1li9OWPw02ohvFWk3hOWXqeA1qh/d2OIoRAxPzqFq9Vy4tn6jzkGL1Le/ZsMog8fv7l9UB5dqpaPYYtDFoCIoPO9tcG1FJClyaS5MM0bMbv9pOOUhfEjPXNv7/++UQq4NXWfSJc2Cp1n/1jf++PQMe/mDVQBNFPO9k967oH1KTY9o+ZTlJ30EBFEQmKHj+84hfbY86EweinHhWIaG6ycXgVt8q8wuLOD+3cWdUBpVoK+ZbS2lqwRzBDiVK3WUFM0DrjuhYcq3LOHRW9TmYCR1oygrR3g5NWXBmOtEhz+9wx8p7z4R787oMZVjNcy+14JDsLM6k12u+LwLYWpF2OKy6pXWQP7GBK6BW9rA7pp0RGU4560vbSQZm0jrs3OD2kyxWrJ9N/7YodY6W5VhB8uzuelnBzLJtsaVkjdShhca/BTMk0/URRG5Ggg55Ri0fawZRkQQWpXxWEW5lOlMnxSdW6j1N+ZgzuFjY5HRmEU9NvOl82CyJ3Ycc+ZdYVDdVQkNh6H3vAAhGoKvRGVsAoMQME2V2vNpM604iAIsmkhAJyHrxdoyfmm2JDTonsaiGRksaMrDZBNnjGovnKpSqYDS4+GgFsvtmTmZGd9ZPWwd5AzMISpXJH1+l+eTBuZjtVPswmPPu5sgvcVaQGXy2p4r16VFkW72uI+gRpRxGshEDkKhlqiUttS+OZkZLFjMKig1Zxnk6OiucO3Mfecs8Uo3YHHqrF/o9q1GxDvPg0EXRo8jrSX6N3giB8KMYBBDNY1xn6BccPPwuRxapkjmbwneXPTuuIYCnbcL7MqmSKp70QSUtZwYfzNSOvgMTR63hSaFQuYuiLVEg6d/6YO2mdWHk0M/U1/Y2oCmspcUZW2+06w0YH9EZDnzcsbbNHFcet/QsAQxYxcaQpPnuXUKcMSqo8npxwM2oNFw9Td5Su+m6dklcepOyE1lp4886wWKw5zPdzfi5QZOuxhmf0tswmZGAE4IAgB4o0Z4fhJySDAnZxEyCX0fifHk+4QtDYn+m/fqjR0DyKvJdeINxUahqKKTH01iGQiEJ1hitZZsOQOSuuhaQ+QY5MlkPUIKvEryp+zsMeUFIXvboirM0felKI5l2uBOIhZG8TwgJ4LUibdOsntaAnfOiZAZEvP/+IXIW1R0jeFRwk4QvRSn041uduHlKxw/fyCOkB5hJaa4AfBIeOP1gJuhgxM3d/Xu5iXzK2BqQnuvQabRwC68VfTxzK4PrfAqe4fWMWLJJTz1IksW7HHyiYs7tamEzINUYSHjlZYxYtxQAP7tEmkEUJO2UzJnC/wJ0fuTN/ofLRWdBKE1azLOtSwyc8VJyvZzruB0TeXrpz9jcjNsu71AI3MD3V0R0KJtsUm3OFVHEborMC2Jj+EI4I4biJ+qjFB1t7Mhsv1wrpJw5AeIbOl98NP6LZuWZdja2am9UQVQM8iPB2TcTDyR/nS8smoyxA94XBm/59NEUAxVvQ16Hw6C3W31hqdhwToGcuF0srsvEzIFjN4m91zOUB039G6rCD3djR/DudQUtx111l/5v8/SrU1y4gQjdEhIImaQHjhC7S11cKFG5vxytWQYk7TmxN9NrgVkLBvBcxVk3hXhgc4ZIK+m1NbaQKu4ekzUpvZs0AcliOgOuwN+1UQMHiSjPJeiSFzAqFbOXTU+c7wJgSGCz+ZFIgH22CFUl2wZEZRQ8eomQ7MisVIiPLLYfIT+qzpOs8wiKku8MgLXwRKnixQkTQUdtonS7fb0yvTRTOeECinE0pK//iR3+SMddCnN/5K7T1ppxd1iwnw2sNzvoLqsNIvLQgWJ2AjsRzLgF284fe1Sx1rmVHWY3ydL+siCoudCF9FXDLqWQgyJIq2fdh7eRP/VlDRdmuqQfF6uFXS+Xjm+tvYr8ftMt8WdYCVXV/Lk/dyEifwT6o/KKiHfvdbl4NpTn4/30dsiWpTDHjkD6rGqaGa6ic9FZX1qzS1OT4dEfoc9EWlJZ6OpQn5HAk7/dN9R+FdCzXyt+c+dtA60rBlc+IDmUibBB+wXHlH8NlhgWDf3SUpVvhqi3gPeXhAab4AbAAYf4VwRzbQdZopYYzlTYTUPWkxGfO2BqW7C9poj3sI0G4hpu01SCKxaNHYRovVe34/Ii94zeCmUasa5RBhsGeV5Kql+EdL+pAURpTyF9muAl6aRvTQvLuubCQfV7Wwy9UeEhyiKMhQF1i1JVnf1Kon6QSi/An5fnND+vyjiP89uh22ZGKgxXmaIV9RHg43c96v03niLDThQj+dP+sLqXy2mDBL8A6MRmWWsOAN7yrvSt7gAE6llXWxhHAG0E33u8nL7kmMS4VzI/JehepDk71ZkhoB0FLYYNzGXpYyhoeCTqbxblP1yO7XGU4QFl8mSpK611s9MTwVPUbatLLIpIbHUmBhirJi1XdbnSQYIQUoRWFWLnZsJcYt57SYPf1ZnIpP7ltGq3ltdlb1UhfDC1kEIg3zE4ax7YHAAmwxVlA4+8aLrxvy/yqECQxvnX1jWhXf/e6ccWPVDkdzlglKp9nwAw5LHJ+hO7ARVR2qOz2JQBUCXyEEFNa72shXR27+CQqTFMmTKe2Ct5ABehEMtZEVZmcjbq8q6JU/kx89zclNg3z03LHnOFq4SXteEx8Lh9svVO3XwJPrKrkiIG0M2SZ9XEWArnT9FkCjIKDaVz92+qyjQr3HwZAf+zRg9l6s7YCH9KFPO89eNB7f9IU5thC6iGm7VDPPumodZbqmKP8y7dDDMIecBz9RlcMuUTc45FIqPO/UA0AEVQ3R29ld7SKmwPtu/1I3wQxW/C8JEt6AM16ExYnOngWcaK9dWX1QI0yti7HSOAR06w8YveUDw3/AjL5r7E5kjhgbjtgddbFSi9dgOGdw9cMWfDwcnvj3X6KWyl57ILwm92rb6mwcUX95B4M2f+pR2PDAGW2R/Zh/hgoUk9rslrDIUwxbr/yd11tBJbzir4LhptRsk64NkzZ0zVjA6R2T+gwSOxSFXSFlOlIdScChofrb8vOjP2NObf4H7FHljsALgQuUqnAodXC/edHjCVnGio+rD3F61aNaSp7gRqdGwhDSxgAdfwAUyoMKdKtMccbFxplL5ev8vJ1xOD+/Xdk6jLT1LR+MPLKsh5a2qyUaF7pri2q7E1v/r8V3mGIAcOOMDD4hK90LyI89Bjb4rkgJEkj7GZ6zZROK1EP6GOt27BfQJZdbz39z1bqPOs4FyYGFM7EcmlJnSdycyijhgUQcYcsN8AsKSBfCVbnK7teY9lI3wZFI5NtKjP6tU9ExLX0OwY3sMsz2HddDPM4faTyE5a04Ck/DcsbKbpzMI+nr/l2lZNX0jV3B0YlEL4myZHoWllltKkA7gpKE67Io3/ZgpYRTn8qyiIxrzgKq+MPIkaJmZYfMtffe25eaZuLl8rrJ3My+md1c+FC9ARXNntYFD0odlK7/fLMu6DzKSvIDTdt2o2Ltw1VfQ1/E1QgAQq3sr8pu5Z6A2s6RRYgbAfeeAftECEx1IZLAJWBTqBaz2kMAFQKN/daxLvGdTxzMFTecrtOmNsgL3F5udsUl0v2ncJpu2eUAfBCzCJh/RmK9b8xslENLRNxI/YIsRJp0t9MmlmbwGcoLbSV+GiAOurY2rqPGSYZQLPYZvX9Fzp6DfKfqSksqoYYDe2DJvrT37CeiaDLq7+moZmCTygpy94ZZegOrlDfrbGxXdAUZ5x0K59Rdyxd+EnPzBq7MMngAFCG5LIMUGG/8FopQJKWHRMeKJ+GmUlbbtDLY3ccr4+p1qBKlqr7xlN+t2O6/+d+bG7XLSfgt2qESfMA+utmxlF2E15DXflVdK/hHMB2NKItufWe6VyHOI7MZaf8PE0s9p6TaYlAKMc4GVo5/Sj2UT44EMQ7AwZ954f5PhTw8zsxqt4WfRbCRttCLigUDMDqiJL3aZcXN200FlBLyeeFOfNTDPuyRYctqgc6wfzTHcn2g+IhCs9GoGOc2Pf7cTsHHxejylCUnlxd8bP2XvuSf9pVslnAm0LkB5HmiV0RZQQI1CCYaCqk3F+gMX0/bWl9nIwgCuMfc8VoGTj4RfeJrfbt+2JS1c2BBuNCRBIw3RkiYfs55HkRHEVZZvtjQVvPx7KoWdUBVEncxdwhjf5HeMCBj046VKm3Zpy1qp0LqAJGRLiA2HvRvG3xX60+ggvMvf+NbgVzIOXWLVlZ9r1yE0xyBq+/AqNjzk2z30u7xEpSLnp5BPbLPZNBg7/2+p/7ZGDl1nvLiKNziOxdqaDirxmWmfo3a8NkVFCCdo3smsh4HgPgy0PfZTBDoa/CmxU8LRLgGulc+S6UvLvxw7pyN7LwE8GDFSwB3AdwyfOdHWWJsYPgeWBoBfN7FBpY+focfE/+qgqZG0hScVyB/niTtUTwHKKFsX18dpg7vaiGH2T4VZDp1SuVusOAjpXAJhP6XJEAI7+37vVnTWwV1+2dzfuplOwjCtgiQgxgvLRXX2gj7yVEYkbQA7ZBj0n1uqsiAg42YtUTzEKmz6UWn7Qk78zzUQwN+VflTociVuiR3KlFWYRvDOrRPabOUXYMhd127Ehx4aF/lgbTrfojrPPmn7o5tEv2GujlhCW9JZvM3sq27wZebMCYpkCfH6bqKjsEuAunt07KGgBFfqmFw4Eshu+VcPKqkiwjRAgDIoN2ugMOJ4DNWlJx5/d6rDfraV7/qOgKi/buOqi9WtNh6K16Nl0BVMH7GUrsRec1pgojVbhkhcG6rtZOLtLiOpY/CK0uzFs9QeiRFLi2VNSwuUjf06tX8zbVsiIN44xdveuGecWN141PJjvt6/JrXp10JzZghfYk4tbneo9ginSOJo1rT9tpaYHjMtdk1LxTm5ElCoLELTEudM4Lh2dbkxVtUS6dPzfFdLzfuFHcsEDguzrrqPCwbH4DhzOe1eJovcHawWlLM4/N/rbLLVpqfNwHx+CBE8BBoTq+r4t0zBlH1TvZ0y9U1JH1zZ+I5QNah4bqAn5F7mXjZXBhFvwfk+FO5vXOO2t0Q30KqXOehAPys0zyxCbvmot4aCZLgkpY6PXuXmTZctrFLZwQ9hz7XZw3R/KoDfZdpekgCPvFFKPmXH3mSt/IMMmlx2DQXgookNV7v7+pHp4xvlZHOqXaFc8Pe/4SlxXlYSz4tlyQkZGSpfZf8ZBPZVwp5X8+QW4P5//XOLBqx7URnlnw+Y6TqohbhxJoLpYkjZYzTl0941/SI6Lo2OKvj8r0y/py9qQFRGFNleRGMz75QgD8dVjB1BHfgmZRp/NS5AgJ8zecAtIUoL7N8Bm0ZgU0nQay2maitnOsCD0ttIzl8q2JBk6bHtsLpvHIs/ahiNIWCBtNIaHBRQHZRtGNXMCj+tJX1CjIXWZkIV/Ag4dEgRYkEtVaU3oSBYGpUECtfD7b+2eHKoomQ7vfg5bx9z+evlaRCYSzR9M7p2Itq4xp30cEMzA/T+VaN6lMl0a8mLT+vYX4YqbFJaChi9rxo1+zLR2Z5gHalfG8qPedQ8aGqKluD+R+GzdbPeklDiRc1ErbmsSuAog7GaK19tzD4KjqRReIN9Dro0axDZEsed1zYrt/oHaweXmZcZuavQaLRGyqDnz5DficwiA8Hq5dH0IB6i4E+xfFLp9oHXkV7pjTEyESqo1SSrR1TjRdMgSwWpueJ9EUEvw063MWn3QoiJAQpFZAHHDHpCicPU/od+zg7ruDN6cd2VFWCnUqzGV98cXD+jnbVLDCqRnTl8ncXasjAIowQ8bPd+/mshQZjFHGGj22Wmjr1SXXBbwimVFkM8SuPjd86FLGld9z2KTa4Fo4yldLItS1uiaLpqXU6AzPXPSlnD0mA4LheixiflVGEBwtJjO5e2C8cvCH/DzV/J//HKFv7rQoIB8XYahRSfY34UZlpuHCgJCbJCjWvm6O72UdzAQpv96u7HVqul5wUAOSx7bQ8ZiZp6AYCHcnzi+Sn2phGYnXZY7sRTrGgOSmKopU2uHlymAIzbpaK0KQB0SjheHWPfcSHR9jp5i0rQCgoFzibGWV8dKfxk7d428/H2AcUAGd+VwxP8L8uULo5f9aqClrUeLn+ROHIdfBokNmII9sJiyip72dO+PnVwMb6Zac+4YSpyQZ0umVCxDp/UV+w2Z72UeYOVKVPzg2fJdlmufP7hMoQVyupfE2qD/BAMJGwNAEkNzm1wZSPPkhhjFkhve91sxItGKS1UAAwF2Uld3cl7LVXVsqwxcxT0OfTRZdXOBoBsUEtJ4GTDQqBY755p0CAoQtKTqh6uQocY7cYVAA/V7ol9DXmI0PEZBhtn0p0uGjGy05dzyxvU/GNAU6STKrge2XQzxvkGJNKt9cuF46G+8Nx/lAQRr4b1W/xLBKsXVIVl1IS7EKrSf1US3ZNgd7vQGNKwXI1Lz3LsR3ep6vAN5i2GlP6p3kCY6iUZEMpTXyrn2g9Z33NTwyfv8Ro5ayWMd+L6WGpZv4m3/ihWAb9dMU9v1mwtz7+UaHm70WIjfSgol3ycM1QeCkzp0PC0dodQeDPgH02JDBR8xdWRCwiDYUgGduRRIXC3wcROTEv6gPTSU8q52SKBZc2ZDa9DbWALrKUcBu2rGatqIA/Rk4YUUl2Fivjn2W7zt1Zy8APpUWuy4ggfZGgb5l4TbATjOGoki8nyrsNA8BA1aQKMIXJ4e9QlB96SgbAcIiBUoZxGui0gSQl/oJo/m051arr+HVIkMOcPbQ5VuWlo48QKkzDuU8970h/0kj/R06NqQL2G+awHQ9Rdfx6LnVJvkbHy8ONnbflLxvthK7utpPsDKGrsSSokVYcMnCmUjLpMYAV5BIRpIHLVFjeEODGiRT9E1H3ruAKrWMtdJOSbnEwqgKEBNNBWISTxcUfFW8Ooox+aWBSvZWokmi6JsVBM/N1dY4efCUogpXDj9K3Z13r5fHVwDnilizlGjZVSrHbCqLCQtztofMy+io2qcXp2DD/aLY2cP7APLqCsRHGDmgKm0FnKYtS/n1LembBKS/MvQ/m1YG5utAdW+zVlR2XBBt22TE5np8reGbXRSXyERy2CGuk7jIdcGtAVZaS6YrJRdSCXNZIuzf/g6hmbTvBZlyGTOBTQZGIcGnrO5EscA6X8FecQm7fvixrgYLMJO1+tZoZ4i9UQyWDEmzqGzvv4/G2yWacrTWVpuz1KrAwRZ0mDegBiq+AAqaaSuu5sDGbKozm8Nr2iGDpMZDukmXRUDr5v2IAeZYIwUWoluxrMootbqjJEaTiIjOglDrV12iOaAECdk9yYZkVJah8zw1IJqeNJ5INKuYey15CTTg2hAJ3dXN2XaetyEAX8ZREIGlGHIZk692tYsScGBamVgPP9ejeByxVX9NgNxjr/Xxzpng5ux00pFOjomIZXnbg6ovUL9Rw/DUxc+0h9L3dVU/dOvhxbEg4wdSqAwp110MqB0eKKxw13oSlxZjsAEJImntoynazMtNQFIp6IFEdmm7UAXEhTyASJ7BR5AC7Fedp61XzASHNaHpSWVuMS30h4BYDnfxrfJOZhucahGMf3lkRIS2aKQSQ+8uq7c/YhX6M0e1uSFU7ZEP3gasuam/gelnxLqGEJhv5OBU8x/mwCJZJYZJq0/+lx4JlAFoljc2XXGr2t6Oqj5c30F/wjv7yMoJ7BLNdaC8dWoCoBKAKqABbCKXUgCr4GQndcEWVyude5NYJ0C36XANlgjtAtxCCon6EihO5w+JiUq2HSbcxTcMZ+tfE/8qWdsQr9P+2+lEBPkAEPuW1BSbAsfy9Z1HzntqSYlCUaoQXwvnB7Y4K0ZIHK93xpEKTCHGovNzAAd4PWoRf2hAQy+ZAgXNVlwKPJPpztQTkkWVtlxEE+Kexk5BLNfBEuxEgz2LS0agbQofzfFdQZGjRigIZPPKSaYEgASj1h1m1Gj7s2duD5e0HW/hqtygDpXIjHJVAEWFqhv9UfA65d2XTE62tHcecEMFul5fd+8nDiRqhu8rnYziV/+EknDjCqB+GzvN54Ir+xl/+mo37bhoh9AjORv1iJHdgt8MDIlCwXtoAU0tG3ohOl6HoVtO9f5nRnNGSt60qeukNNhx+TXsBg6JsYtuuFw82XdveqiE4mx6BXyvx/Jpa5aKrEmLNP8+Wd8bb9zchD9UHylhx9yp5LeivDO8sVsCnxUmtDn+Iwf0qjjpNwJGIDKkcwcgL7CyBPmh9MbfCLij5RkOBHPlXNps7XJmg7WHEivnJdG+Rf8qx5RiUoafoFSxMynepBcF7vMZf2ZsOFA9sVt7QQU2VTrLyTm6iL9y8RMhpXqUihpHtbldFLBpaSrncNUsoDp2WXTPv1Gd2dnkrZ6pmgRxOd+1Vn3Fh0EFTopUaMgATzvuvFYzA0dKx4p0yt9B7prNM/7t1WqhIvhciL/HBwvIEYmjNgNgaBEyHQ5S//S0/b14Psud0yVTNfXiGUPrYqqj3RT66sdmJ+AA3t4tD2ba7FLd00T1RlSQ6axki/rl2UwDSsjeMA3M+BeMcip43TAjniZui79eIFZPHWs0VZ12JJgfFbcoigFxmQltite3LpwhBVQRy2rnwTViM7YXzEqqyTcxhoMj60fkbNiujDu5YfeyJc3P2GI0JK191xrTaacjlkzOldYFsZrsxVN6qrnGzN69bOSykvYHEu3HGtJDfRbn91eqxun0sV7Dh7D2QBa5sBcRndkUC9Gi2U8OwIj2AHKZxHOB3/lBAsntbZBxpYr0jfV87eKG3J3gt2Eacjo+So5EvP5OjE5QgALkV7exDsTLQqG4kCu4eSfPB7YtsX24p5eWPqu7L26O2w81CGAzYICeTs5WAH5OABQUsIS4PlLMp1r87k+HRq3H1ozN1RllAAVRYe/80nEwcErYSABJsAAiAi0btRCEpBghsqy3GbuLSzbdT/pHud5ewvWB8vhkQuodgktVPipuksdDuyGcYGjmm/TdKVupOqLkOtdLV3LsGvS5xPJ/yMv5z6g9yXp5dp9znIvVB1FtxYOuif4y7c1Td6T1MFX3K/N9KiwgsuiMXXI6MoM+gqE/H8NdFgAzgkRhwN1gIEYgkNP03Wt6AaUqi+U9cbkvRJXO4FqmYyyxZmSdo8kdJ6nMSvbs/+gHCbx0vTRGPRYoDURXXNhphIUIgjbyV7mE3HKjGzkux/zmBoozjSKMhLxXEsyARE1vybIUXirSrxFuhkkfiLGcAhgCyNBBu3oyGwTDbav2ql6NSIAbG4X/KePUMdNJyg9ygMht+tbqNshILivAWQhHaqmC1S3jeDgc1qnOIwtbkn1uR0hXBJaz21Od9G9lEJ+rlp7W4DoGGcyJ4Nt2+yfVS/guXi3q46HOLsGuIIrMHVFlxhkzkHwJGfIo+xc4fhc5d21pYsuFWmqn2Irz91OViJEzMuY9it5+HxdMT9cM8x7b9GZ7BXCxS+Qlmm39N70sGzx0LHHes8bTXJtl2xmwecwowb2Sxm4eNNxFAF+YykB94aWlZa9VjpPba0hlRvzDikiTFScJzPh8tww3lPch2hWYfzhXv0zOVZSE8WocM1M77nOmL2LOQXHVFgbANEmPAcxtDjTurL/upc50PTOeQVBz/jEohcNg4AJpQyRjKgU3SXEwi4N8ZdVVGas+LBcjngFQT1Bz4JmFzzrAeud4eiBLb0REZL148KYQMd+8eZiLyulSnhJ5ognFXdtb/PRzC0gkt+Oz1ItISPY9gnBYouL8z97KuNvaA5p72buxcCgn8Hnl7ytrSNXlfeXb43yP8q70WKfQ8fYJkwabbnO0zKxtZyB8+dZD5lzEbTBqMLJuuPwDUZDMpW1CLU3OpQHOp25qjNVn8F32f2cqJbAt1oKcsgAV09KgXIOvbDWq+nP51ASeMoVboXvyf9on1lhZ0urQ375XZz/GBop5KKTZWqvDmbG9PUcyVBi8b25ReOQEKdEDdSqvz7upKGCPHZ9BEzNt+FLheymkLsSWO/WKkmen0Fs8qSw48iqZYiRNSUi7B2Bk/jlopaQ4J8hhDEXKJpRaRvsWL/U4Wpf5RLp239536wj0YvJLSIs2BBOK76Zqn0DEB3j11X132XzdiCB9nc5bPnURkD17nhT3Tk/OWSCU1hIDfV9QNDvDcbC2h6RJdcNezNMXqrlDdVZp8fMNsX4SPdVQKKTCsfg/mLQivcGNijLtI8MTtwg+u9tHt+VPf/+DiqLzrQvVoaRdcIZ85GOjrC/5DjK2Sf0xLB5k7bxCfGkGE9xiU3gXo4lzYsmxqP4mqPU92Cq/eX/xl6+NwsdAF/bDK9DkhYc4WSVltKMnrqc6gMprDSFNVfpWkOT8vuGi5ZdZKfXiBU6roAMlhbedACsYn84D7CEtJYGnsxZXSwUOQ0WqyxINbE52tjF6YE+DQuL3FLq/MT4MdOnBUZi3AwAa+fGImpWmkJPdXq8CvWLx7Sz6goJCotz5DFLP36rq+cGsj1JQM1k7OgUsRITYl6jPp1N+gGGBRrzrHeCNOzfkAjvjOVvkkZ6QqRoIBM5Lr5ryr7IqhYddd+ppgWTtjOpEoTRBVy6Yv4wqaA26rbSktBffXwnBZLYRrl/JmuzsbC51UQTm7ws2PkPENN0GWWmfSCYAkp1TW8HT9rPWBvL6B1hxEMWhPESXv5x1Iqxi/l+KvS1G0dt9J1F3kDO92XfrRYMTMurnVCan3ebYebNTo12poIlAXwS6X2XsCXyi6ql1JpD/NZyP1WET9oZVN4ZXg27rLXfZxeXjh4u2pz/mNBBY1bs9S/tektDqV8WSvRpE7BMV6K37jgSThITOhK4AYwb7533dSc6o1lsalZMqL7tDfcaHRWaCl3OeTQ6ewXlJXVrwMDyesV50eeBD9r5rqZXS2kE27hpkOilW2pSLZ6oJKdGYjWKiCPpO41GK+qsJclw8AptGiIqILgvgCxUNYJg1Zinnd+QeyeyhBXISFNZPj1PSw5XI3vGw94oEGrmhO5Lc9j0Fevx+AlpVwR/N2MZsCOAbC18Ae4hi0LVnW8dLFh7hyP5cwDQLqKN1yxy6y3VdblM0Qdmaoi+C7H4nM72Iq/BIc4oER20/fCH1Chi7SlDsqSKkMGRvhM2Ti3gU+VhULeIvtEYSbjz9AWbjJka9GAsmX3qD58NNC4E1QUtiwYy/AH0R2rQAhrDNH4dtNufWFDw+g9kmbz8RYdQ5QQ7ylCIV+N5+qUGaOoMO0GNq0BaaBeHRCNzA61dFk8pu+C1bm+vMciUDGcEVE+X3JuIo9owenQUH6vnv0N/Tj7sPfgx5wY8tOWgzinJGnvuTFWv73tJoRt2G+Fj4gLOZg4c5Z8hqgKfWxZ/3XLZG5VEaZnbPqr/Bw152AnJjuG6AKk55+NW6nc1noX0v0MYLUZkH8wFMoPUBA5V4EddhIR8IMfSDf+KCh4MTWcpN73wXhWNr4qebSCN5neVTXH7YS+4ShOez+12sXG0Mk8UKQTg3ONiiiVTJ1ZEKaIkpMWHBXt/oBNt1CkMMRKtoY9eRL8fUu1QYNHhiY1AI8kEBPeFy3WzA2ptgUwPI552vR6kEN4Ge/9b23pbXKMepCrdAcPSTNz8lpdvQ8dkUmMcIyHVqiUtqC4bdeMMGWzny6nKONzb6XHp/WCIzIIRwEDv5QVZA/7ROglJEwrzHZS2TR59kRWSjYZG8cFAecfiUS6wJ4g1O2ez9blSjnYBJpoTX72coLPuyNfqxW1EhhRtiMU82ZsWAtmuHWRKap0x1I0pDCPFJnQdBmCdk6DkttAk0uveYV39Zt0B6X03BwDBOqgcypkZTL+PC75xbVw8gw6kvZOyXb14cmCS6G3D18uSiefUTA+fTYzxNLCACxTUlPeVOAo7Bao7mvMx/wpABXwO5WOfBZQAgtSbirGu998EXNCpABUClukOKpX9jGe4gLHMPDCt34OqcMR86zm2wpFgIVThz8fylPpBoSmLs9aKTfQRDeShNZmd1Wkb0YJcIVQoIoX77tIhFmak0WePdPYcVivTWbfYqXvikPB/gvrlrqCihkuC02q1JpFsU5COMJa6o+29t3YB3AzhZpKW09byxTo/h7sLnwvsKE5kymwk0Ec683SQQ7Poxyv1hpPNEdNuBUEpJEhdPEDZbNPUYClU0XE/5BCmrzujpo61jo96fuVoPRID7uyRVg+8WS3trMj6ZQN1gAR34JJRYwzHZ/SjuIuwTZPxxcBgAP7ABQvcNzloL3u7TwH1KpPclTX2GCazwl0Cn+Q0I6LSCvovVgYxCmNNvk/pmnyNRsM5WYJSO7dg2CZMU52Ur+2WzIAYjntcspLkhKZ8jHuyOOmFSFRqIo8JwA7gH0SoCivlJAood34Qd2QJ04WN3f6OgpTqTXwhoZMCezcAxxurhgCup6twphnjTCHC81N6fZSbiXZTh2HZueqm2+M6HR/gBaTvuccqgjttewhDFqLZ153J3rbn01cezuvOqKwIg3wS49AuhZDCqGTXAwvrj3HyMS9CsZYwkRcIorUWGzW+hs6/8bzem3zrCmYPG/uXixlT5tOkltnLO1ErKZNE8KfjRhUvBvLz338Z1a92YWxcUfw7bfNUCBk3nFA0iUHdTSp1pjTiDUxOj3j5u1/6LTWAeCWViwVnZf3dmhcNrc4tO+SOV047pcCfMhaSnoFhmXlbpPN4nJFJSjuaokopctfeUJngu+Dv8rrr/blI60S/MtGUtVTxyqSbLtv+YmHmg7EznIpdbz1rdrTXTJ5cZnhh/tuHmY2CiDvXYCeGWmf8xmyTH7m+COS4GZY0Lgpx9LD43p915Do/o+tKEVogL2pg3AUT8Z4+YC1yit9hlAk+1e4/Ye8ls6cpRm8+oRqWHi+PENgolinBQoKl61hcUVkfTjQBX/d+rUAqHkT8YRDiTH/ULVCosgEdgF1UJQdfG0xGgaw8i7Js/sPVUmVBwaxzsIY4wJl6o6z0njzU9Y2JMop410xYTR6u5ZG73BCJUOJ80IBFMjWCLv2phmcAl4F+1/tf84e8mQUy2FNPE/qCcOYhJpdVhXFN1v5AkUhj6aHw37Ypryp68gnQJQcAb2EAcbzpl1q+k/QPAZbM2SeK1AxKNRxDzJcsu1bnYsgkLH4k7gtz3G+m1QfDVS0Q1OMTq3VcQJhaj0WA7AqzWByF0NrZDgllgufo4k7TxwDyv9Cd0j89D4SqUqC/Pt3GLzhPU3C8EuxlZPHcKqKsTYj85YDO2TU6EWtkvEK7g203MMNkw1yOw/fygt1EiWVwAJT/dX9RxzvCpTFdf6TlgTTKwe4F9s9kcPX4S6GiXgAysHVhkrpWEoqqNAU0LYghMURQ9ee6KMRT4iIfZYtThZb8VMHKdJWv92H3+LXTqg5AKv4Cof6hLm8zahLBZ7NLgDcD8qdhx6KtsiR/1HRnICWz/m5AgBjk6IgHcVXAN69xnDX5OsBnoHFefYNNBf6cCx6/awhGswji3WrrUzAatph3rQQ+rQfMPNv3adxM4MXWKNc/xNj5Fd49HNfryJagkBVLYcshkgPbdv3d9vsKRtFauqgE8JqRhkojVKAMocHECwDrf48fuKR45ehyRZBxVI1vwgjuN15YHBbn5FqQwQgABy0wAdm3x1imxauCiKi+EjRKGH20BQ7FuNC2sPfceVTTfEQqgFb8QSCYCfOl4xjGhWwpTo0jmG+EY7xMjTxZDYC+YlrdrSrPnfUqlZG6iIAE+AtwO53s1BSdoxkCBL63EyEMBMFLLY/rxVd0WwnxHyGlDXeDvof6CP3TNHPGTHs137gOYum0UL2XFMw/FyOW1quJhMI2iiFHAbJ297ah5RxgSUhPEoXhhY68x+KO4uo6i+KIQlNLbC0POWpTB3szJfKmPBjXpbYapFvBMdUNJ0dz4zPcuhYMjtPyTIKmIrQN6APWEjacj44bnwKkIq1nqAs0aoj+3RIGw+adZege7IP1BZBX7Umper9vw2meuYK4xs3AnyMz3f+KG0YlnD6KhGE+NJ/+AOCOJlZhuKmH2AuxZFaACiNd+jAo+ZUWG9BtoPlJBPQINTbmuMjz1+yJZ0CsC/nrv4DHqv0wkkvGRwWsh8uFElnH/4mt2CCxarRgH4MVFRalItjI2+7qCXvkBQqL20kTTD0emOF3x2GgqpLsD1lKqOiX74u31qPWXL2O1swMG+GRlNwKWSWlWz/Joh3qz1GIQM3lcdf14puSQi0P4uAT8AwHRcFwovEl81IPAXMELq334dPslIYf9jQyPhCadeFzyjn82jYIC5Ft655PAF0Smc6cWw7tyy7eEv1DSmh9OApMEJAwFspFZuQMMXrnn9vFH4c5PtEUDds2xA28hi2Aj52s9ccZEdO48oSCAj8AWrHalX7ru5+NsG00Bn+6nz3ePV8CGBUKsqH+t7vVAyPKb7A1mQFk3oPtd9Dunq6CgLEa9BwWe4Ugmb6Ld18nVEUFuux3n/tu9KWrY94lfaPwx/TlCJpwjd3Wc/JH/C0tCTM9N++HIu9K3n3s5ZqNwYN3P8AsSoxNhG8AZSm5dnKdYFL+5xgMxUaCHFZ+S9wm9UkIQyqT5R2ohKenPd8nO8jogysdQ6B0/hZxmO1Cng5w4OKDaW2XOOKoTChjYAhBR5ZTUMHagZGRxJZYg3WrvtXjcExzvx1K6qCtueBN0CcMHXnQ55HIkFWReXvWfbpYYrdZU6uLvdJM80HVwGbsSle9/SrYEdA9/tTw530eR/3onQA2/fUIJrR31pKSch7CW0gd0U/wZkulwJDz20oe9oL9CbsQpR6hT3rwVCDjYAq51ESPYv81NLl70aUvBq+r8mFNqRiSTO53CXvOLnQEd86K8bLNJij+AE3j/Agz+ZFvNAciymfHgaAO5NPH3K0pzkiasPLa+f97HecWWerACfIzKKaGVJSnBX0Pxe3zYafOBmYomWAjgYprIi9/ZpteiZX9hwEl6Vtrv5H0xYXHt5QPLiQPIb/MweFTT2dg4ugLLNb5Vco0bzzgH7CpUt5gDgwmKclXRuZ9ydbI7HCt3lj77GVHndBNPrs/20Fvg1G/Im9M+iLBP5L65p5tGSO1Xox8cBxTFDEXfmhZS5gxJCYiHsMLGgpwHdtPDxZhHy7UacjHoj6jMpmO4AS1xQVR1nNgF7Z6+P9sGJb56qWUDuc+krfVCuqU3Rv6ncl0qZyLoxUXHJyUYTyxKAoofzAziDAmcX44pVC7A3F4Tv7t8vRpO0i6l19FxICRg/ifHcux+0A0sx1kuHqFPZutqpzqdOL9YzeaweFZAQ7fxhBTH6Qv6CgwFgTkELAHpv1U0qxHd+j78kLjJ2JJmhifGXATIHgssG1WxB9RcUSC0B41eolQVc+DUyY/SIXzAZWCh7CzsCnMWDO0GYOWjf07VeEVOzS0nNPhrIpSP6Cvro521nhXUHiZvZvUKFcV5JD4lKAdei4U2uWA/2m124fvh+Y0/jgC31ggEyMD4gg7ivTDkNOwJAkYkubNEDp1Skq9cH1mvqI2eoUurXEl6HhMCu2MG78+TET1a8V1QGAl9V7QHpjp+p9XdqgSyO1GbCNzjI0x2Rggjc4NOTr9HZTUmUziqj+JcqVFnndA1UuGoLgPIMR5deA9j7XLaA4a6QrH30/1svlR26abP5HQmEwxnmPO9m9M+XpMS4ItVxn4K1WFrM203gARE/ODZvZMsMtvX7jLM8qhSyLjaHgUAb8s7EAa4chy1hk5IjIkACx3Pr3c4dTjZjUiz/EchdAS2zXX33b9gPBMNx/3UUmxjMbRUoOvCQZHuj1ziUIGIvyQ/0e0ne4pkDaXBCrLbwovedCwfy+11nx8WnJXQubpGdwBY2zmct3x0/DmTdEvY46D19mV/cvWt77W82nwItpcZO9D7ak5RpooojJSV95ZASEV/b/E0y0mBGCI5/zG/PZ4Om04zsIAcOKQBdE1FHmjeWMc1ZdLLapRXjByOmjRjy/ggX6zZBhej9eBInAWJAFhgh6KrZCB9g2U5BKftuZouDBOWCRtCOlqyQbucfzNMGR33dSjdMun7WkSKjWp03gpR2WapjjsWDWPN+jcM8yNZAbvX7qR598nxI2Kuh16kaHZHzyyRik0ZjPiRs8R7Fx8Bea1FHKZU8KBdIG+m5+c9knK7iLFV57Iui0V+q/JR/WnKdveGYIgs+8Du0A8yEGz04fNOASsVSnljOWJ8UTlg/L07e8r2tTYMpRCc4lL/QkQq+ye4Atnqb6cSGHlO0689Ml73Ae5xcAAEN0+J+1WDf+JcyewLlkcw4Sp7sZKVcUK2fxl6RZpb+2Nz4fwmzwR+oAtVJI9gMYj5BMjVQGwMl5Wa2ahBRwLaR5aBxFli4KYAWvTKnowmFxc14AJl0OdFNyF4YPHAlP4h0u2fqjh6JtUu6d6KE5v9Sd84ku48AZLepzW9sHO+k+8y5vtQRFy4NkPE2o8vVHl2bEC6c6/HJtAyRFGEyHXa4ZHRjEj9D0MHC517V7Rt+lDoXMwrug+bceaoOJOkVwciMJrA8HfqE0OiJLjeRDBDX/iZsvC8B3WdRSE7qlGPWUXJhClPfYEouda7S3kLtMC3hFKIvL+Mt9w8om+IFpK74AhPwP40W20rSADyBkDcSHLHfoW4w+MB9iBlsv0xgdgq3d5qlf+4ToMogDh4Ry3D6NpyDoJSwzEelh/M3iFBO4YI3WZKf4dcxMC9U0HmFM0iFzcvzDM1GUZYc8DPgU2h/8G1TEF/PzOHWhmzHe4P+MNK9yT3kfYgpIq7TF3ZZKxbx95v9/Gq2JfcIMq2+RAPi25+Pt3gDLD6Egh3DtglyqEnVzJQgCZC4ADg3oxV8PqQTnv4vTju4lOtoyZwASGYwE9aIPJmxuwFUPXpP5Ns53Ge6yoQ37jbeJFGH/xs9EDvQnS4TNs7caxfCUFCgwma/d+sxOLJJdL4/OJID/3EURwZcSOth7CcRsp9bA70YWKQwlVObxkG7+G73lp9XxhNxjrN0GjaI0hvOs5SJb1roOUWB32hZwdJnbvtRhMVcLsovxEGv04Z/zhOLCg4SUdV9aNY48euazx+ZQfo4Q2gJBTD4Kd5XVeTcfB3j5CsdGKWJcbyb6X00nH1R2wHVE1fI/gtXxzADTFYd7ARlvYxHwhamHWw1Hv8ehQXV8trILP5J+KdGt8Fmh3ZEFOGisGeyeDm/8i0v8KInOSenT+gPzTDLxwMR+vtMLxyJXls+v6aiQUIQzoWbQoCreKZtgzRebyqo3YSb3RWu0EE+CNT2U7QC7IzLd8XqBJBHcRDUwEOXXBVF+Tl8KU/Qnbi5TCCEaeHIgDDMNxHAgfL8Cvi0cKu0JtFvV7ppfzTeoJbVaXCqD2927u1R803YPKmyMfnpSge4cKmiZwSqN+CAHPJmW8t6EABq4S1lLPoQaPa96ADD+G3GRYGZVxc/RE5e+6SxhPIfKEw9EkjzzbiQ4PWynZ2QbyeSdFYj4xzgKFJFiFEeazXW3Fgr+S2HHOcN9+MIj00fABG8PPsezUwyarcdA8gBBcs5eOjtHJjrSJICdmzHxO16ONCW3td49tXOqpTgwbGiBSuIBKouBFfTcWVhZ8b+VA2nI1VOoZUBi2UHc1hxkf8UBdnVWTKAFuAGk4I2mXeLZrXMajh9Kok+WQFhcwDn/HwakDfjzjPGX3TWDJtDxnBZC0yYemT/iTiPrHR3M48t4LigRTulhdjcMQCHdHFVo7KpyimQiP/zWjbshdAAsMSDCxP6klnDR57nvbVjmRX1Q1s8stCuhvoyCLjTSIufcJwjsbW1WXxT0VXmxF9jceQdETKvrLX0dStlFFyVl1hUJnhwMqBzfmSSEE6mS3uMjOOAhVgubAf8D1EIUqD8UbK7r42bj9bmX37TljMYtnqt6SMMzutRIcEoCgt2wF96w/vcEQtyVdL8SHGopumDIgAZtDlq+H3cmyYdRM5WOKwR/cZrlrlhjl43pR/y9u3wpYGeZ1YKhsE3W/lT5ynqJ9yHeX+Q+VlDYd0Wx8xVwzKz9o1Ji02cS6eRi49WDaO4aXJnHzylu6phHTFN5niZccX2+Xk1b4G2gU8HgNLGg0R9tIOCToDa73A+Fw/3KtWJhJ8eQ9qwU3QNW0ql9Tml6xBEakH7PEtsKEXjm7QifmcbWT7cAPs4YWzmgqnEII8DCd8AB+fc8Nya1vASvB0jRL2lESUgviDTnzYAvTqLBDEBEJ5uvLee+GLHT1p9O7TmTec/U92Cp7uPfiKAdtFX30/27we/ECOCLb81Akz+T39i0E/L8oolnFfMxEsvk452l36UECB7XhS9zMyobEydWAOGmqoh147uNnt+D+p+ILXd6Y4Nql4cmt/uXgnyVRsTDR4dJx1otEhDHctEH0U0t8cdlj8p0qUwbn/qc+j2cjkXwbJUNgB+7SmfnGzv77hi1OT6vQCZideYpPgZFVw9WU3QbwyFoLqonWe31rmDBDJ1EaRaZKJKJTITANYyZxn4G87EAyRsbuaQH1UsmrLUbz77Ra8v79/vpYADVI+mSC5b8YAAL2KNQIXtUPe3uf294iGTu2AZlqAgpSjYEfusbVDNQcNyHuKywSFmfQFd2xtdTgCGGGH45Ail2JyBIpiqkde2TU+yvuRYeEZB0hl6aXFopjzJhZxxCAxo8BhCrHX4ZLuQ2Ly8Ilk5RvGRQd7VaGWeBvZcS+1mZQI1K8vUBfTwj3FvlRKBr2phBMPCGKIGuw1NF+YNXzEBMEK5YPhBeE4jE2+l650G7MOVxZUcay/MEWdWsIokpWX7cUAOuFfedzJd0UPr/qIYYE9Ce6nZ2poH3omziwRlNltU7j1gCNLM3BArkDCgl7FCk9RYQ682rj/kTOixD29b5PvBSb8sOzRR5xLa3n4LsLXwFIMqL+jzgFYdotXCw6ZIMKG5EOeGAP7WTCTgai761voPCp9f7Ihb/t5e8CSrDkCSzTc+e6WvukZNtjq6YDY1Weq2NYY/gCC/Rrk3+hoRBuyQrpJiWT5PMvVM1D2OgrzOYfL+Nl2n3mJS1nWlkrZga8D0isRRYl/Gn4oSX0ZJfk8d9e0UK23Yj/vcyH5MjUBDfU+ZkUs/paGlmn4/A2q4lKz5inW3SevDs8Zhl5+D9E+ZlgtdE/prQJ+4GebD1QseH9UO4wSuRvSblCk8NSIdhRdErvRSWLMJrEnTZhG7sJ+aRnOwklB/bGw3oOOaoDaZyl6mmq0tLzgC0B48tH9jOv+KlyqSbTN6gteM7SQQMJ3lWb4YEQYvbb0ETAALzmzprJ3Sf81lF4nxzGHT6eejxdTp0G7mq4QwY90bLm0cVttPLJVzOSOVeqxznW6GYpMYGS9WAmcimoeQCHOnwu7/VysX5u3+KUToSnwICRCZ9ELJsJdgZGr5YPsUGRCb2/M5AJZPYL7Z2MpgjOuOTJ39ARwPwvY8IWPnBbttLRCoQtQ6rGrGsUh7yKgNm5AaBWZC05fUcSNhUO4QcmP/QIog0LdzGqZByjAGJNWSblsGLc4wdbvKBnlUDdWvHFaPr5LVf1m+LlT3pJmMsDb0kkqUD94saW3PXuH80B7grwNYRHiDTV7NF4uZKffyPZ0/dHCDIl4W59/K6eYt4gm2APY+JPLyUfIQm0ZwUyio3X/pjpV9qJ5/qns5GUrX6XzOt/1viLeoiNaMdL8Efl9+U9FryzxxX8o8TrL70WjzUF8aC+/2w9Hl8eJRQGe/+0vJJIMEkmPaoNwc1nzZnrTDrfsmjQo4QVXdkFcofQyYzWvnupGMybXD0ynBWbyNDf6gXzbBAuyGkMcXFgZKquk3QP+BcjgcUbA8stJQp2SozFNkI6ZUYZ2TQB7obPAcpC9/aIhoOu/to03W7WjjoZKQvQzdzr+mxeiACNY23tckdsaE4xP66VU5MEQ8tn7MSX9ZDv7GAygAKO1bLVd0S9fZI0DqgeWX9Pg9B7JocXbyR7Mw9uyWtNYx9PhXaZTPuT6JZkqzVha5rNiTg0865XkyP0pRfzFm/gCG8+a4yAPs56ZG798vjjtzzIMUFci3lkqxMdvAcbIsoC1Eq3AsgdrTmTICnVRVrOkmyfIPWckCSU6miGMnLGKmWZL52bNXXJwU0EFoW6q0izmYg7Oco/D45ZDM31S4HSxH3RbvldGaTSvM4izjaFNG0391GAKuRUhQFsthyR8V7zQXCs3t2itHy0wUAkgu+H5I9XThqfnVcoZLy4rSQHX5YNiPN2fNCrGzV5N3XDYeBBMr6mZqGY5y/sESypPDWShCdzdBLlSNsl4YGt7GzbSMrXMoQpSjka3XpfG/luRElaybboRQKaAKGKMD3ac6FIlKy+azvoI6o9Q00AC0pPujj4OkWslZUwrgG0xsSseL1LMV6S75QDpnNZcyCxCDXPTyyv8F2ZGHZdt+65vDu7POZl4mz8sSPxhktTiAyWQVHxa7tSBzTvydQ7wpZIUTFOn60HjHrI1qJ2gDsYz4PsqaC9p2Df5TlTuDejiLbP7OzYuNWFgGS+CBpN/eCZkXkXb52o+aR6G4cA8I3PnKu0yq0htjQhzyl/dZy1iX/pwoLOZZa/vWMt1+plcgWmYYrLOiyM/JqqK3uPowMI/HTUAAAiDq0Btq8ytJx5AAb6N/CDHq8VTOnsLigIu7ubaEwp9IgvsFAtQ+LjW1j2iGRqSsLja3SyYJ2Akzgpcxb4r4tvxbHJBhVbKcjKPRmI5CgK8x77Abgt60EY7thRyzyW2acgaf4UnfTvs7gnN4yAyM65G6FTkC/WX4ZbzaSe05DPc9yo64siDpqvE6Va9vhWfgY/ffbMOgmDWeFwVWhISs9uukXjFpum0q875XB8/0+3QZU5UqYzRZhCxBpveMEgaTjP7t/VuEfpZkfKUptamYw8//2DSyMeQYN6aNuCMFDIt9MeVop4BeWEy4XNp4Wuw0SCMsjNUSbxbEuarHjFN+JmSBZMjHD7yR4Q41hhkpkRWhFYvnZjKTlHgVJ1cFOpGyXgOBXXiHoxHIWKpL1VA22cCt/zYPseOwU72ms4GN+dRhd+sG2vpZARbPtXjuUgM8SIH4+rVqD/0CxvONjqHh2uvEMdshSLpczi09tI+ZnWneLgqJAogdRyuynFj8kDoA68nYyrg9HZ6Tb+q3ti2N/Ca7U8KWfDudx6BGvZxmnRocwvpzkiwful0pDKqpR0k0dCEPLUgWKm4bBSJiep2gJCmrYC9qGx8BmVInt1IFqbrIaEZrVq3xdgFHyu6a88g4Ke1K249zl/FI3nlH49MlZrrQdSnVCLBEgECykIKOP+h9pcqds4rvwe4YDfB4JUvikZJa3vvN8kaUvCRnwFj4RtZ2rNWxAc8WJ3V+UuvDjnvyntnQftYDVqzPgU7aGXf8FoXbpAJ8dHWV21Vc1Mg5SIHgpioNTLGgDrTzNZI4czgxgyiYum4Ae1afdbzNl//PIKk/0ZvYuANZI3zZt+68VjrjLJmHUnCUWurQScz1cbA4mgc2jEKvDXPG31jlMRHxjTD+ifPsm801D9n30QbrwjJId9zK5ArzswgL1CaaP6r0grtFIas0EOp/V4ffDctjEhwlFAuLdKNp8dqyfFW9zxXJdRYEoUX2FTlKGe20FS510a0XF7qdEwIGHyoERqtmr7NeX3cV2s0pPlusCsx0Fo4bHAW8f/zIkb8rJIlo7zlKisCXMzKPD9uWUf8OXsHSYFL5nPGtBuhtKazdQBTZG9FzwPb5u8qDjrp/TxBOGnD0hfbZlNS6ZDGTcM5D/01tmY7XM61PnMxWAz7OJ2k7S2dz05+O6CRchfGjsPiZFT5bv/MgXcqMeXHT34wzDa3eIZsAVkjY1sQXqVR+kkk9XmE+0RhMmR5j+HacIy35aCB/oahr6mmxkgamKEsdjFnj350qK+P/9Jlja9uaD/56ygIXy7GCsJpeX7IwAGTvCGNU2AEYc2MVWa0tiQ4jYvORoWW/fqcb/pEbC7KVZnitIb/EDiDeCT0Mcy5WUXQhsfx/ivL17uPOc480KHXK0SdejUHXqXYC4qspGBDiBHV9tMoXj7kPduwvdR0UDHXYVEmDeqVYmmbjsT1BZi0LF93ln8aTzPxZh6+dRVSIT3g1dwRdUPWlmw33WsrtEdLrIE6Re2/leobIvQCtcW4Ge5VjdvBCoUweil3J2i4MVtafg0oQYmeGxXPc/aZGw4L+qMIYJcFOci19vapzRaz6qfaZcPPaGaAB3GlPT8ujbdW2J8xM+bygkNGSYhn3bB9YCEM6dWVZeT1Tok8y0QgPU5MLSdVK40Cpc5FbWWPLGYYWPCl2EON4cbIvsdYZF5jXUcVMKMHRnUPbS8bWdpSmwLfQ1a6gKXSkx4Of6VaRh9AlD3lraK1BeRr8afTxf2ZvojXpN8BwjX0z+Ru64AMnFWyEAx0C7jptASscPu3tZtbmxQrjg0vrbn74uM7orwCH7CajidlAo0bX12DJ4WP/bJ6zPxB9U6xxnwMaGJ8TCTCekcFXcSEo5Smzs0JpuQ84us0F0FglVmapGwV3UycCXbT7OJ+DOMjOCnlB3h2Tqq0DlE5iNwaQyc0Pfcuy2EpmGSP0FLEV1KHXAHWBM+mErNa0OSAKBORCf5xTK9m+Z9IdR3hSIO6aOQSbiMky6+fyjpmnlSUId97KjZz16n/inY9qXaBTkKqiys/QAPua5uznFyXbvDcopWCWCQA4cDv/K4BU08v6/vKsy6Kfz7Hc7KS3hVe5l+jHQ2moSDmC3+zxuv7IAkKC7TP3ycVYkkKe5Fg4NMH0ulSxIN7M6sU3l3QgjCAhfxIlfyQoBEj82VdbLvmZCpXt67E5cL3Lj1i3CMrGLsuLDkL8r6B/jdz/FiizZrgOz6BqeyyPulDfm3bY2JceR6Ki9mf9r4qmMCnpjm+Tj87lNwzinRJZB3KltCrKRFKxf1BjMb3gA2THtrNUv4JiP8pAku+ZoWf0tfWQZ37vA8Bv9VnEtX15NZuS4Z1TrJZaecz9KfDssUmV/QhRqNFDlwI2tvqRnNHl4vuQvso87XVIBS2J4s8Vt1ogVXlynLu5VTjJPB5FRH7IwTi+d+0ZWS4yL3/NMDSeQcFlcn0x9W1SueATAgPvHeKh7u3nEnHkTcADT7/6d4J7HO3nRJVeFw51D2J5ftNK3M33yxvq1psKWdAr4U+9nljmU1P6jDkNtH9VI7bd7KXC7TfFbY5H6HSt9nYUf9cHuyF5s5Vyi50lOLJhoDuAA8ksnQhAAocuQy31/Bqy2Sf9JM8WBoPMgJMAdANOBtonKhn4QxUDISyfeIAEdhBrJM3GE6z73Id+aOpNMJ1JAraqNlNd6OFS8t1EufShTW0PBJ4kGvfOxvz8pWr7J2tefZ8F7am9gxxDsBxMZdg1NbaQBnNIq0f95XjBnsvoUm8WY0fVqSYSMy4g05rzdee2MkcBmB/X8X1QzUdmGZreemEZd4IjnVG6y2WNvPp+k2kPEOocBgutKqzlGF2OwnjVFAEtLksxbn0YrtKJRZ2VQIY3sCvLUYQFjQ1i089KgrQ3Mfi3e54ZzYSXfGDLbvuwe/uXEBMBGKVnwU99jwpn6Bosbgz7r+hSrrsexAzlaLN2vl1+3eCNAACBvHglblEWQyBezqtjzsxCTHSptoXQma3MeFjbVSIK3RUqakuOdwhC58Puk24cJ2FpziEHCeqE5W7KZDhE02/oq96vYtm0KdwF+uuiKbyhVo1U0ZoVKrRYZt3NSKE3ojUKcHkhS4EJXCHV8MBUT0/VhmdlT0woP8rdxbfGj5QJR1cztT1saucQikwZlQdZmWSt8+lmwTFNaGNkbn/qOTMy/PZ+3iREl2jtTROiI8tnrNKixLoca/da+3mJUni2jMZvAQAdJaXx7L4vg0cTSumny0h6PZqSAIxlP4pI+P30alua5bXUw1rBaQJNfUIOlH1IX49p6T+9w4PrNLOHNYMKkXGtaLSdOv9ybHgs7imkrIzxIjSkB+FqXxIwSuIEHPlOV40NWZipbdfw3ZMdHS8O+0PDQvO8MVVG+4/mj/27kgmC7h8QRm8f2a3Vez/g3yOSbrHligdWO/5jlTu4LVhjX0WA44ed7DgqDlBn+0vm3TG9Qkq4ZgHXkVX6XA8W+/T063duTn7HA6SXClrNxFuzVFh9E5HM3svuI1F2GL/jFwV/jfXTt7a9RB5tFPVC33iQUcasOQmYtbofP7bZzH3CjIwy9e/tIlhte5y5z0ONOsrpcglUKZ85v3YBFypbNsO1bLue0aUWuu5ag9LpbITubgl8yU7UCGacyugauKvGLc4TCJGn0WbSKKXb7eTi4SJIt1+a3vdQXCW1Uvqhm5B0idlIP7wWhLPMLqUU7QhN24Ots/d2bE74j6JpB4br7b7wznEZlkaCJqquHFKOE72FsZVqkbgwdOvw89U5orcaYYyOjUcboq1G5cbhChCyXbeY0vm52mclcLeHIFNEL3kXVOQJt7P7/OF4W/v5Te6b1YYggu6jJCnxiCPGDT1EUdB8M4EU5YZ/FWgWIT4uzn6NvMYANaQYAR32R7igcflPquXyV4InIkiKbqerMrZ4mn4xsNFk+7Qql5zeifL1ELwtqCt37K1XMEkDZw9W+uJ1PiIM01e2ey+nRPiUE+GM7M+SMcYn1+ohIy9eBngsaghhDLzqd4QJH/9HG5yWHeM/PyNV+ZEehpqMX+ugRFlOEsDmcYHPglxTPqxxQjMMfeSWlSQxfOoV5IdqmiFetoc2oXeQ3lSjVivQEQMgL8j94gvI4FBb6+7d7cfhliNWKdXgJKUU5vmk4fcXjBKrmUqy0BA2HTVJj/3Uwzfz650H5xKqXfpUsRchkOodCYM0nTIDwyZETH9fUkDCO9p5Iu5MTEUkNrPOVI05W9CyJVrX2txiokwjpblOD7bLXcE2gikymheVGq4Md53AnopQqV1E7BK2CdEmo1nEsGXKJRnF1/WmzQepq1LvZu3ED6cAr5XtAtNiJGWlQ1aaCWBmh9fA8C6TmcAKZMiIXBcHjnF+HDpeeSV60Szu7JwqtA/d+BZZu52ZNLAGsFqQgXXDqg+Jg1JDBImRqAxa1lzCtBvm7HLqEhfw4rqFHuqmWxV+/826pePNsBn+BLZF7OIp0nwFy4xCxRq5pz32RzRzlz8P82t9SycLti++b+AtwaQi73unqhsporkKLzdYiL8xzcvBeMSDRynNcDWPOGUuE0px6kDwJSaMqEo4HfgDeaOqew9olEvFnFZsNXAnmP89Euq2H+FmkYaxkNxmbMCsnpAh1D6dEXpRTSLBVRY/XUcUgGwgYhw8H90WK0y2HsI+swkdZ/iS1omuNV4sKP9okLf1aNuTBHDptvbUNdxjtzgWwRDzzm+lRCK7d7tFJEs0AX632BfHObh8EwWcyEyqc2gx18KKo+ynmGVwsdHSo9kyvXNr+D6LYbdopE2ah4QAXqZqz5DPUEYqbQtWMMt2UChSTJ5LUjRwjZRGvSA73XQfn4Kb3YIjLCdUG9iQlnykgntWdUIY9NJqfZwtFwYXAU0dwxWPnXrBHmeVCAWvV3pJfDlQ7tKpJ/Oa1PQzEQZSV5YTzVZWDqGHjB75JOFJuajR3uSos8O+v8Y9J1mY2lbPfvBdnUQe37/f1znU5sPOQ8Rp5aMuUSIztnvjpZ7X3lr7UNrFOz2NGkKqJ5849GoAdy6lmzjSiTKffluoHD87GNNKRIDgGpv2hF4YYPts7ZQZ18YT8M+gaDhvIFUvveI7HbiXGr+6YPKCm0w3d8nSsRh94zPPsduHHGuGjzfjqYfWdfa6/i7CzZN5iQKT6lT+RqUojIOMys3s8TGZdwGUkM5UAeOjZRT58sMtCCOK82Dv+Vg1VD2LlvkMPybbBUUxvt4YmpH9xZ7WLOnCxqOwQG4pCByKkLLnziy0NMnR1uQBpjmtYjyzF25fkXM2w2ILNs2Vu+L+KdHyggexxNZWz4dDBXx9IummVTk94xg0rGZazBgZ14fulN5zaSlx/CVkS/ICY08g9SZwBroEDhB6fN3xzjVgCEpv/1vskDh01x74BbGN0sT/k2IJZo6GWEN13/XFktFgwD54IRMUd9BrMCfcHqdACBDOy4vY2014865WJvvOepWW+CJtsOq4TDttbreNTAZ5qcsUE/40/w0EG1ZDZsJLTzUlWOxgWyZCYUsw5iucSn0Wi7z/+h6csTKybcsHKUAHsmV2qzncsfbhPmiu1VLhQZqPFVN7Q827rQdNcw+CcNaFk/2Ga1+SB3kac8vDNzcPiKqS7RwkVoRXTCB2H5i/MgtnA4G/aZQ/4B2I8VkmJlUJg7IfVHhwuV4JvwhJbNfCq+Oecfwfe7REvCu5p2hn7lTDsbPp5OhMrvpVzHR6Wy6F3CUUlGvx7WVDd1Iv7dqvPdvlzC7fCg611uZck2Zuzcu4wvQogdjiIZMoVFFt/cxP/vdc8ouIfKVqj2/aMI83zsmsinfuhoh3dyas2MbX3N1Y9Ds+E2culd3VdxdbGiYC1Jpg+1Jr89N2zXNOOM1XXqWZOMm/6oJ8IEoS1ZtxgSXYv+LbXftosBzSf60+WGf3sBmT0T7o+YIyUtnp2hgH4n87znAU/eqS9HKdgtr+SbBmkiz7Hj0Tf4iESgYHf88dAecYU0bh+D6ZuJQhh/a8M4bNJCTp9UIACzTyiiSIT/owCEx1tzFdbui4HwsYS0X7ackVaqaP2eKk73VwsqYRM5G0A16ADCgXMA+EEL9EpGZG506krnyYjo+YZIOD5D6oBd1GSrptgbjxfTvB0n+imz+RESxXE4Nj2VzIHqC8igArILKgFVFnFv2etFU9+3h52XbtG1Ajfixs+xLzc4qO/GKb9e5oPsyA0fL8U80Tbt+OivUpTgxvEg4ZCNfEzPYTPiTvphiZC+uKc5ogjyDUZiqUvp9AW/WO0b0L8A0C1gjj7HBI3gp5zTIhuTyyDzEnSWB++IyFa3c4CT+2QuaCiobcx3sQIGjOenJSAzv3vxgIF6HFgj21PkobqlJQ7nFi1MlWo+2kpXANRMwxHBW+xZrVJQWV4s6snvMp0raKj9v2qBsVK9Z1cFD/3XkhhrWKO+hIGSfJ1ruh88AdtUUMS3tJYUyR0nD4JXWJMBglAzDoTzvt2ag1fvfQiK2LwRRdyGlnMMLxCdNiz8y2OqWi8oHtjMyUuEbYAdrhI0zXSwCS4ei6U/exLJjbO0jAxp1WCzXkAc0PlcsnjjIF4aKaBvayLVY1vXKNQ1gUHV+ecxuHouJbObnou5Q+CnKMFt5AhsqqGp+LYe1bcFK2nKnQyL3XMYJlTRzhivphRIggyMBjUO6BfKoVJg3NIeomf5Ui4bN4OcL5z50XVR7nxloOVIBMjWwYh6RZaFj2bKUXLPLKUUB1xX5jwjPCBZUqMAkd24A3EuxFm6Rov+yfRV7lIr46FSvSz5OWdDmkKdk/Vi+ETIoKSd8k/i4YQPXME1T8UnVU2A2asIxPNIhGj9u0WVc4yeQkpEjyf2CXfdnoLYxC0OZrnlJkH7Sd6YxaZ1KHo2SCNRl6ro9ZA4A4HYygk9PFSq1NbJZjEQDidjef7CoSu5Wu7WjCduSwxSqST/ADdMqbWHk17zt05HNejuU1NiNkcCUm1gK9MiYTpnWiyp9WglSXTRvm0C8kIjvy9YgJVpcDt9cwAce0vW6W8Zbla6sJcPz2EYcqlGkjcO5BVor8A2tNFbu7Nzwdq5iGJNI1/TXWeUQIYEkBnc9gitZ/Z9Ws3s5n8vr/aWJfU0n6bRG5oDXSjRJsc8UlxEEuALAKnTNgT5jPYjIz3q2Gozk9gRUKUBjlkTjFPzY2AA2F5s7yIc5HoRTsU8utFl3Rb8HujmttOCGwsUfPMiWoaaqLrLW4D3BZ02kG73qPy0iEgUpBz+YZO6eYIAjZoYqWF3W9Z/6aiiPdZexD7E4vVOfPf6dsQRso/GjYQrUVhIlRcWJVjkrSp4wpaufYBhCPibBXZF2h2sVxnzxRR1A4r8zGbYdXHDCcXTcipX/29KK6Ngs/PyJqB+UjaHTW0kWL5GF7v2LBW0p4m4pU4rsDkRqpBxnyzIdoH5WxKO9Fl+fLPp5kWm13vDeMuwhhwzHTb0Bni3kLf71j1iz+4q0p5ZCPfhDA8rPkcp3ibSEhIeiUgqaYKUqc/cPwetnhIf1sAvIGdeHSUobWP7L2voBFuujjkW1TjFI575gXXMOKUWxEs6hURpPkOSuGtjVIfEK05WEp6xlFOnmxAJ4noVViueBg1mPN4n4NNfatwHcKF4xnrZssgVpKpjRXws0FjGFCRPuI47oYZyxExG4YVaElEDEDPsrLyHrqWJJMOGPepCT5nSoQuphu9f/QUr4DWSMXP0Dkj0/E3rVfsNBkkCSYtVmgvxUit8LV5w18y3S/ta3cqlpNtdm71xExJOimNv6NNdHb/IO9I2LP6VhCy9NPlgnrhihZBBBzxdxKcFQ6LtnHaXP1+IqqmNKjiwR4JrjHnQD+MivtG2z4esL5CO/mfm+eXtx6915XB+1dMnWdGCOp1jlFy7wgVa7C4RtxDKWXhtRkQXa1hECmh50ZE7+nL3qS5C3n+iRQiHW28i7UBVjyaLYdXphTvEB1otLt6Lx3dUQ69QOKcldTr8DhpYBe2w0pcr7I5b9Snyh7uMjuwxf/ApJdAB3wquwtBNsdQAxBsoI5+1H7B/U3ToFo2RQUuPydqeVJLIZLRy6IBAL41uxuCmMxNolg8MDyshHCoPSkkCLbLQPICnVUw3pX6zmGPNJ+NDKSYEgCb3gbq+YaZ91LgRvwtjfuUmIZYhzapSTyi5nW63q/AC66m7C/J5nSqjiFjbTwXWR8TPkJYttTEPPJLcKkTdXp5vQqoGOFj73LCdbYFrqwHK0He9fN7mfOOy2OA9HJ8VpPOwFggiMhJtuHNIpgboN1sozVsVnyRRXwkNGHKJAuobj/O9ZQIOTUn2pbuiqSyFUdnNbKG490J23XCYnH+y8jx/pu4hHVJPnnGra/u2oXTaFUVKGZkuyguK7KVhxkI8V+RXHAQqcHhCLB46NJcCRAEH96COxvLVjuVszYZZE0HSzZL+d1kksvxVHnPXDybBGpLImjvx7rPssl6nxhbOdJiE/KcZxQJXbZokwpyM/mmGDD7kbat1Ce26e2g2bSOp3PZONqcSW8pM5GrmGN+JRr/NNx1O9mkfcQVlghpft9O+S2VskI5JQV0SsLukoTmA9jFzzH3LPnaZu5Ky+cWink16oG4nel3Gxl0pWqC7LBukHsQdi0IA8srBqqMp9boFSlWGlu9BnT35K2kXeQpN/XBqK1dL3ZIbqw0ugzK/ZlW++dFAvOZzNSCyCDCYQfju5VMJ9V2STOq8J1b+QOZ3wnnxfGidZ9AZQA9WVWpRi0SMWFWknCw8WUmOdoS7VbqbN5LXHpJP6JhqWVsbf4FhxdJAlCkizRtJKb6gc2K/qZ3QeSEbYal2ao0CPhO70/mILNqqvd+3J13b2B05hN45D3swnQQzR4NfiWJDwwIkpNRT7cgjz8dOomxrXPza5cQVr75fBcVqo/ASZPV1MogckPsQAwATYTM+13W16qVW7yvBxdcuYHvbbkW8czoYjW/dogSTBVdMiA1YBhTo6gN8ce+cpUc/xKntS2QX1IMMnn1h9Au69hmdvKFnvQUqgUT1QpNbnyI9K8IY5YBYL5gaYN02x1KT+aweLKpfQ110Xe1A+ANAEgLIGK6rP7knz4dR2xbMNMiyg0AngEe/2RkRkAc+e2lSmyw1t424uv4UqTv3fWF0QBk5oZdQne7CVZjdtsgkQFEZuyDreUbSTIbUb+w/G9uozKdETNKYfLqPt0cOP6E+gEjMEQ6sAlm7KlXYZ79o4LDLAOgFAYTWF8uGocU5V50mhiY2OZntd7yUupLaiP0G31znFml+HrE2VnOehmDG70qgvlOa6pmO5bID5COJYGzIhCP1S550SkH7eFjEclVfmyhSCODpMP0R0gPUA7dN9a9FjkngSNgg4IbFifAn0ZjAXtq0DQhf79+o4MGeM8aEulpFKUTSSEV31H1yD4UCZ7dNQEuceLJdAwCPq9LRyKYiQEW398A9iNjUUuKnBodks1HLloWsPmGx9avW/5K0TElGqclWih3/axP/DmMiX2y1u0QrDcZ0uqVtIZUvEK8PJP+tbCsCJCqnq9rcHjC/SHFKwewvnGhy+W0ZffHGIYEAxXeTyKZXq/HjIHXOW1eQZFWLlAsk2DpknAz4VYXlrbuQ4WWw0rN4xNethyyzGsaB/Pf81p38Ehve3Po/AVkl0eTMTHM2uXSM0lBb94Qs1b33BoNUgdHQ41GDF2DRa4EsMVgCBmyEdOmi4Sv6kDilKHO3jjk+xCn+ieRfcv3ovC64pgCjikh0yqD937puwW/xsNLbCZu0fSSUtqyeKMQ30H9/hP1te5MfeQty0a7XJpve1UOeDigtrJlw4ohgbbpKxTbfkLLuQdhXf1zVCIsx6+DvANaElU8h114qf0n0lsRUciUvBI0oJSpvJ6UPfajMIxKx6W49AG2bZ02fTKlW5owYmxsVE7bONRUI1ohXT+wgmypDJRzf2NoJHUp5X21tjy/+gwYNP1qz9OZdt8y582l1Q2Rj493UokoBSosQ5rvgsK4gMnfyKk5dAu47QxuG2q9NXNxUAZa2oFFF4RmsMP6UebBZgQgrV6jHOjPlesaH+OEjzyQFVYO8uUZ7LaEZz3PmpUAsesOlPTFA3CaFyM2xj5jda/EHJaxxLA9i2OolS+DPDJ9PnsIJuwrULXtEpmoksJZJ61sMgGKpWnkfVsNqZC8lxIZVx6s75ZD7VwEI10LBOx4vU8VnUp+aUevxu3izBkxYX+YcfbzAaaSCgaXLUmqkHvdBB5nl3hP1OTPJeSC8eExK9jxxjw8kl0H1euuVHNU4DLkI+j16+moEoMMk3uxreBfBuqaysGOb9BG23KiNZ5YUp26cExKTJjTl+qHVRaQs2HPPhavgbsxzXP8/rA+IlGx2XLLwONacDLxFsxqrqcolE28c6XeHglNQKGRi41lGaeHRDjqPNLo7MJPB+sQT06M+rvAW/WGxjr3SvnbrFMrlAwapuvlosuj/TDa84GcZKcMeY8tIBWv7Ik2Qonrm7KQjNrcqcURZ93W7gNK/hoFvzbb2qj19uGV8QD1bpDiOuFbU5vstZZY4Y4QZrRWfqy643NVfgoLoD80PFAolTDWMI9dM+fEmyIuWmFququ9vpQGNxcwc43ZHXarBIAe3InwnylTzlQonK1Zwb5fjeBfUD5PZaLrQ5+X0Wr0SOWqUteHCHxldw/EVrHikybcBoSYZabO9WwiygFuUwe1E1dj8PT7ML1S6gZsZVss3P9gHRk84UY9A39cwILRzPmgXRcYiHLMTMM7itpxuI7mhAriTj3SrF9f6UlQX/39qqeFpQYAfcXl9DTxulHp/TBFkyAKCLIM16TmnlJjQkuulbv9C6lkp6ruTBmZfBc3HE+fpUWTdgu3iw6m32wAG2iwLYCEmaRRlShAqcahCKoVsSZOG/yGVadLundiNxwkM/X0JNRpYyH2BEDpeLWsgQHifXHByv1YXTBFMbACdgq0PhIaMGPFIBTqvyhsolYwQu3dqNWMkC4yUiOOd65M5okFh3eGQ261NUmsC58kYI//pX3+64dOtvkZXf9rAq+q/xR6Zeu3k5KyKsOuDAjWkZwod1wAiCa64p2BOzSWLYAbe1jwuB2NISRqnghB8UwVrKuQoU9UZ2vV4dz3z05hDVs2D6QY0A2EGMpqnZ2sSeh9uP8n/4wZiRifYA2VVpjf3HXpJzPgZqwSunrmjoUuAfa8XZ9CKEKStUVgpXpd1GyTkzP9TneU2xd3VC/K9mYsOhPvDAXISoeAlkWsCRFsROrqq9o9e8HY1cVRbpFuCJOpC7ytX4Zrxn8xGvPq5887YmcIpHU8pM8U5rp0DyUndCvf/5N28jnMxkYWjE49xq3doNUzqPdMn2OD+osSL5qhDdwtyaQz5TozpMXcE6rYkkI6o4lawGf9C0zU0tpeuaing/JZGaYsaZ3ldHSx6FUa1fEqf8dkp8otST/0m9mR7QjTMhgKRp/mMKSqOtutBaW78qzqwTZ4NlleWy5ZXM9KTU1WMQa5cfbI5HCtHY7235RlM+ylUYDAS3Z51WLU429k9vk17GGe/zpOHrSD9uStIQbhXhhdq5fi3DvZYHiiu9HGePqp66s9BWhux7pTqm7sVvnmyl7W+zjthaMP7i4xh3C0x4Z9K0K73F9VSO/qfP5FEFRPsXZ/CaWpMwQFOusXEJNiOn94qdHBQykfiI33cPwQDk6fX9fFD1MEhORCMM7fCaokWNB/BdZLPNESzl5Y3H7UlCNCFLnOY+aS6f0A8dP7SdPQPnxcb1/RKuH8BT47zffxqqbWQAXa0hFAJqKnUqAm5DT55CrtAyOKkScBrt4bnp9gJjQ1DadD0nGKFU5h6qIcgxr76nI+Iq1BunAYgdk5H7Ti1mmGDknfOzzxOV31JYnVp8K6aLoeHTdz5haU4Av+a5V+Z9wNFhtKDLHzQFay4lLlw4ICl6DDEq3jKkDp94mQdVMs7U6YDJdvVc8siDKDNh+4HwEP7I8aFVGyrSB8dbyNJYuEDKRzL4XejSrqIzmHXdsld5l7yWP1B95D1MCHiduPAUkrASqAerS6qCsnLxft5urQu7+wN9eqfDk6DVGmw1vYW14jaj+zLktHlosIdon9n9ug71cFQhBhC8B3tSUeiABPeeBKPCfFlkeYAqdh1hCiaadqCFfZQDbiVTadM7ettk74R4BSoadAh2cF/9npdJGwjkDbpXfVvw9GoqaJnQ8NlOqiJiLbZ+yvrxMvm2uIqgsnC/WXTdybLk9LEkbGTAQC/phLJ4hTxYHYjF0yL4efeV6eN5zs+YziFfL0amyYjzvtBolgS8RCqv/EKjYC3NdT/QBMUNnWEy/PsAE4NQCqyg6Ic1AfOC05yy09TV/kQdh4hkxRkmgX2Onnxe9Piqms+T4fKJAyoTNkwgE9tTvNXgJcCTihsZ5oVauwrdoJuBApaxlY3XKkfFWb0zSld1mGnBcx+2usTlJRzXJB0W0B7JDVUpXOxfKhrGpno0kOTNwEYcyNL/aq2FGvQt9y673uIcdZk7CFg1PNMuPIGhtg8PJkLQvyD1vXKNJZ+wbpptYiqrsvgqmMcQBGABBL6z4I/y7x6/ut+95C8NDtd2Br/rQ6v3Ze7Cc99xjoY5pP7PA4JxBfPJ4jo8nLF9lPaRS2rMsvQXZ7URh6pQH02D4sJ2ipvsQa6sJYngs0oVQCniTNpatHm74YmSIuM27C+10Q2Ic/f9e7Br0GPCvnPS/rOfk4jKAemVdRVdq88XaZOaX9c6wc+gLFjG0sF+gjBdb6ipNcqFzJmiG5cWbPnPoJSf69HuiMbv7y/vflqZ/DF7iFVYNfmII3KV4jbkZ5ARjETDn/RnmzCamxTU4BdL5hJQZvhjsLoz7Niv/nTh3hrvGD/Z5+TavT4aMnr3jWUcAouU1EopGmvh4VirfExWmeGCFqTlnCUIUWGQPocyLShmTQDAA+f1Fxq17RE2D5CHaIsV4naPVE9LpZcbstektU6+BqWglfNXVXOvbhXHP5+FlhlBeRrbpBE8os6gQTwkZdrK7KNLV9itulpKfV43xc4anNS52OeprBlRAxk7mFC3Xb/kjsMqwdmi4+szYMbbNgsZir7H/wx9o8qmeio4raU5V4pLWajhhz024R0AivrXGmZwoCF0yIg3gUonOme0n/343A4sGLJkoHX6hLsNohZDyCg6YzblsbTJ+z+eqJUZwPBLsh5T3v6Zrcqig21glFCFSgTbFQLRU57fpmVo+87fL1XinGLVIYBvRzR92CRl1/WX7102+yZ4jZEjnfIbK8q+uDNZDKU578Uk7EyortJDeFaw1j5ldllMJaNACXdrYgx2BgqUvK3jzRGOlhYW7lYfQ+8X53VnyR7gDfmouZwXjdTpR8I7/eyd9kIeOTiTJgplItYFXr6RTPLHuPUUXaBGbBCC4y+vN6ecxzAux5s+swJ+vOb4dhia/U8FROIXgReOEsd4Z/ANL8H/XUsyLD/wQvUV8VkwiGWMbXDUCVFvJMbJ5kPFlZPNZBZuFQd5hdGCI8ftNxmtQ92kg23tvoWnynheIMql8vwOlBl2fO5GUXGM8VcINZQLAWMRnTXowzEdxmMQ1ru3/opcGZxk2LBH1dI6dNDE/M42uhLAo04Q+mklRjV8MXmV7i3vPbzpluvxhTlUOQtlzm7gxG0kM0mPdauTRACmXPD0SFAQ3NJ7aV7474xFiIsKgZ6gIXGMPpkV5a2sa7a8KKx+5leD+FWmX6bnIJgADp7Iz8AvtxajWK5xWwxStPTH9Gvj/q19VlqBlkf0b2uWe8jFa3PV5X7O8QYIt6ojCnCpyKPRjIoMQoTsPVWM8L2tKHF2HofmnrPda/1ON+OO5aRDNH+4qFQQqGHeagKevEBWs96NWJeJwothbKd7uKWXSNqYwYkCQrTHXFn+uzUotZ9z11rySV9NgA4/X4zmvEAv9G/9Gk5XsuQhL08N2F+8GQGnjVPdAqzMjDSR+Bulie0XBMnGyck0EjadfCepoeKO3Wv0mnn80U8sOmKdsGKvpL1VW1tVmYC6u2SpWoNaJkS+62LeHUSufHQoMgMhEjQOQcWoEzt8f/Q8QvUgvelCukRadgAm526s0KEfC6phEaCvZCNTUr9UmAqwK9aPJDQQhvjdzZMu1MFukegGP7qX2qTRNsTTPGTmYcn9xWYQDnC6v5QTzXLBoAW2uuP6YTTFLzwKXkf0XHzmWge7V/tPe7eyQPNP1iuIiFjxzlKE7FQIvoQOzF9kGPxg6wf+11dVayj8aDEXButavrdhOf2QCg/OhCozUfv0wk96nlDov9bovu8UETKYbgnmvSYJSX7sOih9Qb4YV6gDoLlbIoZm8BrDV60RCJaXmgkbjVu6RzKyeJ8+uWsvaUxUXhVyjJdQam+AFtDp02uN7yjdNllckxB92dkwweBxqiiGeGIStsnqC/jmhkJH1Ub7jQBKusEJ6QaSTstJPcKEdw5NF6F3K+i0ZLvG43LsxRqrLwFKOY8HmRfoProYQKziDWiVvCt2diOqqgShzdzEFI7R4HO6ub2VapFg2htQ+clbLYIIsNX2bk9lC3a5nQkQmL5H3letw798JEXlSS9Mvmzzli0aSyn8jv6SMi1tCQSV/HelUG2eTA8NdtlkxiKAT0q7Ia4IHbhCFEIuin2HrvmZGHV3nTMqpRX0KIPhVRPPmdbTUhMjwbrcVabK3e5bRvtQPLiowG0HmUPSANIoZ7AVSaf3JY5dWqn+Msc6Y0HyBG/TmrNLp+Ad0n2mLyXelf/Q90iFN+PrAri2T16a5RR+CiBrotGGcbBp/lAJuRByBidKeVcYKrh+QBA1XnHXHV+wZm02cV9EnI/qksJcbKzEVjfqfcqPhKUWFlas6cBXwpRCfBRVPO4aDwSc02AkL8vDlj5rt+FAjE7HeYN4omtiAy8g3Pi+n2ChbwHRFywnn4dQE9FEVEwkjm/mMiNLGld4sVB6iRnFc7FNzM3nH99281G9hcU6jIWReND94M9zT17tV+K6URrOSSpbJP0npHog7DO6eUj/qDsZgF1Fux4qNFp8R3vt8A4V7pkt9cmLQgvHNTSOAsSn2L7wrRYmICcT6z0ikg1TYCuMeVXLfVtb9jJ/n+vFkdTdq1I65ENrD0fv1nAKxQKp7H59gjQqEBWgJFkzX1M1uEOTgeNRopFFpAhcBlUv/+f62rqDLj776+eJbLEnwyKMf3tHXTTgp9jq5sRjC0r8xlp9F6Fh8NyKcRBr9/257KSI+raJMF2YbeMUEuhJjV9iraLJ/JgtPZMKx4Rn6vviDSckWWT2u+6J84wCylGvTVxVNudeqIw0MDhzUM0EQ+AEC0hZFHb0SMUCKCzyuPSsbg5NPeOSK+urBJpFCeoF6t6DIZIiH1xLuB6B1std0fUQxRrA/z6dDrU5Y3Gas0dizq7/pl5NXzBwsWjj5samO3/UFinwtUNT7z4vjz94yA52tyNP6AKkJknNjiCiL73je0Oa+cz2SidKYqrY+uje2O3msLxVInQRKc1itKp2cDMCXGORa8svDR806n8SB4Dqh85dZWpnVN5TrkQNKxdWFQbN3zx6OX7IeNJnsAmZTS+0RTQUPnW/Jy6pQWsjLgh8FCX76AIhVNgB6XSBmcZm+yvrdliIhUjWme4fV5NxwcO6iZNo4a334/YT83HUeYvKMnqSTexylX1E6rc9+8br0i074blKoG08TC6sp4BD8NUku2LTwBPipP/5KHkyXz7rVCMI82qvLtPHksTxyzKfcgCDgRXhzaEMS4HkeAw0LedT+Xq6PHFSJMdUwRIBnkPWo0XsNDwnz2976o306Fp949ZzSUzVE65F6sVgjxTOAvcry11BhbO73n7zdcKogZoNkK9tvwrJXQEhWTXsvPUqlPe4I+lvlEeb3qUW35wpKV7FGPuoCnyMKCpKJqmMN+5RIvVe++Qq8jc93WzbVPqn1I1UyzNXwkDIrGXSS5CPjCLhhLZpZx8HuA+TwpqEYjQM/G3ZdO1YUYU8kZUYVuww9jG2G6BKJ2DawNtd2f3JIqo8EUl7JZUPzyKkHWzJCYHapikxguyko3pqirDQIIXDscJ94hRoAGn7gWkxGvMQyA3hWHqH7S67dnSgK5fNtvWxYAsZ7BqL5YF9OVCNAxdpMtI/hR/IDGkJXKyIl0J1V12MK4YNMwdYjvaDl8N49uE8CpSuOkKjW15DZx8aOiN/8ytG83WZ5EcDeAD1jiEuGkplteE0+3PemsCes527iUIeidOpoybvLc0cQ9waEeGxCeXprVOV37nUU9008qtpBZGmUcBpd4N1Ymr3QPe2UgYy+4YCzjHt6/2HTTREJPrV/31WYvBTMkvM7pU6WZSCnozXbCkVQlYmXpqLQAzXvSWN9ijiWWYnoEZPKxbcntbkq8XS/V+eS0KLDT5Q/6lkqCNt8nu04Nw+ay33yXaG30KE5FbndNjkttS9uuxaQK2HpmKW5mhKXoXygBICXcxWndFtrqAp88YRy2DgHdQ/hOps1kHbGLUAI1MywJ7iI+Ta0kR32dLUeiQowdPyziqfOg380C+MbL1GgEtU/qaQ+5EAcNXRGUqmREWX/D0TOQVr1FpO+MbGB6cDqARfHFp2SUnADhsGGEHBCvx6yycj08lERmS3sjiFSttVVR9CW2mAdL3jSo7emdQS83v2I5w7H96p1SxivaWx9KUhq+Ijli9t2fVFokTf/GznNjAL/ewNstE8peqwAtcZ2Qn6q9JUhZ2sZcDm6tqwzfrs1LH4M9pSow3Amfz1vDcBTExQNTWV5QJw0IiGOkTh3ijy8PD4vvr4Gc2Nl/Rs+vhrKMBvBMpzgRdE5+bHc2ASYLABj8PhOoBdv4q9wusa5dIPFmBruB0NJiUfZD880b6NLXnS+mHTkmduuREqFNP/IKzR7tUO2l0NgYtp1eGpStieHvHom/VLpeIF//L/xoDuoRNIAam3BYJKMD5DcItBWvftUHfb5aOr/cb8wNzEGFiFSVItG3/xhm2HAthohwCXP5igoccM5jctxEhjbDRSUI/lIYAq3Ga81aVIRlC7Nd2zYkua3Aa7Igu2hPN5fRTTwV4zsNELu2SIDjeOehjKH+CCAdAgXcpY3B6AoNhE2rDxm1h1+Iex/xxPDZiZ/MJVl5NdhDjAW0MkWTNzJu9lx/iFpBrEyv42sll0sAXjfb9KE3EiBfZopEu7dnLMORN/FT7/RfT53ZnWaREy4H3L6UCmYEfkQf9BvFyqK62eWeulU7OFVzRihWNXFXSrk/pmpJEVisvFIjALr1eOGlsGCyJVQMUKnqL5Q6XFCoZNyYVoxEvFgRfzSQNZK8cFQrN0zBfppof8tGA3gsMzaYhCLOLQEBFlXxzTxNK0UFDGfZhYHSGs08A8j1CkfrlfVlm2XN7KOo2VnHcAaeFHSNEJLcdYKcpCQST0jF7KB/4vbzAdGTr1XN6f70t79AaABP6P4pTJu/Nmi2DjrhqxzOdA0vQJIZTKxnDjJPR94PUnm3pLRHjSEkRupBzccL6cZrdWyjDaymbYVIJ9xiMnkJibd7joKGdxzUwFRc+EyvZjh+0lwGfL5GG9y3QngxCzbCAegc4uvScZ55NBVNA0kau6lLatn4vmXTmM/Wveg2ImCyvWXu8JmibjfTRsY/uvEW9uy85hxFAXOJ0/2LsMiUnoDxE1VlCxuA4U6rbSEyzD0kMH74NwVlgaFSMzsT2hOz3VtSSoZyfwuQAzel2ecBQAafJWMscrqvPioXBtGN6ezK8M4ppb1ABv//J/heiGyoNFjkK4rC/SlQttvIJlH/K2M4Q0aJpxqELWnBaUNicuxTJG1LZoVu+bR5pGGxQ66U3Z+fC4yqzgrBBm3Jr+CL78LLwJReqf1ZqM9n3HzM3fc7HeR8KISlboS+T8U5Wscunmk7bPpKWQiZmNx2VpgyCR51ELiEcnJiuTuUYHT7ChoUulWvxp6YiH1ZPxjLGGutjVMm9PFDYRPYV4h9j2M2jH6r+m8TljNlH1FWpG3cbJd7/YRvx0qfCQvwx6uEsGwUdW+idPBH7RQtB4rrpNAN36z5bdF1Psqol1L1oZpHnT404PV02D1y5lmPZ3QR5cqUrMcmVtVoukIH57PUB3Oe/tuipnk2HRT8Vjw+2iLZ6BZzid8BaHaQ1zsxKDIpk/nctImp7SCe6xxQ0N3ewOYSgj+5qMTfGJwEF3dIzzMCk9Q5D2RH1wUNFezwvfL9d2ArH0d//BUFnZ9bZLuZY/EwyCVeJO1Txv8+lg94MLASNUY7OY2dt9b831xOcbIv5C/m6T7fosrOrGx3ypsOIsGpAZFPXEHS2TP3gerczfCHpQnz5kHsRgGLsOYJY0VlGqkrUPigtzEYA1eM7k1VxpALv9nt9fP6XHakJJ+9Zlh9nP3ksqskLxROOalqaxFQuwQmBGi1Dg79OGTkI1dvPBL4TrXq9wrLK8eTDVHWpdpI+iSJ5dxpAtXirKtfEu868kAyoaITtVXA0F2sLVkJkIYE3eubafQpl8TJNejP1FVwvah8NPflNP8+XZ3dfIkYLNbEBhqdyQrwSLZyL3upNNYCNTibnJW3f9oxQD6tRzvuW+cEJ5hykQFBwAG0X/7/CJY7RFEmIXYLVDAERlBctdjmfSb4GYFecI8ya+lrgARBWKB1oTsjLbijeWZQN06e+LtRP3IacqU2Bt/ubAcUU554cNIbdBVee9jPT1PIa3Lypxb5A3cD06un63fxlzJ/90m76RjOOG5atjUXgh54BUGffjgVve5pVOZRInXQhgyITJg8WZNDfeG7if8hHdZYDLy1hgv9wD/UhbNVWOwcv0Z8tKGa2RaxzB8jMrepDl/9CL4G3T6bs/fzAa6t2uTcNqN2y6g9qX/CKYw0CYGIlIYNDdqGSOUUy5hUQ9Dfopc0mmaEyQkhefOjBuW1hDcC77mMiKxqh2aurY0aek4CoJcPg5LgO9jRroEynpti3OH8M+In8y46X8YFR+L2zc4nXLgs6v0zWv2wtMH2/4+HSl1MpP6o4jl0Ww3scYf9cLoq01S9Iqdu1kwBpiFftikd1wGRmmpqgqn3pLv+UBSoNv/3ANQOlA5tNdrGDlVZ1PWtLKsTtfedzwIiKiVm0LhAh+anma80HJIuAAAAAA==;" parent="1" vertex="1">
          <mxGeometry x="-180" y="220" width="480" height="585" as="geometry" />
        </mxCell>
      </root>
    </mxGraphModel>
  </diagram>
</mxfile>
